{
	"asset":{
		"generator":"Khronos glTF Blender I/O v5.2.40",
		"version":"2.0"
	},
	"extensionsUsed":[
		"KHR_materials_specular"
	],
	"scene":0,
	"scenes":[
		{
			"extras":{
				"blendermcp_server_running":1
			},
			"name":"Scene",
			"nodes":[
				0
			]
		}
	],
	"nodes":[
		{
			"extras":{
				"huella_generada":"b7dd2fe191f1d674d9e3bf134edd1918",
				"generado_por":"construir_nie07.py"
			},
			"mesh":0,
			"name":"NIE-07_Aguja_de_Colmena-col"
		}
	],
	"materials":[
		{
			"doubleSided":true,
			"emissiveTexture":{
				"index":0
			},
			"extensions":{
				"KHR_materials_specular":{
					"specularFactor":0.30000001192092896
				}
			},
			"name":"NIE-07_Aguja_de_Colmena",
			"pbrMetallicRoughness":{
				"baseColorTexture":{
					"index":1
				},
				"metallicFactor":0,
				"roughnessFactor":0.9200000166893005
			}
		}
	],
	"meshes":[
		{
			"name":"NIE-07_Aguja_de_Colmena",
			"primitives":[
				{
					"attributes":{
						"POSITION":0,
						"NORMAL":1,
						"TEXCOORD_0":2
					},
					"indices":3,
					"material":0
				}
			]
		}
	],
	"textures":[
		{
			"sampler":0,
			"source":0
		},
		{
			"sampler":0,
			"source":0
		}
	],
	"images":[
		{
			"mimeType":"image/png",
			"name":"NIE-07_atlas",
			"uri":"NIE-07_atlas.png"
		}
	],
	"accessors":[
		{
			"bufferView":0,
			"componentType":5126,
			"count":5440,
			"max":[
				1.213693618774414,
				7.619999885559082,
				1.1186120510101318
			],
			"min":[
				-1.168129563331604,
				0,
				-1.192840814590454
			],
			"type":"VEC3"
		},
		{
			"bufferView":1,
			"componentType":5126,
			"count":5440,
			"type":"VEC3"
		},
		{
			"bufferView":2,
			"componentType":5126,
			"count":5440,
			"type":"VEC2"
		},
		{
			"bufferView":3,
			"componentType":5123,
			"count":8964,
			"type":"SCALAR"
		}
	],
	"bufferViews":[
		{
			"buffer":0,
			"byteLength":65280,
			"byteOffset":0,
			"target":34962
		},
		{
			"buffer":0,
			"byteLength":65280,
			"byteOffset":65280,
			"target":34962
		},
		{
			"buffer":0,
			"byteLength":43520,
			"byteOffset":130560,
			"target":34962
		},
		{
			"buffer":0,
			"byteLength":17928,
			"byteOffset":174080,
			"target":34963
		}
	],
	"samplers":[
		{
			"magFilter":9728,
			"minFilter":9984
		}
	],
	"buffers":[
		{
			"byteLength":192008,
			"uri":"NIE-07_Aguja_de_Colmena.bin"
		}
	]
}
