{
	"asset":{
		"generator":"Khronos glTF Blender I/O v5.2.40",
		"version":"2.0"
	},
	"extensionsUsed":[
		"KHR_materials_specular"
	],
	"scene":0,
	"scenes":[
		{
			"name":"Scene",
			"nodes":[
				0
			]
		}
	],
	"nodes":[
		{
			"extras":{
				"huella_generada":"7edb2d5357b1219711f4f6d7343159c6",
				"generado_por":"construir_ter06.py",
				"modulo_m":4.0,
				"colision":"trimalla"
			},
			"mesh":0,
			"name":"TER-06_Arenal_de_conchas_a-col",
			"translation":[
				9,
				0,
				0
			]
		}
	],
	"materials":[
		{
			"doubleSided":true,
			"extensions":{
				"KHR_materials_specular":{
					"specularFactor":0.23999999463558197
				}
			},
			"name":"TER-06_Arenal_de_conchas",
			"pbrMetallicRoughness":{
				"baseColorTexture":{
					"index":0
				},
				"metallicFactor":0,
				"roughnessFactor":0.949999988079071
			}
		}
	],
	"meshes":[
		{
			"name":"TER-06_Arenal_de_conchas_a",
			"primitives":[
				{
					"attributes":{
						"POSITION":0,
						"NORMAL":1,
						"TEXCOORD_0":2
					},
					"indices":3,
					"material":0
				}
			]
		}
	],
	"textures":[
		{
			"sampler":0,
			"source":0
		}
	],
	"images":[
		{
			"mimeType":"image/png",
			"name":"TER-06_atlas",
			"uri":"TER-06_atlas.png"
		}
	],
	"accessors":[
		{
			"bufferView":0,
			"componentType":5126,
			"count":468,
			"max":[
				2,
				0.050804197788238525,
				2
			],
			"min":[
				-2,
				-0.1491958051919937,
				-2
			],
			"type":"VEC3"
		},
		{
			"bufferView":1,
			"componentType":5126,
			"count":468,
			"type":"VEC3"
		},
		{
			"bufferView":2,
			"componentType":5126,
			"count":468,
			"type":"VEC2"
		},
		{
			"bufferView":3,
			"componentType":5123,
			"count":702,
			"type":"SCALAR"
		}
	],
	"bufferViews":[
		{
			"buffer":0,
			"byteLength":5616,
			"byteOffset":0,
			"target":34962
		},
		{
			"buffer":0,
			"byteLength":5616,
			"byteOffset":5616,
			"target":34962
		},
		{
			"buffer":0,
			"byteLength":3744,
			"byteOffset":11232,
			"target":34962
		},
		{
			"buffer":0,
			"byteLength":1404,
			"byteOffset":14976,
			"target":34963
		}
	],
	"samplers":[
		{
			"magFilter":9728,
			"minFilter":9984
		}
	],
	"buffers":[
		{
			"byteLength":16380,
			"uri":"TER-06_Arenal_de_conchas_a.bin"
		}
	]
}
