{
	"asset":{
		"generator":"Khronos glTF Blender I/O v5.2.40",
		"version":"2.0"
	},
	"extensionsUsed":[
		"KHR_materials_specular"
	],
	"scene":0,
	"scenes":[
		{
			"name":"Scene",
			"nodes":[
				1
			]
		}
	],
	"nodes":[
		{
			"extras":{
				"huella_generada":"3f937e72b3738415b4c99f0ba397901c",
				"generado_por":"construir_ind03.py",
				"carrera_m":2.0,
				"eje":"+Z",
				"duracion_s":40.0,
				"anillos_cerrada":6,
				"anillos_abierta":1,
				"segundos_por_anillo":8.0
			},
			"mesh":0,
			"name":"IND-03_Compuerta_hidraulica_hoja-col"
		},
		{
			"children":[
				0
			],
			"extras":{
				"huella_generada":"ba86671fc55b8e110fc5aab33e250385",
				"generado_por":"construir_ind03.py"
			},
			"mesh":1,
			"name":"IND-03_Compuerta_hidraulica-col"
		}
	],
	"materials":[
		{
			"doubleSided":true,
			"extensions":{
				"KHR_materials_specular":{
					"specularFactor":0.47999998927116394
				}
			},
			"name":"IND-03_Compuerta_hidraulica",
			"pbrMetallicRoughness":{
				"baseColorTexture":{
					"index":0
				},
				"metallicFactor":0,
				"roughnessFactor":0.8199999928474426
			}
		}
	],
	"meshes":[
		{
			"name":"IND-03_Compuerta_hidraulica_hoja",
			"primitives":[
				{
					"attributes":{
						"POSITION":0,
						"NORMAL":1,
						"TEXCOORD_0":2
					},
					"indices":3,
					"material":0
				}
			]
		},
		{
			"name":"IND-03_Compuerta_hidraulica",
			"primitives":[
				{
					"attributes":{
						"POSITION":4,
						"NORMAL":5,
						"TEXCOORD_0":6
					},
					"indices":7,
					"material":0
				}
			]
		}
	],
	"textures":[
		{
			"sampler":0,
			"source":0
		}
	],
	"images":[
		{
			"mimeType":"image/png",
			"name":"IND-03_atlas",
			"uri":"IND-03_atlas.png"
		}
	],
	"accessors":[
		{
			"bufferView":0,
			"componentType":5126,
			"count":704,
			"max":[
				3.4750001430511475,
				3.140000104904175,
				-0.800000011920929
			],
			"min":[
				-3.4750001430511475,
				0.14399999380111694,
				-1.190000057220459
			],
			"type":"VEC3"
		},
		{
			"bufferView":1,
			"componentType":5126,
			"count":704,
			"type":"VEC3"
		},
		{
			"bufferView":2,
			"componentType":5126,
			"count":704,
			"type":"VEC2"
		},
		{
			"bufferView":3,
			"componentType":5123,
			"count":1080,
			"type":"SCALAR"
		},
		{
			"bufferView":4,
			"componentType":5126,
			"count":1368,
			"max":[
				4,
				6,
				0
			],
			"min":[
				-4,
				0,
				-1.2000000476837158
			],
			"type":"VEC3"
		},
		{
			"bufferView":5,
			"componentType":5126,
			"count":1368,
			"type":"VEC3"
		},
		{
			"bufferView":6,
			"componentType":5126,
			"count":1368,
			"type":"VEC2"
		},
		{
			"bufferView":7,
			"componentType":5123,
			"count":2070,
			"type":"SCALAR"
		}
	],
	"bufferViews":[
		{
			"buffer":0,
			"byteLength":8448,
			"byteOffset":0,
			"target":34962
		},
		{
			"buffer":0,
			"byteLength":8448,
			"byteOffset":8448,
			"target":34962
		},
		{
			"buffer":0,
			"byteLength":5632,
			"byteOffset":16896,
			"target":34962
		},
		{
			"buffer":0,
			"byteLength":2160,
			"byteOffset":22528,
			"target":34963
		},
		{
			"buffer":0,
			"byteLength":16416,
			"byteOffset":24688,
			"target":34962
		},
		{
			"buffer":0,
			"byteLength":16416,
			"byteOffset":41104,
			"target":34962
		},
		{
			"buffer":0,
			"byteLength":10944,
			"byteOffset":57520,
			"target":34962
		},
		{
			"buffer":0,
			"byteLength":4140,
			"byteOffset":68464,
			"target":34963
		}
	],
	"samplers":[
		{
			"magFilter":9728,
			"minFilter":9984
		}
	],
	"buffers":[
		{
			"byteLength":72604,
			"uri":"IND-03_Compuerta_hidraulica.bin"
		}
	]
}
