{
	"asset":{
		"generator":"Khronos glTF Blender I/O v5.2.40",
		"version":"2.0"
	},
	"extensionsUsed":[
		"KHR_materials_specular"
	],
	"scene":0,
	"scenes":[
		{
			"extras":{
				"blendermcp_server_running":1
			},
			"name":"Scene",
			"nodes":[
				0,
				1
			]
		}
	],
	"nodes":[
		{
			"extras":{
				"huella_generada":"0be12bcd3ccb55f5c07062cbb4d7be85",
				"generado_por":"construir_flo01.py"
			},
			"mesh":0,
			"name":"FLO-01_Candelaria"
		},
		{
			"mesh":1,
			"name":"FLO-01_Candelaria-convcolonly"
		}
	],
	"materials":[
		{
			"doubleSided":true,
			"extensions":{
				"KHR_materials_specular":{
					"specularFactor":0.23999999463558197
				}
			},
			"name":"FLO-01_Candelaria",
			"pbrMetallicRoughness":{
				"baseColorTexture":{
					"index":0
				},
				"metallicFactor":0,
				"roughnessFactor":0.9300000071525574
			}
		}
	],
	"meshes":[
		{
			"name":"FLO-01_Candelaria",
			"primitives":[
				{
					"attributes":{
						"POSITION":0,
						"NORMAL":1,
						"TEXCOORD_0":2
					},
					"indices":3,
					"material":0
				}
			]
		},
		{
			"name":"FLO-01_Candelaria-convcolonly",
			"primitives":[
				{
					"attributes":{
						"POSITION":4,
						"NORMAL":5
					},
					"indices":6
				}
			]
		}
	],
	"textures":[
		{
			"sampler":0,
			"source":0
		}
	],
	"images":[
		{
			"mimeType":"image/png",
			"name":"FLO-01_atlas",
			"uri":"FLO-01_atlas.png"
		}
	],
	"accessors":[
		{
			"bufferView":0,
			"componentType":5126,
			"count":1480,
			"max":[
				0.8768373727798462,
				2.4049999713897705,
				0.9988726377487183
			],
			"min":[
				-0.8729392886161804,
				-0.017247997224330902,
				-0.8007042407989502
			],
			"type":"VEC3"
		},
		{
			"bufferView":1,
			"componentType":5126,
			"count":1480,
			"type":"VEC3"
		},
		{
			"bufferView":2,
			"componentType":5126,
			"count":1480,
			"type":"VEC2"
		},
		{
			"bufferView":3,
			"componentType":5123,
			"count":2142,
			"type":"SCALAR"
		},
		{
			"bufferView":4,
			"componentType":5126,
			"count":48,
			"max":[
				0.19801563024520874,
				0.7094264030456543,
				0.1970711648464203
			],
			"min":[
				-0.20997712016105652,
				-0.017247997224330902,
				-0.21128755807876587
			],
			"type":"VEC3"
		},
		{
			"bufferView":5,
			"componentType":5126,
			"count":48,
			"type":"VEC3"
		},
		{
			"bufferView":6,
			"componentType":5123,
			"count":84,
			"type":"SCALAR"
		}
	],
	"bufferViews":[
		{
			"buffer":0,
			"byteLength":17760,
			"byteOffset":0,
			"target":34962
		},
		{
			"buffer":0,
			"byteLength":17760,
			"byteOffset":17760,
			"target":34962
		},
		{
			"buffer":0,
			"byteLength":11840,
			"byteOffset":35520,
			"target":34962
		},
		{
			"buffer":0,
			"byteLength":4284,
			"byteOffset":47360,
			"target":34963
		},
		{
			"buffer":0,
			"byteLength":576,
			"byteOffset":51644,
			"target":34962
		},
		{
			"buffer":0,
			"byteLength":576,
			"byteOffset":52220,
			"target":34962
		},
		{
			"buffer":0,
			"byteLength":168,
			"byteOffset":52796,
			"target":34963
		}
	],
	"samplers":[
		{
			"magFilter":9728,
			"minFilter":9984
		}
	],
	"buffers":[
		{
			"byteLength":52964,
			"uri":"FLO-01_Candelaria.bin"
		}
	]
}
