{
	"asset":{
		"generator":"Khronos glTF Blender I/O v5.2.40",
		"version":"2.0"
	},
	"extensionsUsed":[
		"KHR_materials_specular"
	],
	"scene":0,
	"scenes":[
		{
			"name":"Scene",
			"nodes":[
				0
			]
		}
	],
	"nodes":[
		{
			"extras":{
				"huella_generada":"f6baed1d577d0ec633471e493683473f",
				"generado_por":"construir_flo03.py"
			},
			"mesh":0,
			"name":"FLO-03_Barbacana"
		}
	],
	"materials":[
		{
			"doubleSided":true,
			"extensions":{
				"KHR_materials_specular":{
					"specularFactor":0.20000000298023224
				}
			},
			"name":"FLO-03_Barbacana",
			"pbrMetallicRoughness":{
				"baseColorTexture":{
					"index":0
				},
				"metallicFactor":0,
				"roughnessFactor":0.949999988079071
			}
		}
	],
	"meshes":[
		{
			"name":"FLO-03_Barbacana",
			"primitives":[
				{
					"attributes":{
						"POSITION":0,
						"NORMAL":1,
						"TEXCOORD_0":2
					},
					"indices":3,
					"material":0
				}
			]
		}
	],
	"textures":[
		{
			"sampler":0,
			"source":0
		}
	],
	"images":[
		{
			"mimeType":"image/png",
			"name":"FLO-03_atlas",
			"uri":"FLO-03_atlas.png"
		}
	],
	"accessors":[
		{
			"bufferView":0,
			"componentType":5126,
			"count":1244,
			"max":[
				0.5783073902130127,
				3.18789005279541,
				0.6110749840736389
			],
			"min":[
				-0.5901046991348267,
				0,
				-0.6051908731460571
			],
			"type":"VEC3"
		},
		{
			"bufferView":1,
			"componentType":5126,
			"count":1244,
			"type":"VEC3"
		},
		{
			"bufferView":2,
			"componentType":5126,
			"count":1244,
			"type":"VEC2"
		},
		{
			"bufferView":3,
			"componentType":5123,
			"count":1842,
			"type":"SCALAR"
		}
	],
	"bufferViews":[
		{
			"buffer":0,
			"byteLength":14928,
			"byteOffset":0,
			"target":34962
		},
		{
			"buffer":0,
			"byteLength":14928,
			"byteOffset":14928,
			"target":34962
		},
		{
			"buffer":0,
			"byteLength":9952,
			"byteOffset":29856,
			"target":34962
		},
		{
			"buffer":0,
			"byteLength":3684,
			"byteOffset":39808,
			"target":34963
		}
	],
	"samplers":[
		{
			"magFilter":9728,
			"minFilter":9984
		}
	],
	"buffers":[
		{
			"byteLength":43492,
			"uri":"FLO-03_Barbacana.bin"
		}
	]
}
