{
	"asset":{
		"generator":"Khronos glTF Blender I/O v5.2.40",
		"version":"2.0"
	},
	"extensionsUsed":[
		"KHR_materials_specular"
	],
	"scene":0,
	"scenes":[
		{
			"name":"Scene",
			"nodes":[
				0
			]
		}
	],
	"nodes":[
		{
			"extras":{
				"huella_generada":"c10d885f5a2723539c5e3ae5d0d7fbdb",
				"generado_por":"construir_mar02.py",
				"colision":"convexa",
				"tipo":"bidon",
				"linea_flotacion":0.0,
				"calado_m":0.11400000000000005
			},
			"mesh":0,
			"name":"MAR-02_Restos_a_la_deriva_b-convcol"
		}
	],
	"materials":[
		{
			"doubleSided":true,
			"extensions":{
				"KHR_materials_specular":{
					"specularFactor":0.36000001430511475
				}
			},
			"name":"MAR-02_restos",
			"pbrMetallicRoughness":{
				"baseColorTexture":{
					"index":0
				},
				"metallicFactor":0,
				"roughnessFactor":0.9200000166893005
			}
		}
	],
	"meshes":[
		{
			"name":"MAR-02_Restos_a_la_deriva_b",
			"primitives":[
				{
					"attributes":{
						"POSITION":0,
						"NORMAL":1,
						"TEXCOORD_0":2
					},
					"indices":3,
					"material":0
				}
			]
		}
	],
	"textures":[
		{
			"sampler":0,
			"source":0
		}
	],
	"images":[
		{
			"mimeType":"image/png",
			"name":"MAR-02_atlas",
			"uri":"MAR-02_atlas.png"
		}
	],
	"accessors":[
		{
			"bufferView":0,
			"componentType":5126,
			"count":177,
			"max":[
				1,
				0.28600001335144043,
				0.699999988079071
			],
			"min":[
				-1,
				-0.11400000005960464,
				-0.699999988079071
			],
			"type":"VEC3"
		},
		{
			"bufferView":1,
			"componentType":5126,
			"count":177,
			"type":"VEC3"
		},
		{
			"bufferView":2,
			"componentType":5126,
			"count":177,
			"type":"VEC2"
		},
		{
			"bufferView":3,
			"componentType":5123,
			"count":252,
			"type":"SCALAR"
		}
	],
	"bufferViews":[
		{
			"buffer":0,
			"byteLength":2124,
			"byteOffset":0,
			"target":34962
		},
		{
			"buffer":0,
			"byteLength":2124,
			"byteOffset":2124,
			"target":34962
		},
		{
			"buffer":0,
			"byteLength":1416,
			"byteOffset":4248,
			"target":34962
		},
		{
			"buffer":0,
			"byteLength":504,
			"byteOffset":5664,
			"target":34963
		}
	],
	"samplers":[
		{
			"magFilter":9728,
			"minFilter":9984
		}
	],
	"buffers":[
		{
			"byteLength":6168,
			"uri":"MAR-02_Restos_a_la_deriva_b.bin"
		}
	]
}
