{
	"asset":{
		"generator":"Khronos glTF Blender I/O v5.2.40",
		"version":"2.0"
	},
	"extensionsUsed":[
		"KHR_materials_specular"
	],
	"scene":0,
	"scenes":[
		{
			"name":"Scene",
			"nodes":[
				0
			]
		}
	],
	"nodes":[
		{
			"extras":{
				"huella_generada":"851219472435bf18ced2e173d208824b",
				"generado_por":"construir_flo15.py"
			},
			"mesh":0,
			"name":"FLO-15_Zancudo_caido-col"
		}
	],
	"materials":[
		{
			"doubleSided":true,
			"extensions":{
				"KHR_materials_specular":{
					"specularFactor":0.23999999463558197
				}
			},
			"name":"FLO-15_Zancudo_caido",
			"pbrMetallicRoughness":{
				"baseColorTexture":{
					"index":0
				},
				"metallicFactor":0,
				"roughnessFactor":0.9300000071525574
			}
		}
	],
	"meshes":[
		{
			"name":"FLO-15_Zancudo_caido",
			"primitives":[
				{
					"attributes":{
						"POSITION":0,
						"NORMAL":1,
						"TEXCOORD_0":2
					},
					"indices":3,
					"material":0
				}
			]
		}
	],
	"textures":[
		{
			"sampler":0,
			"source":0
		}
	],
	"images":[
		{
			"mimeType":"image/png",
			"name":"FLO-15_atlas",
			"uri":"FLO-15_atlas.png"
		}
	],
	"accessors":[
		{
			"bufferView":0,
			"componentType":5126,
			"count":1376,
			"max":[
				7.533632755279541,
				2.3239047527313232,
				1.7823688983917236
			],
			"min":[
				-0.3389136791229248,
				-0.03573721647262573,
				-1.5430421829223633
			],
			"type":"VEC3"
		},
		{
			"bufferView":1,
			"componentType":5126,
			"count":1376,
			"type":"VEC3"
		},
		{
			"bufferView":2,
			"componentType":5126,
			"count":1376,
			"type":"VEC2"
		},
		{
			"bufferView":3,
			"componentType":5123,
			"count":2022,
			"type":"SCALAR"
		}
	],
	"bufferViews":[
		{
			"buffer":0,
			"byteLength":16512,
			"byteOffset":0,
			"target":34962
		},
		{
			"buffer":0,
			"byteLength":16512,
			"byteOffset":16512,
			"target":34962
		},
		{
			"buffer":0,
			"byteLength":11008,
			"byteOffset":33024,
			"target":34962
		},
		{
			"buffer":0,
			"byteLength":4044,
			"byteOffset":44032,
			"target":34963
		}
	],
	"samplers":[
		{
			"magFilter":9728,
			"minFilter":9984
		}
	],
	"buffers":[
		{
			"byteLength":48076,
			"uri":"FLO-15_Zancudo_caido.bin"
		}
	]
}
