{
	"asset":{
		"generator":"Khronos glTF Blender I/O v5.2.40",
		"version":"2.0"
	},
	"extensionsUsed":[
		"KHR_materials_specular"
	],
	"scene":0,
	"scenes":[
		{
			"name":"Scene",
			"nodes":[
				0,
				1
			]
		}
	],
	"nodes":[
		{
			"extras":{
				"huella_generada":"310b6002781a672e51cc55d3b589f813",
				"generado_por":"construir_flo02.py"
			},
			"mesh":0,
			"name":"FLO-02_Arbol_zancudo_b"
		},
		{
			"mesh":1,
			"name":"FLO-02_Arbol_zancudo_b-colonly"
		}
	],
	"materials":[
		{
			"doubleSided":true,
			"extensions":{
				"KHR_materials_specular":{
					"specularFactor":0.23999999463558197
				}
			},
			"name":"FLO-02_Arbol_zancudo",
			"pbrMetallicRoughness":{
				"baseColorTexture":{
					"index":0
				},
				"metallicFactor":0,
				"roughnessFactor":0.9399999976158142
			}
		}
	],
	"meshes":[
		{
			"name":"FLO-02_Arbol_zancudo_b",
			"primitives":[
				{
					"attributes":{
						"POSITION":0,
						"NORMAL":1,
						"TEXCOORD_0":2
					},
					"indices":3,
					"material":0
				}
			]
		},
		{
			"name":"FLO-02_Arbol_zancudo_b-colonly",
			"primitives":[
				{
					"attributes":{
						"POSITION":4,
						"NORMAL":5,
						"TEXCOORD_0":6
					},
					"indices":7
				}
			]
		}
	],
	"textures":[
		{
			"sampler":0,
			"source":0
		}
	],
	"images":[
		{
			"mimeType":"image/png",
			"name":"FLO-02_atlas",
			"uri":"FLO-02_atlas.png"
		}
	],
	"accessors":[
		{
			"bufferView":0,
			"componentType":5126,
			"count":4244,
			"max":[
				2.633002758026123,
				7.671000003814697,
				2.3008968830108643
			],
			"min":[
				-1.730226755142212,
				-0.05000000074505806,
				-2.0211007595062256
			],
			"type":"VEC3"
		},
		{
			"bufferView":1,
			"componentType":5126,
			"count":4244,
			"type":"VEC3"
		},
		{
			"bufferView":2,
			"componentType":5126,
			"count":4244,
			"type":"VEC2"
		},
		{
			"bufferView":3,
			"componentType":5123,
			"count":7164,
			"type":"SCALAR"
		},
		{
			"bufferView":4,
			"componentType":5126,
			"count":1348,
			"max":[
				2.633002758026123,
				2.2662999629974365,
				2.3008968830108643
			],
			"min":[
				-1.730226755142212,
				-0.05000000074505806,
				-2.0211007595062256
			],
			"type":"VEC3"
		},
		{
			"bufferView":5,
			"componentType":5126,
			"count":1348,
			"type":"VEC3"
		},
		{
			"bufferView":6,
			"componentType":5126,
			"count":1348,
			"type":"VEC2"
		},
		{
			"bufferView":7,
			"componentType":5123,
			"count":2190,
			"type":"SCALAR"
		}
	],
	"bufferViews":[
		{
			"buffer":0,
			"byteLength":50928,
			"byteOffset":0,
			"target":34962
		},
		{
			"buffer":0,
			"byteLength":50928,
			"byteOffset":50928,
			"target":34962
		},
		{
			"buffer":0,
			"byteLength":33952,
			"byteOffset":101856,
			"target":34962
		},
		{
			"buffer":0,
			"byteLength":14328,
			"byteOffset":135808,
			"target":34963
		},
		{
			"buffer":0,
			"byteLength":16176,
			"byteOffset":150136,
			"target":34962
		},
		{
			"buffer":0,
			"byteLength":16176,
			"byteOffset":166312,
			"target":34962
		},
		{
			"buffer":0,
			"byteLength":10784,
			"byteOffset":182488,
			"target":34962
		},
		{
			"buffer":0,
			"byteLength":4380,
			"byteOffset":193272,
			"target":34963
		}
	],
	"samplers":[
		{
			"magFilter":9728,
			"minFilter":9984
		}
	],
	"buffers":[
		{
			"byteLength":197652,
			"uri":"FLO-02_Arbol_zancudo_b.bin"
		}
	]
}
