{
	"asset":{
		"generator":"Khronos glTF Blender I/O v5.2.40",
		"version":"2.0"
	},
	"extensionsUsed":[
		"KHR_materials_specular"
	],
	"scene":0,
	"scenes":[
		{
			"name":"Scene",
			"nodes":[
				0
			]
		}
	],
	"nodes":[
		{
			"mesh":0,
			"name":"FLO-02_Arbol_zancudo"
		}
	],
	"materials":[
		{
			"doubleSided":true,
			"extensions":{
				"KHR_materials_specular":{
					"specularFactor":0.23999999463558197
				}
			},
			"name":"FLO-02_Arbol_zancudo",
			"pbrMetallicRoughness":{
				"baseColorTexture":{
					"index":0
				},
				"metallicFactor":0,
				"roughnessFactor":0.9399999976158142
			}
		}
	],
	"meshes":[
		{
			"name":"FLO-02_Arbol_zancudo.001",
			"primitives":[
				{
					"attributes":{
						"POSITION":0,
						"NORMAL":1,
						"TEXCOORD_0":2
					},
					"indices":3,
					"material":0
				}
			]
		}
	],
	"textures":[
		{
			"sampler":0,
			"source":0
		}
	],
	"images":[
		{
			"mimeType":"image/png",
			"name":"FLO-02_atlas",
			"uri":"FLO-02_atlas.png"
		}
	],
	"accessors":[
		{
			"bufferView":0,
			"componentType":5126,
			"count":4250,
			"max":[
				2.4281539916992188,
				8.90999984741211,
				2.2090282440185547
			],
			"min":[
				-2.1054933071136475,
				-0.05000000074505806,
				-2.1133477687835693
			],
			"type":"VEC3"
		},
		{
			"bufferView":1,
			"componentType":5126,
			"count":4250,
			"type":"VEC3"
		},
		{
			"bufferView":2,
			"componentType":5126,
			"count":4250,
			"type":"VEC2"
		},
		{
			"bufferView":3,
			"componentType":5123,
			"count":7164,
			"type":"SCALAR"
		}
	],
	"bufferViews":[
		{
			"buffer":0,
			"byteLength":51000,
			"byteOffset":0,
			"target":34962
		},
		{
			"buffer":0,
			"byteLength":51000,
			"byteOffset":51000,
			"target":34962
		},
		{
			"buffer":0,
			"byteLength":34000,
			"byteOffset":102000,
			"target":34962
		},
		{
			"buffer":0,
			"byteLength":14328,
			"byteOffset":136000,
			"target":34963
		}
	],
	"samplers":[
		{
			"magFilter":9728,
			"minFilter":9984
		}
	],
	"buffers":[
		{
			"byteLength":150328,
			"uri":"FLO-02_Arbol_zancudo.bin"
		}
	]
}
