{
	"asset":{
		"generator":"Khronos glTF Blender I/O v5.2.40",
		"version":"2.0"
	},
	"extensionsUsed":[
		"KHR_materials_specular"
	],
	"scene":0,
	"scenes":[
		{
			"name":"Scene",
			"nodes":[
				0,
				1
			]
		}
	],
	"nodes":[
		{
			"extras":{
				"huella_generada":"c0c85f81ca0e06ce1e8e231cae7a1aad",
				"generado_por":"construir_flo02.py"
			},
			"mesh":0,
			"name":"FLO-02_Arbol_zancudo_c",
			"translation":[
				6,
				0,
				0
			]
		},
		{
			"mesh":1,
			"name":"FLO-02_Arbol_zancudo_c-colonly"
		}
	],
	"materials":[
		{
			"doubleSided":true,
			"extensions":{
				"KHR_materials_specular":{
					"specularFactor":0.23999999463558197
				}
			},
			"name":"FLO-02_Arbol_zancudo",
			"pbrMetallicRoughness":{
				"baseColorTexture":{
					"index":0
				},
				"metallicFactor":0,
				"roughnessFactor":0.9399999976158142
			}
		}
	],
	"meshes":[
		{
			"name":"FLO-02_Arbol_zancudo_c",
			"primitives":[
				{
					"attributes":{
						"POSITION":0,
						"NORMAL":1,
						"TEXCOORD_0":2
					},
					"indices":3,
					"material":0
				}
			]
		},
		{
			"name":"FLO-02_Arbol_zancudo_c-colonly",
			"primitives":[
				{
					"attributes":{
						"POSITION":4,
						"NORMAL":5,
						"TEXCOORD_0":6
					},
					"indices":7
				}
			]
		}
	],
	"textures":[
		{
			"sampler":0,
			"source":0
		}
	],
	"images":[
		{
			"mimeType":"image/png",
			"name":"FLO-02_atlas",
			"uri":"FLO-02_atlas.png"
		}
	],
	"accessors":[
		{
			"bufferView":0,
			"componentType":5126,
			"count":4280,
			"max":[
				2.2959156036376953,
				9.706500053405762,
				2.3793349266052246
			],
			"min":[
				-2.067288875579834,
				-0.05000000074505806,
				-1.9428989887237549
			],
			"type":"VEC3"
		},
		{
			"bufferView":1,
			"componentType":5126,
			"count":4280,
			"type":"VEC3"
		},
		{
			"bufferView":2,
			"componentType":5126,
			"count":4280,
			"type":"VEC2"
		},
		{
			"bufferView":3,
			"componentType":5123,
			"count":7164,
			"type":"SCALAR"
		},
		{
			"bufferView":4,
			"componentType":5126,
			"count":1490,
			"max":[
				2.2959156036376953,
				2.8769500255584717,
				2.3793349266052246
			],
			"min":[
				-2.067288875579834,
				-0.05000000074505806,
				-1.9428989887237549
			],
			"type":"VEC3"
		},
		{
			"bufferView":5,
			"componentType":5126,
			"count":1490,
			"type":"VEC3"
		},
		{
			"bufferView":6,
			"componentType":5126,
			"count":1490,
			"type":"VEC2"
		},
		{
			"bufferView":7,
			"componentType":5123,
			"count":2280,
			"type":"SCALAR"
		}
	],
	"bufferViews":[
		{
			"buffer":0,
			"byteLength":51360,
			"byteOffset":0,
			"target":34962
		},
		{
			"buffer":0,
			"byteLength":51360,
			"byteOffset":51360,
			"target":34962
		},
		{
			"buffer":0,
			"byteLength":34240,
			"byteOffset":102720,
			"target":34962
		},
		{
			"buffer":0,
			"byteLength":14328,
			"byteOffset":136960,
			"target":34963
		},
		{
			"buffer":0,
			"byteLength":17880,
			"byteOffset":151288,
			"target":34962
		},
		{
			"buffer":0,
			"byteLength":17880,
			"byteOffset":169168,
			"target":34962
		},
		{
			"buffer":0,
			"byteLength":11920,
			"byteOffset":187048,
			"target":34962
		},
		{
			"buffer":0,
			"byteLength":4560,
			"byteOffset":198968,
			"target":34963
		}
	],
	"samplers":[
		{
			"magFilter":9728,
			"minFilter":9984
		}
	],
	"buffers":[
		{
			"byteLength":203528,
			"uri":"FLO-02_Arbol_zancudo_c.bin"
		}
	]
}
