{
	"asset":{
		"generator":"Khronos glTF Blender I/O v5.2.40",
		"version":"2.0"
	},
	"extensionsUsed":[
		"KHR_materials_specular"
	],
	"scene":0,
	"scenes":[
		{
			"name":"Scene",
			"nodes":[
				0,
				1
			]
		}
	],
	"nodes":[
		{
			"extras":{
				"huella_generada":"f10130fc38c51783216271fb6595ce03",
				"generado_por":"construir_flo14.py"
			},
			"mesh":0,
			"name":"FLO-14_Arbol_arbotante"
		},
		{
			"mesh":1,
			"name":"FLO-14_Arbol_arbotante-convcolonly"
		}
	],
	"materials":[
		{
			"doubleSided":true,
			"extensions":{
				"KHR_materials_specular":{
					"specularFactor":0.23999999463558197
				}
			},
			"name":"FLO-14_Arbol_arbotante",
			"pbrMetallicRoughness":{
				"baseColorTexture":{
					"index":0
				},
				"metallicFactor":0,
				"roughnessFactor":0.9300000071525574
			}
		}
	],
	"meshes":[
		{
			"name":"FLO-14_Arbol_arbotante",
			"primitives":[
				{
					"attributes":{
						"POSITION":0,
						"NORMAL":1,
						"TEXCOORD_0":2
					},
					"indices":3,
					"material":0
				}
			]
		},
		{
			"name":"FLO-14_Arbol_arbotante-convcolonly",
			"primitives":[
				{
					"attributes":{
						"POSITION":4,
						"NORMAL":5
					},
					"indices":6
				}
			]
		}
	],
	"textures":[
		{
			"sampler":0,
			"source":0
		}
	],
	"images":[
		{
			"mimeType":"image/png",
			"name":"FLO-14_atlas",
			"uri":"FLO-14_atlas.png"
		}
	],
	"accessors":[
		{
			"bufferView":0,
			"componentType":5126,
			"count":3285,
			"max":[
				2.457409143447876,
				6.1510725021362305,
				2.030066728591919
			],
			"min":[
				-2.385448694229126,
				-0.014307589270174503,
				-2.3224570751190186
			],
			"type":"VEC3"
		},
		{
			"bufferView":1,
			"componentType":5126,
			"count":3285,
			"type":"VEC3"
		},
		{
			"bufferView":2,
			"componentType":5126,
			"count":3285,
			"type":"VEC2"
		},
		{
			"bufferView":3,
			"componentType":5123,
			"count":4821,
			"type":"SCALAR"
		},
		{
			"bufferView":4,
			"componentType":5126,
			"count":48,
			"max":[
				0.9452629685401917,
				1.8353064060211182,
				0.6723840236663818
			],
			"min":[
				-0.05903007462620735,
				-0.014307589270174503,
				-0.8385713696479797
			],
			"type":"VEC3"
		},
		{
			"bufferView":5,
			"componentType":5126,
			"count":48,
			"type":"VEC3"
		},
		{
			"bufferView":6,
			"componentType":5123,
			"count":84,
			"type":"SCALAR"
		}
	],
	"bufferViews":[
		{
			"buffer":0,
			"byteLength":39420,
			"byteOffset":0,
			"target":34962
		},
		{
			"buffer":0,
			"byteLength":39420,
			"byteOffset":39420,
			"target":34962
		},
		{
			"buffer":0,
			"byteLength":26280,
			"byteOffset":78840,
			"target":34962
		},
		{
			"buffer":0,
			"byteLength":9642,
			"byteOffset":105120,
			"target":34963
		},
		{
			"buffer":0,
			"byteLength":576,
			"byteOffset":114764,
			"target":34962
		},
		{
			"buffer":0,
			"byteLength":576,
			"byteOffset":115340,
			"target":34962
		},
		{
			"buffer":0,
			"byteLength":168,
			"byteOffset":115916,
			"target":34963
		}
	],
	"samplers":[
		{
			"magFilter":9728,
			"minFilter":9984
		}
	],
	"buffers":[
		{
			"byteLength":116084,
			"uri":"FLO-14_Arbol_arbotante.bin"
		}
	]
}
