{
	"asset":{
		"generator":"Khronos glTF Blender I/O v5.2.40",
		"version":"2.0"
	},
	"extensionsUsed":[
		"KHR_materials_specular"
	],
	"scene":0,
	"scenes":[
		{
			"name":"Scene",
			"nodes":[
				0
			]
		}
	],
	"nodes":[
		{
			"extras":{
				"huella_generada":"732e2cba21e820578f87e391afea9345",
				"generado_por":"construir_ind07.py",
				"colision":"trimalla"
			},
			"mesh":0,
			"name":"IND-07_Bomba_de_achique-col"
		}
	],
	"materials":[
		{
			"doubleSided":true,
			"extensions":{
				"KHR_materials_specular":{
					"specularFactor":0.5600000023841858
				}
			},
			"name":"IND-07_Bomba_de_achique",
			"pbrMetallicRoughness":{
				"baseColorTexture":{
					"index":0
				},
				"metallicFactor":0,
				"roughnessFactor":0.7799999713897705
			}
		}
	],
	"meshes":[
		{
			"name":"IND-07_Bomba_de_achique",
			"primitives":[
				{
					"attributes":{
						"POSITION":0,
						"NORMAL":1,
						"TEXCOORD_0":2
					},
					"indices":3,
					"material":0
				}
			]
		}
	],
	"textures":[
		{
			"sampler":0,
			"source":0
		}
	],
	"images":[
		{
			"mimeType":"image/png",
			"name":"IND-07_atlas",
			"uri":"IND-07_atlas.png"
		}
	],
	"accessors":[
		{
			"bufferView":0,
			"componentType":5126,
			"count":2426,
			"max":[
				1.2999999523162842,
				3.4000000953674316,
				0
			],
			"min":[
				-1.2999999523162842,
				0,
				-2.200000047683716
			],
			"type":"VEC3"
		},
		{
			"bufferView":1,
			"componentType":5126,
			"count":2426,
			"type":"VEC3"
		},
		{
			"bufferView":2,
			"componentType":5126,
			"count":2426,
			"type":"VEC2"
		},
		{
			"bufferView":3,
			"componentType":5123,
			"count":4020,
			"type":"SCALAR"
		}
	],
	"bufferViews":[
		{
			"buffer":0,
			"byteLength":29112,
			"byteOffset":0,
			"target":34962
		},
		{
			"buffer":0,
			"byteLength":29112,
			"byteOffset":29112,
			"target":34962
		},
		{
			"buffer":0,
			"byteLength":19408,
			"byteOffset":58224,
			"target":34962
		},
		{
			"buffer":0,
			"byteLength":8040,
			"byteOffset":77632,
			"target":34963
		}
	],
	"samplers":[
		{
			"magFilter":9728,
			"minFilter":9984
		}
	],
	"buffers":[
		{
			"byteLength":85672,
			"uri":"IND-07_Bomba_de_achique.bin"
		}
	]
}
