{
	"asset":{
		"generator":"Khronos glTF Blender I/O v5.2.40",
		"version":"2.0"
	},
	"extensionsUsed":[
		"KHR_materials_specular"
	],
	"scene":0,
	"scenes":[
		{
			"name":"Scene",
			"nodes":[
				0
			]
		}
	],
	"nodes":[
		{
			"extras":{
				"huella_generada":"6b9eb7702b5819ad6df8fd325b386744",
				"generado_por":"construir_mob07.py",
				"masa_kg":2.5
			},
			"mesh":0,
			"name":"MOB-07_Carga_explosiva-convcol"
		}
	],
	"materials":[
		{
			"doubleSided":true,
			"extensions":{
				"KHR_materials_specular":{
					"specularFactor":0.2800000011920929
				}
			},
			"name":"MOB-07_Carga_explosiva",
			"pbrMetallicRoughness":{
				"baseColorTexture":{
					"index":0
				},
				"metallicFactor":0,
				"roughnessFactor":0.8799999952316284
			}
		}
	],
	"meshes":[
		{
			"name":"MOB-07_Carga_explosiva",
			"primitives":[
				{
					"attributes":{
						"POSITION":0,
						"NORMAL":1,
						"TEXCOORD_0":2
					},
					"indices":3,
					"material":0
				}
			]
		}
	],
	"textures":[
		{
			"sampler":0,
			"source":0
		}
	],
	"images":[
		{
			"mimeType":"image/png",
			"name":"MOB-07_atlas",
			"uri":"MOB-07_atlas.png"
		}
	],
	"accessors":[
		{
			"bufferView":0,
			"componentType":5126,
			"count":495,
			"max":[
				0.07698952406644821,
				0.26254868507385254,
				0.06657395511865616
			],
			"min":[
				-0.06999999284744263,
				0,
				-0.06657395511865616
			],
			"type":"VEC3"
		},
		{
			"bufferView":1,
			"componentType":5126,
			"count":495,
			"type":"VEC3"
		},
		{
			"bufferView":2,
			"componentType":5126,
			"count":495,
			"type":"VEC2"
		},
		{
			"bufferView":3,
			"componentType":5123,
			"count":771,
			"type":"SCALAR"
		}
	],
	"bufferViews":[
		{
			"buffer":0,
			"byteLength":5940,
			"byteOffset":0,
			"target":34962
		},
		{
			"buffer":0,
			"byteLength":5940,
			"byteOffset":5940,
			"target":34962
		},
		{
			"buffer":0,
			"byteLength":3960,
			"byteOffset":11880,
			"target":34962
		},
		{
			"buffer":0,
			"byteLength":1542,
			"byteOffset":15840,
			"target":34963
		}
	],
	"samplers":[
		{
			"magFilter":9728,
			"minFilter":9984
		}
	],
	"buffers":[
		{
			"byteLength":17384,
			"uri":"MOB-07_Carga_explosiva.bin"
		}
	]
}
