{
	"asset":{
		"generator":"Khronos glTF Blender I/O v5.2.40",
		"version":"2.0"
	},
	"extensionsUsed":[
		"KHR_materials_specular"
	],
	"scene":0,
	"scenes":[
		{
			"name":"Scene",
			"nodes":[
				0,
				1
			]
		}
	],
	"nodes":[
		{
			"extras":{
				"huella_generada":"d142b418d03764faf7cfd6f4bd129793",
				"generado_por":"construir_mob01.py",
				"masa_kg":48.0
			},
			"mesh":0,
			"name":"MOB-01_Barril_de_aceite"
		},
		{
			"mesh":1,
			"name":"MOB-01_Barril_de_aceite-convcolonly"
		}
	],
	"materials":[
		{
			"doubleSided":true,
			"extensions":{
				"KHR_materials_specular":{
					"specularFactor":0.4000000059604645
				}
			},
			"name":"MOB-01_Barril_de_aceite",
			"pbrMetallicRoughness":{
				"baseColorTexture":{
					"index":0
				},
				"metallicFactor":0,
				"roughnessFactor":0.8399999737739563
			}
		}
	],
	"meshes":[
		{
			"name":"MOB-01_Barril_de_aceite",
			"primitives":[
				{
					"attributes":{
						"POSITION":0,
						"NORMAL":1,
						"TEXCOORD_0":2
					},
					"indices":3,
					"material":0
				}
			]
		},
		{
			"name":"MOB-01_Barril_de_aceite-convcolonly",
			"primitives":[
				{
					"attributes":{
						"POSITION":4,
						"NORMAL":5
					},
					"indices":6
				}
			]
		}
	],
	"textures":[
		{
			"sampler":0,
			"source":0
		}
	],
	"images":[
		{
			"mimeType":"image/png",
			"name":"MOB-01_atlas",
			"uri":"MOB-01_atlas.png"
		}
	],
	"accessors":[
		{
			"bufferView":0,
			"componentType":5126,
			"count":570,
			"max":[
				0.3053250014781952,
				0.9259999990463257,
				0.2903813421726227
			],
			"min":[
				-0.3053250014781952,
				0,
				-0.2903813421726227
			],
			"type":"VEC3"
		},
		{
			"bufferView":1,
			"componentType":5126,
			"count":570,
			"type":"VEC3"
		},
		{
			"bufferView":2,
			"componentType":5126,
			"count":570,
			"type":"VEC2"
		},
		{
			"bufferView":3,
			"componentType":5123,
			"count":876,
			"type":"SCALAR"
		},
		{
			"bufferView":4,
			"componentType":5126,
			"count":190,
			"max":[
				0.3053250014781952,
				0.8999999761581421,
				0.2903813421726227
			],
			"min":[
				-0.3053250014781952,
				0,
				-0.2903813421726227
			],
			"type":"VEC3"
		},
		{
			"bufferView":5,
			"componentType":5126,
			"count":190,
			"type":"VEC3"
		},
		{
			"bufferView":6,
			"componentType":5123,
			"count":228,
			"type":"SCALAR"
		}
	],
	"bufferViews":[
		{
			"buffer":0,
			"byteLength":6840,
			"byteOffset":0,
			"target":34962
		},
		{
			"buffer":0,
			"byteLength":6840,
			"byteOffset":6840,
			"target":34962
		},
		{
			"buffer":0,
			"byteLength":4560,
			"byteOffset":13680,
			"target":34962
		},
		{
			"buffer":0,
			"byteLength":1752,
			"byteOffset":18240,
			"target":34963
		},
		{
			"buffer":0,
			"byteLength":2280,
			"byteOffset":19992,
			"target":34962
		},
		{
			"buffer":0,
			"byteLength":2280,
			"byteOffset":22272,
			"target":34962
		},
		{
			"buffer":0,
			"byteLength":456,
			"byteOffset":24552,
			"target":34963
		}
	],
	"samplers":[
		{
			"magFilter":9728,
			"minFilter":9984
		}
	],
	"buffers":[
		{
			"byteLength":25008,
			"uri":"MOB-01_Barril_de_aceite.bin"
		}
	]
}
