{
	"asset":{
		"generator":"Khronos glTF Blender I/O v5.2.39",
		"version":"2.0"
	},
	"extensionsUsed":[
		"KHR_materials_specular"
	],
	"scene":0,
	"scenes":[
		{
			"name":"Scene",
			"nodes":[
				0
			]
		}
	],
	"nodes":[
		{
			"mesh":0,
			"name":"POR-02_Aguja_porosa.038-col",
			"rotation":[
				0,
				-0.16312818229198456,
				0,
				0.9866049885749817
			],
			"scale":[
				1.3178097009658813,
				1.3178097009658813,
				1.3178097009658813
			],
			"translation":[
				91.1567153930664,
				13.638374328613281,
				179.96905517578125
			]
		}
	],
	"materials":[
		{
			"doubleSided":true,
			"extensions":{
				"KHR_materials_specular":{
					"specularFactor":0.30000001192092896
				}
			},
			"name":"POR-02_Aguja_porosa",
			"pbrMetallicRoughness":{
				"baseColorTexture":{
					"index":0
				},
				"metallicFactor":0,
				"roughnessFactor":0.8799999952316284
			}
		}
	],
	"meshes":[
		{
			"name":"POR-02_Aguja_porosa",
			"primitives":[
				{
					"attributes":{
						"POSITION":0,
						"NORMAL":1,
						"TEXCOORD_0":2
					},
					"indices":3,
					"material":0
				}
			]
		}
	],
	"textures":[
		{
			"sampler":0,
			"source":0
		}
	],
	"images":[
		{
			"mimeType":"image/png",
			"name":"POR_atlas",
			"uri":"POR_atlas.png"
		}
	],
	"accessors":[
		{
			"bufferView":0,
			"componentType":5126,
			"count":1456,
			"max":[
				3.3066961765289307,
				12.399999618530273,
				3.1741411685943604
			],
			"min":[
				-3.1434195041656494,
				0,
				-3.1044671535491943
			],
			"type":"VEC3"
		},
		{
			"bufferView":1,
			"componentType":5126,
			"count":1456,
			"type":"VEC3"
		},
		{
			"bufferView":2,
			"componentType":5126,
			"count":1456,
			"type":"VEC2"
		},
		{
			"bufferView":3,
			"componentType":5123,
			"count":2112,
			"type":"SCALAR"
		}
	],
	"bufferViews":[
		{
			"buffer":0,
			"byteLength":17472,
			"byteOffset":0,
			"target":34962
		},
		{
			"buffer":0,
			"byteLength":17472,
			"byteOffset":17472,
			"target":34962
		},
		{
			"buffer":0,
			"byteLength":11648,
			"byteOffset":34944,
			"target":34962
		},
		{
			"buffer":0,
			"byteLength":4224,
			"byteOffset":46592,
			"target":34963
		}
	],
	"samplers":[
		{
			"magFilter":9728,
			"minFilter":9984
		}
	],
	"buffers":[
		{
			"byteLength":50816,
			"uri":"agujaPorosaGrande.bin"
		}
	]
}
