{
	"asset":{
		"generator":"Khronos glTF Blender I/O v5.2.39",
		"version":"2.0"
	},
	"extensionsUsed":[
		"KHR_materials_specular"
	],
	"scene":0,
	"scenes":[
		{
			"name":"Scene",
			"nodes":[
				0
			]
		}
	],
	"nodes":[
		{
			"mesh":0,
			"name":"POR-01_Penasco_poroso.174-col",
			"rotation":[
				0,
				-0.967790424823761,
				0,
				0.2517572343349457
			],
			"scale":[
				1.321226716041565,
				1.321226716041565,
				1.321226716041565
			],
			"translation":[
				86.23387145996094,
				10.736056327819824,
				196.32652282714844
			]
		}
	],
	"materials":[
		{
			"doubleSided":true,
			"extensions":{
				"KHR_materials_specular":{
					"specularFactor":0.30000001192092896
				}
			},
			"name":"POR-01_Penasco_poroso",
			"pbrMetallicRoughness":{
				"baseColorTexture":{
					"index":0
				},
				"metallicFactor":0,
				"roughnessFactor":0.8799999952316284
			}
		}
	],
	"meshes":[
		{
			"name":"POR-01_Penasco_poroso",
			"primitives":[
				{
					"attributes":{
						"POSITION":0,
						"NORMAL":1,
						"TEXCOORD_0":2
					},
					"indices":3,
					"material":0
				}
			]
		}
	],
	"textures":[
		{
			"sampler":0,
			"source":0
		}
	],
	"images":[
		{
			"mimeType":"image/png",
			"name":"POR_atlas",
			"uri":"POR_atlas.png"
		}
	],
	"accessors":[
		{
			"bufferView":0,
			"componentType":5126,
			"count":820,
			"max":[
				1.931776762008667,
				2.700000047683716,
				2.0111985206604004
			],
			"min":[
				-1.9183355569839478,
				0,
				-1.9544957876205444
			],
			"type":"VEC3"
		},
		{
			"bufferView":1,
			"componentType":5126,
			"count":820,
			"type":"VEC3"
		},
		{
			"bufferView":2,
			"componentType":5126,
			"count":820,
			"type":"VEC2"
		},
		{
			"bufferView":3,
			"componentType":5123,
			"count":1188,
			"type":"SCALAR"
		}
	],
	"bufferViews":[
		{
			"buffer":0,
			"byteLength":9840,
			"byteOffset":0,
			"target":34962
		},
		{
			"buffer":0,
			"byteLength":9840,
			"byteOffset":9840,
			"target":34962
		},
		{
			"buffer":0,
			"byteLength":6560,
			"byteOffset":19680,
			"target":34962
		},
		{
			"buffer":0,
			"byteLength":2376,
			"byteOffset":26240,
			"target":34963
		}
	],
	"samplers":[
		{
			"magFilter":9728,
			"minFilter":9984
		}
	],
	"buffers":[
		{
			"byteLength":28616,
			"uri":"agujaPorosaChica.bin"
		}
	]
}
