{
	"asset":{
		"generator":"Khronos glTF Blender I/O v5.2.39",
		"version":"2.0"
	},
	"extensionsUsed":[
		"KHR_materials_specular"
	],
	"scene":0,
	"scenes":[
		{
			"name":"Scene",
			"nodes":[
				0
			]
		}
	],
	"nodes":[
		{
			"mesh":0,
			"name":"FLO-02_Arbol_zancudo_b.021",
			"rotation":[
				0,
				0.085065558552742,
				0,
				0.9963753819465637
			],
			"scale":[
				0.8870300054550171,
				0.8870300054550171,
				0.8870300054550171
			],
			"translation":[
				-23.867666244506836,
				16.14857292175293,
				4.409364700317383
			]
		}
	],
	"materials":[
		{
			"doubleSided":true,
			"extensions":{
				"KHR_materials_specular":{
					"specularFactor":0.23999999463558197
				}
			},
			"name":"FLO-02_Arbol_zancudo",
			"pbrMetallicRoughness":{
				"baseColorTexture":{
					"index":0
				},
				"metallicFactor":0,
				"roughnessFactor":0.9399999976158142
			}
		}
	],
	"meshes":[
		{
			"name":"FLO-02_Arbol_zancudo_b",
			"primitives":[
				{
					"attributes":{
						"POSITION":0,
						"NORMAL":1,
						"TEXCOORD_0":2
					},
					"indices":3,
					"material":0
				}
			]
		}
	],
	"textures":[
		{
			"sampler":0,
			"source":0
		}
	],
	"images":[
		{
			"mimeType":"image/png",
			"name":"FLO-02_atlas",
			"uri":"FLO-02_atlas.png"
		}
	],
	"accessors":[
		{
			"bufferView":0,
			"componentType":5126,
			"count":4398,
			"max":[
				2.633002758026123,
				7.671000003814697,
				2.3008968830108643
			],
			"min":[
				-1.730226755142212,
				-0.05000000074505806,
				-2.0211007595062256
			],
			"type":"VEC3"
		},
		{
			"bufferView":1,
			"componentType":5126,
			"count":4398,
			"type":"VEC3"
		},
		{
			"bufferView":2,
			"componentType":5126,
			"count":4398,
			"type":"VEC2"
		},
		{
			"bufferView":3,
			"componentType":5123,
			"count":7164,
			"type":"SCALAR"
		}
	],
	"bufferViews":[
		{
			"buffer":0,
			"byteLength":52776,
			"byteOffset":0,
			"target":34962
		},
		{
			"buffer":0,
			"byteLength":52776,
			"byteOffset":52776,
			"target":34962
		},
		{
			"buffer":0,
			"byteLength":35184,
			"byteOffset":105552,
			"target":34962
		},
		{
			"buffer":0,
			"byteLength":14328,
			"byteOffset":140736,
			"target":34963
		}
	],
	"samplers":[
		{
			"magFilter":9728,
			"minFilter":9984
		}
	],
	"buffers":[
		{
			"byteLength":155064,
			"uri":"arbolZancudo3.bin"
		}
	]
}
