{
	"asset":{
		"generator":"Khronos glTF Blender I/O v5.2.39",
		"version":"2.0"
	},
	"extensionsUsed":[
		"KHR_materials_specular"
	],
	"scene":0,
	"scenes":[
		{
			"name":"Scene",
			"nodes":[
				0
			]
		}
	],
	"nodes":[
		{
			"mesh":0,
			"name":"FLO-16_Arbol_mayor.281",
			"rotation":[
				0,
				0.9420841336250305,
				0,
				0.33537694811820984
			],
			"scale":[
				0.9907273054122925,
				0.990727424621582,
				0.9907273054122925
			],
			"translation":[
				3.0468852519989014,
				45.67832565307617,
				-179.35711669921875
			]
		}
	],
	"materials":[
		{
			"doubleSided":true,
			"extensions":{
				"KHR_materials_specular":{
					"specularFactor":0.23999999463558197
				}
			},
			"name":"FLO-16_Arbol_mayor",
			"pbrMetallicRoughness":{
				"baseColorTexture":{
					"index":0
				},
				"metallicFactor":0,
				"roughnessFactor":0.8999999761581421
			}
		}
	],
	"meshes":[
		{
			"name":"FLO-16_Arbol_mayor",
			"primitives":[
				{
					"attributes":{
						"POSITION":0,
						"NORMAL":1,
						"TEXCOORD_0":2
					},
					"indices":3,
					"material":0
				}
			]
		}
	],
	"textures":[
		{
			"sampler":0,
			"source":0
		}
	],
	"images":[
		{
			"mimeType":"image/png",
			"name":"FLO-16_atlas",
			"uri":"FLO-16_atlas.png"
		}
	],
	"accessors":[
		{
			"bufferView":0,
			"componentType":5126,
			"count":1483,
			"max":[
				4.632709980010986,
				21.04199981689453,
				3.475342273712158
			],
			"min":[
				-3.9196436405181885,
				-0.1944628655910492,
				-3.659717321395874
			],
			"type":"VEC3"
		},
		{
			"bufferView":1,
			"componentType":5126,
			"count":1483,
			"type":"VEC3"
		},
		{
			"bufferView":2,
			"componentType":5126,
			"count":1483,
			"type":"VEC2"
		},
		{
			"bufferView":3,
			"componentType":5123,
			"count":1965,
			"type":"SCALAR"
		}
	],
	"bufferViews":[
		{
			"buffer":0,
			"byteLength":17796,
			"byteOffset":0,
			"target":34962
		},
		{
			"buffer":0,
			"byteLength":17796,
			"byteOffset":17796,
			"target":34962
		},
		{
			"buffer":0,
			"byteLength":11864,
			"byteOffset":35592,
			"target":34962
		},
		{
			"buffer":0,
			"byteLength":3930,
			"byteOffset":47456,
			"target":34963
		}
	],
	"samplers":[
		{
			"magFilter":9728,
			"minFilter":9984
		}
	],
	"buffers":[
		{
			"byteLength":51388,
			"uri":"arbolmayorIsla4.bin"
		}
	]
}
