{
	"asset":{
		"generator":"Khronos glTF Blender I/O v5.2.39",
		"version":"2.0"
	},
	"extensionsUsed":[
		"KHR_materials_specular"
	],
	"scene":0,
	"scenes":[
		{
			"name":"Scene",
			"nodes":[
				0
			]
		}
	],
	"nodes":[
		{
			"mesh":0,
			"name":"FLO-01_Candelaria.188",
			"rotation":[
				0,
				-0.36910775303840637,
				0,
				0.9293866157531738
			],
			"scale":[
				1.2699331045150757,
				1.2699331045150757,
				1.2699331045150757
			],
			"translation":[
				236.25999450683594,
				4.650561332702637,
				-166.42625427246094
			]
		}
	],
	"materials":[
		{
			"doubleSided":true,
			"extensions":{
				"KHR_materials_specular":{
					"specularFactor":0.23999999463558197
				}
			},
			"name":"FLO-01_Candelaria",
			"pbrMetallicRoughness":{
				"baseColorTexture":{
					"index":0
				},
				"metallicFactor":0,
				"roughnessFactor":0.9300000071525574
			}
		}
	],
	"meshes":[
		{
			"name":"FLO-01_Candelaria",
			"primitives":[
				{
					"attributes":{
						"POSITION":0,
						"NORMAL":1,
						"TEXCOORD_0":2
					},
					"indices":3,
					"material":0
				}
			]
		}
	],
	"textures":[
		{
			"sampler":0,
			"source":0
		}
	],
	"images":[
		{
			"mimeType":"image/png",
			"name":"FLO-01_atlas",
			"uri":"FLO-01_atlas.png"
		}
	],
	"accessors":[
		{
			"bufferView":0,
			"componentType":5126,
			"count":1548,
			"max":[
				0.8768373727798462,
				2.4049999713897705,
				0.9988726377487183
			],
			"min":[
				-0.8729392886161804,
				-0.017247997224330902,
				-0.8007042407989502
			],
			"type":"VEC3"
		},
		{
			"bufferView":1,
			"componentType":5126,
			"count":1548,
			"type":"VEC3"
		},
		{
			"bufferView":2,
			"componentType":5126,
			"count":1548,
			"type":"VEC2"
		},
		{
			"bufferView":3,
			"componentType":5123,
			"count":2142,
			"type":"SCALAR"
		}
	],
	"bufferViews":[
		{
			"buffer":0,
			"byteLength":18576,
			"byteOffset":0,
			"target":34962
		},
		{
			"buffer":0,
			"byteLength":18576,
			"byteOffset":18576,
			"target":34962
		},
		{
			"buffer":0,
			"byteLength":12384,
			"byteOffset":37152,
			"target":34962
		},
		{
			"buffer":0,
			"byteLength":4284,
			"byteOffset":49536,
			"target":34963
		}
	],
	"samplers":[
		{
			"magFilter":9728,
			"minFilter":9984
		}
	],
	"buffers":[
		{
			"byteLength":53820,
			"uri":"candelariaPlanta2.bin"
		}
	]
}
