{
	"asset":{
		"generator":"Khronos glTF Blender I/O v5.2.39",
		"version":"2.0"
	},
	"extensionsUsed":[
		"KHR_materials_specular"
	],
	"scene":0,
	"scenes":[
		{
			"name":"Scene",
			"nodes":[
				0,
				1
			]
		}
	],
	"nodes":[
		{
			"mesh":0,
			"name":"RUI-05_Torreon.001-col",
			"rotation":[
				0,
				-0.9455186128616333,
				0,
				0.3255680799484253
			],
			"translation":[
				211.8985137939453,
				37.483299255371094,
				132.98403930664062
			]
		},
		{
			"mesh":1,
			"name":"RUI-06_Piramide.001-col",
			"rotation":[
				0,
				0.8987939953804016,
				0,
				0.4383712410926819
			],
			"translation":[
				211.8985137939453,
				27.40329933166504,
				132.98403930664062
			]
		}
	],
	"materials":[
		{
			"doubleSided":true,
			"extensions":{
				"KHR_materials_specular":{
					"specularFactor":0.3199999928474426
				}
			},
			"name":"RUI-05_Torreon_0",
			"pbrMetallicRoughness":{
				"baseColorTexture":{
					"index":0
				},
				"metallicFactor":0,
				"roughnessFactor":0.8799999952316284
			}
		},
		{
			"doubleSided":true,
			"extensions":{
				"KHR_materials_specular":{
					"specularFactor":0.3199999928474426
				}
			},
			"name":"RUI-05_Torreon_1",
			"pbrMetallicRoughness":{
				"baseColorTexture":{
					"index":1
				},
				"metallicFactor":0,
				"roughnessFactor":0.8799999952316284
			}
		},
		{
			"doubleSided":true,
			"extensions":{
				"KHR_materials_specular":{
					"specularFactor":0.3199999928474426
				}
			},
			"name":"RUI-06_Piramide_0",
			"pbrMetallicRoughness":{
				"baseColorTexture":{
					"index":2
				},
				"metallicFactor":0,
				"roughnessFactor":0.8799999952316284
			}
		}
	],
	"meshes":[
		{
			"name":"RUI-05_Torreon",
			"primitives":[
				{
					"attributes":{
						"POSITION":0,
						"NORMAL":1,
						"TEXCOORD_0":2
					},
					"indices":3,
					"material":0
				},
				{
					"attributes":{
						"POSITION":4,
						"NORMAL":5,
						"TEXCOORD_0":6
					},
					"indices":7,
					"material":1
				}
			]
		},
		{
			"name":"RUI-06_Piramide",
			"primitives":[
				{
					"attributes":{
						"POSITION":8,
						"NORMAL":9,
						"TEXCOORD_0":10
					},
					"indices":11,
					"material":2
				}
			]
		}
	],
	"textures":[
		{
			"sampler":0,
			"source":0
		},
		{
			"sampler":0,
			"source":1
		},
		{
			"sampler":0,
			"source":0
		}
	],
	"images":[
		{
			"mimeType":"image/png",
			"name":"RUI_muro",
			"uri":"RUI_muro.png"
		},
		{
			"mimeType":"image/png",
			"name":"MAD-01_atlas",
			"uri":"MAD-01_atlas.png"
		}
	],
	"accessors":[
		{
			"bufferView":0,
			"componentType":5126,
			"count":18742,
			"max":[
				4.192803859710693,
				16.402870178222656,
				3.4800000190734863
			],
			"min":[
				-4.1991801261901855,
				-0.0033001236151903868,
				-3.37410569190979
			],
			"type":"VEC3"
		},
		{
			"bufferView":1,
			"componentType":5126,
			"count":18742,
			"type":"VEC3"
		},
		{
			"bufferView":2,
			"componentType":5126,
			"count":18742,
			"type":"VEC2"
		},
		{
			"bufferView":3,
			"componentType":5123,
			"count":26610,
			"type":"SCALAR"
		},
		{
			"bufferView":4,
			"componentType":5126,
			"count":780,
			"max":[
				2.9978833198547363,
				11.5436372756958,
				2.596450090408325
			],
			"min":[
				-2.973055601119995,
				2.5563626289367676,
				-2.596450090408325
			],
			"type":"VEC3"
		},
		{
			"bufferView":5,
			"componentType":5126,
			"count":780,
			"type":"VEC3"
		},
		{
			"bufferView":6,
			"componentType":5126,
			"count":780,
			"type":"VEC2"
		},
		{
			"bufferView":7,
			"componentType":5123,
			"count":1170,
			"type":"SCALAR"
		},
		{
			"bufferView":8,
			"componentType":5126,
			"count":20961,
			"max":[
				17.899999618530273,
				10.420000076293945,
				17.899999618530273
			],
			"min":[
				-17.899999618530273,
				0,
				-17.899999618530273
			],
			"type":"VEC3"
		},
		{
			"bufferView":9,
			"componentType":5126,
			"count":20961,
			"type":"VEC3"
		},
		{
			"bufferView":10,
			"componentType":5126,
			"count":20961,
			"type":"VEC2"
		},
		{
			"bufferView":11,
			"componentType":5123,
			"count":29334,
			"type":"SCALAR"
		}
	],
	"bufferViews":[
		{
			"buffer":0,
			"byteLength":224904,
			"byteOffset":0,
			"target":34962
		},
		{
			"buffer":0,
			"byteLength":224904,
			"byteOffset":224904,
			"target":34962
		},
		{
			"buffer":0,
			"byteLength":149936,
			"byteOffset":449808,
			"target":34962
		},
		{
			"buffer":0,
			"byteLength":53220,
			"byteOffset":599744,
			"target":34963
		},
		{
			"buffer":0,
			"byteLength":9360,
			"byteOffset":652964,
			"target":34962
		},
		{
			"buffer":0,
			"byteLength":9360,
			"byteOffset":662324,
			"target":34962
		},
		{
			"buffer":0,
			"byteLength":6240,
			"byteOffset":671684,
			"target":34962
		},
		{
			"buffer":0,
			"byteLength":2340,
			"byteOffset":677924,
			"target":34963
		},
		{
			"buffer":0,
			"byteLength":251532,
			"byteOffset":680264,
			"target":34962
		},
		{
			"buffer":0,
			"byteLength":251532,
			"byteOffset":931796,
			"target":34962
		},
		{
			"buffer":0,
			"byteLength":167688,
			"byteOffset":1183328,
			"target":34962
		},
		{
			"buffer":0,
			"byteLength":58668,
			"byteOffset":1351016,
			"target":34963
		}
	],
	"samplers":[
		{
			"magFilter":9728,
			"minFilter":9984
		}
	],
	"buffers":[
		{
			"byteLength":1409684,
			"uri":"piramideCasa.bin"
		}
	]
}
