{
	"asset":{
		"generator":"Khronos glTF Blender I/O v5.2.39",
		"version":"2.0"
	},
	"extensionsUsed":[
		"KHR_materials_specular"
	],
	"scene":0,
	"scenes":[
		{
			"name":"Scene",
			"nodes":[
				0
			]
		}
	],
	"nodes":[
		{
			"mesh":0,
			"name":"ORN-03_Arco_de_medio_punto.020-col",
			"rotation":[
				0,
				-0.39927613735198975,
				0,
				0.9168307185173035
			],
			"translation":[
				10.066357612609863,
				13.93709659576416,
				67.43409729003906
			]
		}
	],
	"materials":[
		{
			"doubleSided":true,
			"extensions":{
				"KHR_materials_specular":{
					"specularFactor":0.2800000011920929
				}
			},
			"name":"ORN-03_Arco_de_medio_punto",
			"pbrMetallicRoughness":{
				"baseColorTexture":{
					"index":0
				},
				"metallicFactor":0,
				"roughnessFactor":0.9300000071525574
			}
		}
	],
	"meshes":[
		{
			"name":"ORN-03_Arco_de_medio_punto",
			"primitives":[
				{
					"attributes":{
						"POSITION":0,
						"NORMAL":1,
						"TEXCOORD_0":2
					},
					"indices":3,
					"material":0
				}
			]
		}
	],
	"textures":[
		{
			"sampler":0,
			"source":0
		}
	],
	"images":[
		{
			"mimeType":"image/png",
			"name":"orn03_textura",
			"uri":"orn03_textura.png"
		}
	],
	"accessors":[
		{
			"bufferView":0,
			"componentType":5126,
			"count":888,
			"max":[
				1.504929780960083,
				3.5999999046325684,
				0.3499999940395355
			],
			"min":[
				-1.504929780960083,
				0,
				-0.3499999940395355
			],
			"type":"VEC3"
		},
		{
			"bufferView":1,
			"componentType":5126,
			"count":888,
			"type":"VEC3"
		},
		{
			"bufferView":2,
			"componentType":5126,
			"count":888,
			"type":"VEC2"
		},
		{
			"bufferView":3,
			"componentType":5123,
			"count":1332,
			"type":"SCALAR"
		}
	],
	"bufferViews":[
		{
			"buffer":0,
			"byteLength":10656,
			"byteOffset":0,
			"target":34962
		},
		{
			"buffer":0,
			"byteLength":10656,
			"byteOffset":10656,
			"target":34962
		},
		{
			"buffer":0,
			"byteLength":7104,
			"byteOffset":21312,
			"target":34962
		},
		{
			"buffer":0,
			"byteLength":2664,
			"byteOffset":28416,
			"target":34963
		}
	],
	"samplers":[
		{
			"magFilter":9728,
			"minFilter":9984
		}
	],
	"buffers":[
		{
			"byteLength":31080,
			"uri":"ruinasArco.bin"
		}
	]
}
