{
	"asset":{
		"generator":"Khronos glTF Blender I/O v5.2.39",
		"version":"2.0"
	},
	"extensionsUsed":[
		"KHR_materials_specular"
	],
	"scene":0,
	"scenes":[
		{
			"name":"Scene",
			"nodes":[
				0
			]
		}
	],
	"nodes":[
		{
			"mesh":0,
			"name":"IND-13_Faro.001-col",
			"translation":[
				143.41273498535156,
				1.5499999523162842,
				0
			]
		}
	],
	"materials":[
		{
			"doubleSided":true,
			"extensions":{
				"KHR_materials_specular":{
					"specularFactor":0.3199999928474426
				}
			},
			"name":"IND-13_Faro_0",
			"pbrMetallicRoughness":{
				"baseColorTexture":{
					"index":0
				},
				"metallicFactor":0,
				"roughnessFactor":0.8799999952316284
			}
		}
	],
	"meshes":[
		{
			"name":"IND-13_Faro",
			"primitives":[
				{
					"attributes":{
						"POSITION":0,
						"NORMAL":1,
						"TEXCOORD_0":2
					},
					"indices":3,
					"material":0
				}
			]
		}
	],
	"textures":[
		{
			"sampler":0,
			"source":0
		}
	],
	"images":[
		{
			"mimeType":"image/png",
			"name":"IND-13_atlas",
			"uri":"IND-13_atlas.png"
		}
	],
	"accessors":[
		{
			"bufferView":0,
			"componentType":5126,
			"count":6910,
			"max":[
				6.849999904632568,
				120,
				6.849999904632568
			],
			"min":[
				-6.849999904632568,
				0,
				-6.849999904632568
			],
			"type":"VEC3"
		},
		{
			"bufferView":1,
			"componentType":5126,
			"count":6910,
			"type":"VEC3"
		},
		{
			"bufferView":2,
			"componentType":5126,
			"count":6910,
			"type":"VEC2"
		},
		{
			"bufferView":3,
			"componentType":5123,
			"count":10338,
			"type":"SCALAR"
		}
	],
	"bufferViews":[
		{
			"buffer":0,
			"byteLength":82920,
			"byteOffset":0,
			"target":34962
		},
		{
			"buffer":0,
			"byteLength":82920,
			"byteOffset":82920,
			"target":34962
		},
		{
			"buffer":0,
			"byteLength":55280,
			"byteOffset":165840,
			"target":34962
		},
		{
			"buffer":0,
			"byteLength":20676,
			"byteOffset":221120,
			"target":34963
		}
	],
	"samplers":[
		{
			"magFilter":9728,
			"minFilter":9984
		}
	],
	"buffers":[
		{
			"byteLength":241796,
			"uri":"torreFaro.bin"
		}
	]
}
