{
	"asset":{
		"generator":"Khronos glTF Blender I/O v5.2.40",
		"version":"2.0"
	},
	"extensionsUsed":[
		"KHR_materials_specular"
	],
	"scene":0,
	"scenes":[
		{
			"name":"Scene",
			"nodes":[
				0
			]
		}
	],
	"nodes":[
		{
			"extras":{
				"huella_generada":"3d6458e838ce6705ab0df68300cf3970",
				"generado_por":"construir_flo08.py"
			},
			"mesh":0,
			"name":"FLO-08_Salitrera"
		}
	],
	"materials":[
		{
			"doubleSided":true,
			"extensions":{
				"KHR_materials_specular":{
					"specularFactor":0.20000000298023224
				}
			},
			"name":"FLO-08_Salitrera",
			"pbrMetallicRoughness":{
				"baseColorTexture":{
					"index":0
				},
				"metallicFactor":0,
				"roughnessFactor":0.9599999785423279
			}
		}
	],
	"meshes":[
		{
			"name":"FLO-08_Salitrera",
			"primitives":[
				{
					"attributes":{
						"POSITION":0,
						"NORMAL":1,
						"TEXCOORD_0":2
					},
					"indices":3,
					"material":0
				}
			]
		}
	],
	"textures":[
		{
			"sampler":0,
			"source":0
		}
	],
	"images":[
		{
			"mimeType":"image/png",
			"name":"FLO-08_atlas",
			"uri":"FLO-08_atlas.png"
		}
	],
	"accessors":[
		{
			"bufferView":0,
			"componentType":5126,
			"count":688,
			"max":[
				0.5364972352981567,
				0.7571861147880554,
				0.39287564158439636
			],
			"min":[
				-0.4616793990135193,
				-0.008660863153636456,
				-0.3576504588127136
			],
			"type":"VEC3"
		},
		{
			"bufferView":1,
			"componentType":5126,
			"count":688,
			"type":"VEC3"
		},
		{
			"bufferView":2,
			"componentType":5126,
			"count":688,
			"type":"VEC2"
		},
		{
			"bufferView":3,
			"componentType":5123,
			"count":1026,
			"type":"SCALAR"
		}
	],
	"bufferViews":[
		{
			"buffer":0,
			"byteLength":8256,
			"byteOffset":0,
			"target":34962
		},
		{
			"buffer":0,
			"byteLength":8256,
			"byteOffset":8256,
			"target":34962
		},
		{
			"buffer":0,
			"byteLength":5504,
			"byteOffset":16512,
			"target":34962
		},
		{
			"buffer":0,
			"byteLength":2052,
			"byteOffset":22016,
			"target":34963
		}
	],
	"samplers":[
		{
			"magFilter":9728,
			"minFilter":9984
		}
	],
	"buffers":[
		{
			"byteLength":24068,
			"uri":"FLO-08_Salitrera.bin"
		}
	]
}
