{
	"asset":{
		"generator":"Khronos glTF Blender I/O v5.2.40",
		"version":"2.0"
	},
	"extensionsUsed":[
		"KHR_materials_specular"
	],
	"scene":0,
	"scenes":[
		{
			"name":"Scene",
			"nodes":[
				0
			]
		}
	],
	"nodes":[
		{
			"extras":{
				"huella_generada":"6cd747954f9d9ac728ff29d51bcf4c56",
				"generado_por":"construir_ind02.py",
				"pivote":[
					0.0,
					0.14499999582767487,
					0.0
				],
				"puno_reposo":[
					0.0,
					0.24303506314754486,
					0.1568889021873474
				],
				"puno_tirada":[
					0.0,
					0.24303506314754486,
					-0.1568889021873474
				],
				"recorrido_grados":-116.00000000000001,
				"altura_montaje":1.2
			},
			"mesh":0,
			"name":"IND-02_Palanca_de_pared-convcol"
		}
	],
	"materials":[
		{
			"doubleSided":true,
			"extensions":{
				"KHR_materials_specular":{
					"specularFactor":0.6800000071525574
				}
			},
			"name":"IND-02_Palanca_de_pared",
			"pbrMetallicRoughness":{
				"baseColorTexture":{
					"index":0
				},
				"metallicFactor":0,
				"roughnessFactor":0.6600000262260437
			}
		}
	],
	"meshes":[
		{
			"name":"IND-02_Palanca_de_pared",
			"primitives":[
				{
					"attributes":{
						"POSITION":0,
						"NORMAL":1,
						"TEXCOORD_0":2
					},
					"indices":3,
					"material":0
				}
			]
		}
	],
	"textures":[
		{
			"sampler":0,
			"source":0
		}
	],
	"images":[
		{
			"mimeType":"image/png",
			"name":"IND-02_atlas",
			"uri":"IND-02_atlas.png"
		}
	],
	"accessors":[
		{
			"bufferView":0,
			"componentType":5126,
			"count":436,
			"max":[
				0.17499999701976776,
				0.5,
				0
			],
			"min":[
				-0.17499999701976776,
				-0.5,
				-0.3775469958782196
			],
			"type":"VEC3"
		},
		{
			"bufferView":1,
			"componentType":5126,
			"count":436,
			"type":"VEC3"
		},
		{
			"bufferView":2,
			"componentType":5126,
			"count":436,
			"type":"VEC2"
		},
		{
			"bufferView":3,
			"componentType":5123,
			"count":714,
			"type":"SCALAR"
		}
	],
	"bufferViews":[
		{
			"buffer":0,
			"byteLength":5232,
			"byteOffset":0,
			"target":34962
		},
		{
			"buffer":0,
			"byteLength":5232,
			"byteOffset":5232,
			"target":34962
		},
		{
			"buffer":0,
			"byteLength":3488,
			"byteOffset":10464,
			"target":34962
		},
		{
			"buffer":0,
			"byteLength":1428,
			"byteOffset":13952,
			"target":34963
		}
	],
	"samplers":[
		{
			"magFilter":9728,
			"minFilter":9984
		}
	],
	"buffers":[
		{
			"byteLength":15380,
			"uri":"IND-02_Palanca_de_pared.bin"
		}
	]
}
