{
	"asset":{
		"generator":"Khronos glTF Blender I/O v5.2.40",
		"version":"2.0"
	},
	"extensionsUsed":[
		"KHR_materials_emissive_strength",
		"KHR_materials_specular"
	],
	"scene":0,
	"scenes":[
		{
			"name":"Scene",
			"nodes":[
				0
			]
		}
	],
	"nodes":[
		{
			"extras":{
				"huella_generada":"1dc06980a5126ca9599804ae48b118f2",
				"generado_por":"construir_sub02.py",
				"colision":"trimalla",
				"radio_sala":9.7,
				"ancho_util":14.399999999999999,
				"bocas":1,
				"rumbos":[
					0.8871983100238595
				],
				"facetas_abiertas":7,
				"luminarias_vivas":1,
				"luz_w":45.0,
				"parpadeo_s":1.7
			},
			"mesh":0,
			"name":"SUB-02_Cruce_de_nave_I0-col"
		}
	],
	"materials":[
		{
			"doubleSided":true,
			"extensions":{
				"KHR_materials_specular":{
					"specularFactor":0.5
				}
			},
			"name":"SUB_base",
			"pbrMetallicRoughness":{
				"baseColorTexture":{
					"index":0
				},
				"metallicFactor":0,
				"roughnessFactor":0.8500000238418579
			}
		},
		{
			"doubleSided":true,
			"emissiveFactor":[
				1,
				0.9779249005174815,
				0.155629138855004
			],
			"extensions":{
				"KHR_materials_emissive_strength":{
					"emissiveStrength":1.9932000830650338
				},
				"KHR_materials_specular":{
					"specularFactor":0.5
				}
			},
			"name":"SUB_sodio",
			"pbrMetallicRoughness":{
				"baseColorTexture":{
					"index":1
				},
				"metallicFactor":0,
				"roughnessFactor":0.8500000238418579
			}
		}
	],
	"meshes":[
		{
			"name":"SUB-02_Cruce_de_nave_I0",
			"primitives":[
				{
					"attributes":{
						"POSITION":0,
						"NORMAL":1,
						"TEXCOORD_0":2
					},
					"indices":3,
					"material":0
				},
				{
					"attributes":{
						"POSITION":4,
						"NORMAL":5,
						"TEXCOORD_0":6
					},
					"indices":7,
					"material":1
				}
			]
		}
	],
	"textures":[
		{
			"sampler":0,
			"source":0
		},
		{
			"sampler":0,
			"source":0
		}
	],
	"images":[
		{
			"mimeType":"image/png",
			"name":"SUB-01_atlas",
			"uri":"SUB-01_atlas.png"
		}
	],
	"accessors":[
		{
			"bufferView":0,
			"componentType":5126,
			"count":1264,
			"max":[
				10.002917289733887,
				6,
				9.699999809265137
			],
			"min":[
				-9.699999809265137,
				0,
				-10.678394317626953
			],
			"type":"VEC3"
		},
		{
			"bufferView":1,
			"componentType":5126,
			"count":1264,
			"type":"VEC3"
		},
		{
			"bufferView":2,
			"componentType":5126,
			"count":1264,
			"type":"VEC2"
		},
		{
			"bufferView":3,
			"componentType":5123,
			"count":1896,
			"type":"SCALAR"
		},
		{
			"bufferView":4,
			"componentType":5126,
			"count":4,
			"max":[
				-3.2658393383026123,
				5.739999771118164,
				5.251400947570801
			],
			"min":[
				-4.473758697509766,
				5.739999771118164,
				4.17932653427124
			],
			"type":"VEC3"
		},
		{
			"bufferView":5,
			"componentType":5126,
			"count":4,
			"type":"VEC3"
		},
		{
			"bufferView":6,
			"componentType":5126,
			"count":4,
			"type":"VEC2"
		},
		{
			"bufferView":7,
			"componentType":5123,
			"count":6,
			"type":"SCALAR"
		}
	],
	"bufferViews":[
		{
			"buffer":0,
			"byteLength":15168,
			"byteOffset":0,
			"target":34962
		},
		{
			"buffer":0,
			"byteLength":15168,
			"byteOffset":15168,
			"target":34962
		},
		{
			"buffer":0,
			"byteLength":10112,
			"byteOffset":30336,
			"target":34962
		},
		{
			"buffer":0,
			"byteLength":3792,
			"byteOffset":40448,
			"target":34963
		},
		{
			"buffer":0,
			"byteLength":48,
			"byteOffset":44240,
			"target":34962
		},
		{
			"buffer":0,
			"byteLength":48,
			"byteOffset":44288,
			"target":34962
		},
		{
			"buffer":0,
			"byteLength":32,
			"byteOffset":44336,
			"target":34962
		},
		{
			"buffer":0,
			"byteLength":12,
			"byteOffset":44368,
			"target":34963
		}
	],
	"samplers":[
		{
			"magFilter":9728,
			"minFilter":9984
		}
	],
	"buffers":[
		{
			"byteLength":44380,
			"uri":"SUB-02_Cruce_de_nave_I0.bin"
		}
	]
}
