{
	"asset":{
		"generator":"Khronos glTF Blender I/O v5.2.40",
		"version":"2.0"
	},
	"extensionsUsed":[
		"KHR_materials_emissive_strength",
		"KHR_materials_specular"
	],
	"scene":0,
	"scenes":[
		{
			"name":"Scene",
			"nodes":[
				0
			]
		}
	],
	"nodes":[
		{
			"extras":{
				"huella_generada":"694acc3c7cb7a15ae994c4a03f298bf6",
				"generado_por":"construir_sub02.py",
				"colision":"trimalla",
				"radio_sala":16.7,
				"ancho_util":28.4,
				"bocas":2,
				"rumbos":[
					-2.254394343565934,
					-2.8837455279962865
				],
				"facetas_abiertas":8,
				"luminarias_vivas":1,
				"luz_w":45.0,
				"parpadeo_s":1.7
			},
			"mesh":0,
			"name":"SUB-02_Cruce_de_nave_P-col"
		}
	],
	"materials":[
		{
			"doubleSided":true,
			"extensions":{
				"KHR_materials_specular":{
					"specularFactor":0.5
				}
			},
			"name":"SUB_base",
			"pbrMetallicRoughness":{
				"baseColorTexture":{
					"index":0
				},
				"metallicFactor":0,
				"roughnessFactor":0.8500000238418579
			}
		},
		{
			"doubleSided":true,
			"emissiveFactor":[
				1,
				0.9779249005174815,
				0.155629138855004
			],
			"extensions":{
				"KHR_materials_emissive_strength":{
					"emissiveStrength":1.9932000830650338
				},
				"KHR_materials_specular":{
					"specularFactor":0.5
				}
			},
			"name":"SUB_sodio",
			"pbrMetallicRoughness":{
				"baseColorTexture":{
					"index":1
				},
				"metallicFactor":0,
				"roughnessFactor":0.8500000238418579
			}
		}
	],
	"meshes":[
		{
			"name":"SUB-02_Cruce_de_nave_P",
			"primitives":[
				{
					"attributes":{
						"POSITION":0,
						"NORMAL":1,
						"TEXCOORD_0":2
					},
					"indices":3,
					"material":0
				},
				{
					"attributes":{
						"POSITION":4,
						"NORMAL":5,
						"TEXCOORD_0":6
					},
					"indices":7,
					"material":1
				}
			]
		}
	],
	"textures":[
		{
			"sampler":0,
			"source":0
		},
		{
			"sampler":0,
			"source":0
		}
	],
	"images":[
		{
			"mimeType":"image/png",
			"name":"SUB-01_atlas",
			"uri":"SUB-01_atlas.png"
		}
	],
	"accessors":[
		{
			"bufferView":0,
			"componentType":5126,
			"count":2080,
			"max":[
				16.700000762939453,
				6,
				16.700000762939453
			],
			"min":[
				-17.422914505004883,
				0,
				-16.700000762939453
			],
			"type":"VEC3"
		},
		{
			"bufferView":1,
			"componentType":5126,
			"count":2080,
			"type":"VEC3"
		},
		{
			"bufferView":2,
			"componentType":5126,
			"count":2080,
			"type":"VEC2"
		},
		{
			"bufferView":3,
			"componentType":5123,
			"count":3120,
			"type":"SCALAR"
		},
		{
			"bufferView":4,
			"componentType":5126,
			"count":4,
			"max":[
				8.476263999938965,
				5.739999771118164,
				-4.704127788543701
			],
			"min":[
				7.487952709197998,
				5.739999771118164,
				-5.962820529937744
			],
			"type":"VEC3"
		},
		{
			"bufferView":5,
			"componentType":5126,
			"count":4,
			"type":"VEC3"
		},
		{
			"bufferView":6,
			"componentType":5126,
			"count":4,
			"type":"VEC2"
		},
		{
			"bufferView":7,
			"componentType":5123,
			"count":6,
			"type":"SCALAR"
		}
	],
	"bufferViews":[
		{
			"buffer":0,
			"byteLength":24960,
			"byteOffset":0,
			"target":34962
		},
		{
			"buffer":0,
			"byteLength":24960,
			"byteOffset":24960,
			"target":34962
		},
		{
			"buffer":0,
			"byteLength":16640,
			"byteOffset":49920,
			"target":34962
		},
		{
			"buffer":0,
			"byteLength":6240,
			"byteOffset":66560,
			"target":34963
		},
		{
			"buffer":0,
			"byteLength":48,
			"byteOffset":72800,
			"target":34962
		},
		{
			"buffer":0,
			"byteLength":48,
			"byteOffset":72848,
			"target":34962
		},
		{
			"buffer":0,
			"byteLength":32,
			"byteOffset":72896,
			"target":34962
		},
		{
			"buffer":0,
			"byteLength":12,
			"byteOffset":72928,
			"target":34963
		}
	],
	"samplers":[
		{
			"magFilter":9728,
			"minFilter":9984
		}
	],
	"buffers":[
		{
			"byteLength":72940,
			"uri":"SUB-02_Cruce_de_nave_P.bin"
		}
	]
}
