{
	"asset":{
		"generator":"Khronos glTF Blender I/O v5.2.40",
		"version":"2.0"
	},
	"extensionsUsed":[
		"KHR_materials_specular"
	],
	"scene":0,
	"scenes":[
		{
			"name":"Scene",
			"nodes":[
				0
			]
		}
	],
	"nodes":[
		{
			"extras":{
				"huella_generada":"45b6582c1bd62fa948728fc2f42269a5",
				"generado_por":"construir_nie06.py",
				"respira_hz":0.12,
				"emision_min":0.72,
				"emision_max":1.0
			},
			"mesh":0,
			"name":"NIE-06_Nucleo_de_Colmena-col"
		}
	],
	"animations":[
		{
			"channels":[
				{
					"sampler":0,
					"target":{
						"node":0,
						"path":"weights"
					}
				}
			],
			"name":"NIE-06_Nucleo_de_ColmenaAction",
			"samplers":[
				{
					"input":6,
					"interpolation":"LINEAR",
					"output":7
				}
			]
		}
	],
	"materials":[
		{
			"doubleSided":true,
			"emissiveFactor":[
				0.720083475112915,
				0.720083475112915,
				0.720083475112915
			],
			"emissiveTexture":{
				"index":0
			},
			"extensions":{
				"KHR_materials_specular":{
					"specularFactor":0.6399999856948853
				}
			},
			"name":"NIE-06_Nucleo_de_Colmena",
			"pbrMetallicRoughness":{
				"baseColorTexture":{
					"index":1
				},
				"metallicFactor":0,
				"roughnessFactor":0.550000011920929
			}
		}
	],
	"meshes":[
		{
			"extras":{
				"targetNames":[
					"respira"
				]
			},
			"name":"NIE-06_Nucleo_de_Colmena",
			"primitives":[
				{
					"attributes":{
						"POSITION":0,
						"NORMAL":1,
						"TEXCOORD_0":2
					},
					"indices":3,
					"material":0,
					"targets":[
						{
							"POSITION":4,
							"NORMAL":5
						}
					]
				}
			],
			"weights":[
				0.0002981424331665039
			]
		}
	],
	"textures":[
		{
			"sampler":0,
			"source":0
		},
		{
			"sampler":0,
			"source":0
		}
	],
	"images":[
		{
			"mimeType":"image/png",
			"name":"NIE-06_atlas",
			"uri":"NIE-06_atlas.png"
		}
	],
	"accessors":[
		{
			"bufferView":0,
			"componentType":5126,
			"count":16027,
			"max":[
				2.204106330871582,
				6,
				1.6084270477294922
			],
			"min":[
				-2.349477529525757,
				-0.010859626345336437,
				-1.8203303813934326
			],
			"type":"VEC3"
		},
		{
			"bufferView":1,
			"componentType":5126,
			"count":16027,
			"type":"VEC3"
		},
		{
			"bufferView":2,
			"componentType":5126,
			"count":16027,
			"type":"VEC2"
		},
		{
			"bufferView":3,
			"componentType":5123,
			"count":24258,
			"type":"SCALAR"
		},
		{
			"bufferView":4,
			"componentType":5126,
			"count":16027,
			"max":[
				0.05936312675476074,
				0.11630916595458984,
				0.0456005334854126
			],
			"min":[
				-0.0636664628982544,
				-0.0001702234148979187,
				-0.05564916133880615
			],
			"type":"VEC3"
		},
		{
			"bufferView":5,
			"componentType":5126,
			"count":16027,
			"type":"VEC3"
		},
		{
			"bufferView":6,
			"componentType":5126,
			"count":200,
			"max":[
				8.333333333333334
			],
			"min":[
				0.041666666666666664
			],
			"type":"SCALAR"
		},
		{
			"bufferView":7,
			"componentType":5126,
			"count":200,
			"type":"SCALAR"
		}
	],
	"bufferViews":[
		{
			"buffer":0,
			"byteLength":192324,
			"byteOffset":0,
			"target":34962
		},
		{
			"buffer":0,
			"byteLength":192324,
			"byteOffset":192324,
			"target":34962
		},
		{
			"buffer":0,
			"byteLength":128216,
			"byteOffset":384648,
			"target":34962
		},
		{
			"buffer":0,
			"byteLength":48516,
			"byteOffset":512864,
			"target":34963
		},
		{
			"buffer":0,
			"byteLength":192324,
			"byteOffset":561380,
			"target":34962
		},
		{
			"buffer":0,
			"byteLength":192324,
			"byteOffset":753704,
			"target":34962
		},
		{
			"buffer":0,
			"byteLength":800,
			"byteOffset":946028
		},
		{
			"buffer":0,
			"byteLength":800,
			"byteOffset":946828
		}
	],
	"samplers":[
		{
			"magFilter":9728,
			"minFilter":9984
		}
	],
	"buffers":[
		{
			"byteLength":947628,
			"uri":"NIE-06_Nucleo_de_Colmena.bin"
		}
	]
}
