{
	"asset":{
		"generator":"Khronos glTF Blender I/O v5.2.40",
		"version":"2.0"
	},
	"extensionsUsed":[
		"KHR_materials_specular"
	],
	"scene":0,
	"scenes":[
		{
			"name":"Scene",
			"nodes":[
				0
			]
		}
	],
	"nodes":[
		{
			"extras":{
				"huella_generada":"a281dbec1ae1e34489b69a20bf0b821b",
				"generado_por":"construir_nie04.py",
				"emision":0.3
			},
			"mesh":0,
			"name":"NIE-04_Moldura_tomada-col"
		}
	],
	"materials":[
		{
			"doubleSided":true,
			"emissiveFactor":[
				0.30000001192092896,
				0.30000001192092896,
				0.30000001192092896
			],
			"emissiveTexture":{
				"index":0
			},
			"extensions":{
				"KHR_materials_specular":{
					"specularFactor":0.4399999976158142
				}
			},
			"name":"NIE-04_Moldura_tomada",
			"pbrMetallicRoughness":{
				"baseColorTexture":{
					"index":1
				},
				"metallicFactor":0,
				"roughnessFactor":0.7400000095367432
			}
		}
	],
	"meshes":[
		{
			"name":"NIE-04_Moldura_tomada",
			"primitives":[
				{
					"attributes":{
						"POSITION":0,
						"NORMAL":1,
						"TEXCOORD_0":2
					},
					"indices":3,
					"material":0
				}
			]
		}
	],
	"textures":[
		{
			"sampler":0,
			"source":0
		},
		{
			"sampler":0,
			"source":0
		}
	],
	"images":[
		{
			"mimeType":"image/png",
			"name":"NIE-04_atlas",
			"uri":"NIE-04_atlas.png"
		}
	],
	"accessors":[
		{
			"bufferView":0,
			"componentType":5126,
			"count":843,
			"max":[
				0.3728943467140198,
				1.192618727684021,
				0.14999999105930328
			],
			"min":[
				-0.4399999976158142,
				0,
				-0.5961790680885315
			],
			"type":"VEC3"
		},
		{
			"bufferView":1,
			"componentType":5126,
			"count":843,
			"type":"VEC3"
		},
		{
			"bufferView":2,
			"componentType":5126,
			"count":843,
			"type":"VEC2"
		},
		{
			"bufferView":3,
			"componentType":5123,
			"count":1440,
			"type":"SCALAR"
		}
	],
	"bufferViews":[
		{
			"buffer":0,
			"byteLength":10116,
			"byteOffset":0,
			"target":34962
		},
		{
			"buffer":0,
			"byteLength":10116,
			"byteOffset":10116,
			"target":34962
		},
		{
			"buffer":0,
			"byteLength":6744,
			"byteOffset":20232,
			"target":34962
		},
		{
			"buffer":0,
			"byteLength":2880,
			"byteOffset":26976,
			"target":34963
		}
	],
	"samplers":[
		{
			"magFilter":9728,
			"minFilter":9984
		}
	],
	"buffers":[
		{
			"byteLength":29856,
			"uri":"NIE-04_Moldura_tomada.bin"
		}
	]
}
