{
	"asset":{
		"generator":"Khronos glTF Blender I/O v5.2.40",
		"version":"2.0"
	},
	"extensionsUsed":[
		"KHR_materials_specular"
	],
	"scene":0,
	"scenes":[
		{
			"name":"Scene",
			"nodes":[
				0,
				1
			]
		}
	],
	"nodes":[
		{
			"extras":{
				"huella_generada":"46c2f809aa973ad2c4105f87fcb2a875",
				"generado_por":"construir_ter04.py"
			},
			"mesh":0,
			"name":"TER-04_Tocon_ahogado"
		},
		{
			"mesh":1,
			"name":"TER-04_Tocon_ahogado-convcolonly"
		}
	],
	"materials":[
		{
			"doubleSided":true,
			"extensions":{
				"KHR_materials_specular":{
					"specularFactor":0.3199999928474426
				}
			},
			"name":"TER-04_Tocon_ahogado",
			"pbrMetallicRoughness":{
				"baseColorTexture":{
					"index":0
				},
				"metallicFactor":0,
				"roughnessFactor":0.8600000143051147
			}
		}
	],
	"meshes":[
		{
			"name":"TER-04_Tocon_ahogado",
			"primitives":[
				{
					"attributes":{
						"POSITION":0,
						"NORMAL":1,
						"TEXCOORD_0":2
					},
					"indices":3,
					"material":0
				}
			]
		},
		{
			"name":"TER-04_Tocon_ahogado-convcolonly",
			"primitives":[
				{
					"attributes":{
						"POSITION":4,
						"NORMAL":5
					},
					"indices":6
				}
			]
		}
	],
	"textures":[
		{
			"sampler":0,
			"source":0
		}
	],
	"images":[
		{
			"mimeType":"image/png",
			"name":"TER-04_atlas",
			"uri":"TER-04_atlas.png"
		}
	],
	"accessors":[
		{
			"bufferView":0,
			"componentType":5126,
			"count":741,
			"max":[
				0.6170090436935425,
				1.2416993379592896,
				0.6137571334838867
			],
			"min":[
				-0.5447988510131836,
				-0.03646135702729225,
				-0.5689817070960999
			],
			"type":"VEC3"
		},
		{
			"bufferView":1,
			"componentType":5126,
			"count":741,
			"type":"VEC3"
		},
		{
			"bufferView":2,
			"componentType":5126,
			"count":741,
			"type":"VEC2"
		},
		{
			"bufferView":3,
			"componentType":5123,
			"count":1047,
			"type":"SCALAR"
		},
		{
			"bufferView":4,
			"componentType":5126,
			"count":182,
			"max":[
				0.5880042314529419,
				1.2416993379592896,
				0.58307945728302
			],
			"min":[
				-0.5232915282249451,
				-0.03646135702729225,
				-0.5689817070960999
			],
			"type":"VEC3"
		},
		{
			"bufferView":5,
			"componentType":5126,
			"count":182,
			"type":"VEC3"
		},
		{
			"bufferView":6,
			"componentType":5123,
			"count":186,
			"type":"SCALAR"
		}
	],
	"bufferViews":[
		{
			"buffer":0,
			"byteLength":8892,
			"byteOffset":0,
			"target":34962
		},
		{
			"buffer":0,
			"byteLength":8892,
			"byteOffset":8892,
			"target":34962
		},
		{
			"buffer":0,
			"byteLength":5928,
			"byteOffset":17784,
			"target":34962
		},
		{
			"buffer":0,
			"byteLength":2094,
			"byteOffset":23712,
			"target":34963
		},
		{
			"buffer":0,
			"byteLength":2184,
			"byteOffset":25808,
			"target":34962
		},
		{
			"buffer":0,
			"byteLength":2184,
			"byteOffset":27992,
			"target":34962
		},
		{
			"buffer":0,
			"byteLength":372,
			"byteOffset":30176,
			"target":34963
		}
	],
	"samplers":[
		{
			"magFilter":9728,
			"minFilter":9984
		}
	],
	"buffers":[
		{
			"byteLength":30548,
			"uri":"TER-04_Tocon_ahogado.bin"
		}
	]
}
