{
	"asset":{
		"generator":"Khronos glTF Blender I/O v5.2.40",
		"version":"2.0"
	},
	"extensionsUsed":[
		"KHR_materials_specular"
	],
	"scene":0,
	"scenes":[
		{
			"name":"Scene",
			"nodes":[
				0,
				1
			]
		}
	],
	"nodes":[
		{
			"extras":{
				"huella_generada":"6531a1634060f3b1095f687b1a7defb5",
				"generado_por":"construir_flo13.py"
			},
			"mesh":0,
			"name":"FLO-13_Palma_de_estopa_b"
		},
		{
			"mesh":1,
			"name":"FLO-13_Palma_de_estopa_b-convcolonly"
		}
	],
	"materials":[
		{
			"doubleSided":true,
			"extensions":{
				"KHR_materials_specular":{
					"specularFactor":0.20000000298023224
				}
			},
			"name":"FLO-13_Palma_de_estopa",
			"pbrMetallicRoughness":{
				"baseColorTexture":{
					"index":0
				},
				"metallicFactor":0,
				"roughnessFactor":0.9399999976158142
			}
		}
	],
	"meshes":[
		{
			"name":"FLO-13_Palma_de_estopa_b",
			"primitives":[
				{
					"attributes":{
						"POSITION":0,
						"NORMAL":1,
						"TEXCOORD_0":2
					},
					"indices":3,
					"material":0
				}
			]
		},
		{
			"name":"FLO-13_Palma_de_estopa_b-convcolonly",
			"primitives":[
				{
					"attributes":{
						"POSITION":4,
						"NORMAL":5
					},
					"indices":6
				}
			]
		}
	],
	"textures":[
		{
			"sampler":0,
			"source":0
		}
	],
	"images":[
		{
			"mimeType":"image/png",
			"name":"FLO-13_atlas",
			"uri":"FLO-13_atlas.png"
		}
	],
	"accessors":[
		{
			"bufferView":0,
			"componentType":5126,
			"count":2022,
			"max":[
				1.7413747310638428,
				3.699202060699463,
				1.5932199954986572
			],
			"min":[
				-1.2423975467681885,
				-0.010875280015170574,
				-1.5099846124649048
			],
			"type":"VEC3"
		},
		{
			"bufferView":1,
			"componentType":5126,
			"count":2022,
			"type":"VEC3"
		},
		{
			"bufferView":2,
			"componentType":5126,
			"count":2022,
			"type":"VEC2"
		},
		{
			"bufferView":3,
			"componentType":5123,
			"count":2982,
			"type":"SCALAR"
		},
		{
			"bufferView":4,
			"componentType":5126,
			"count":48,
			"max":[
				0.14332036674022675,
				1.1021479368209839,
				-0.0037760704290121794
			],
			"min":[
				-0.012765509076416492,
				-0.010875280015170574,
				-0.18466772139072418
			],
			"type":"VEC3"
		},
		{
			"bufferView":5,
			"componentType":5126,
			"count":48,
			"type":"VEC3"
		},
		{
			"bufferView":6,
			"componentType":5123,
			"count":84,
			"type":"SCALAR"
		}
	],
	"bufferViews":[
		{
			"buffer":0,
			"byteLength":24264,
			"byteOffset":0,
			"target":34962
		},
		{
			"buffer":0,
			"byteLength":24264,
			"byteOffset":24264,
			"target":34962
		},
		{
			"buffer":0,
			"byteLength":16176,
			"byteOffset":48528,
			"target":34962
		},
		{
			"buffer":0,
			"byteLength":5964,
			"byteOffset":64704,
			"target":34963
		},
		{
			"buffer":0,
			"byteLength":576,
			"byteOffset":70668,
			"target":34962
		},
		{
			"buffer":0,
			"byteLength":576,
			"byteOffset":71244,
			"target":34962
		},
		{
			"buffer":0,
			"byteLength":168,
			"byteOffset":71820,
			"target":34963
		}
	],
	"samplers":[
		{
			"magFilter":9728,
			"minFilter":9984
		}
	],
	"buffers":[
		{
			"byteLength":71988,
			"uri":"FLO-13_Palma_de_estopa_b.bin"
		}
	]
}
