{
	"asset":{
		"generator":"Khronos glTF Blender I/O v5.2.40",
		"version":"2.0"
	},
	"extensionsUsed":[
		"KHR_materials_specular"
	],
	"scene":0,
	"scenes":[
		{
			"name":"Scene",
			"nodes":[
				0,
				1
			]
		}
	],
	"nodes":[
		{
			"extras":{
				"huella_generada":"35184b80cdfcab067fafce69bb334d6e",
				"generado_por":"construir_flo13.py"
			},
			"mesh":0,
			"name":"FLO-13_Palma_de_estopa_a",
			"translation":[
				-4,
				0,
				0
			]
		},
		{
			"mesh":1,
			"name":"FLO-13_Palma_de_estopa_a-convcolonly"
		}
	],
	"materials":[
		{
			"doubleSided":true,
			"extensions":{
				"KHR_materials_specular":{
					"specularFactor":0.20000000298023224
				}
			},
			"name":"FLO-13_Palma_de_estopa",
			"pbrMetallicRoughness":{
				"baseColorTexture":{
					"index":0
				},
				"metallicFactor":0,
				"roughnessFactor":0.9399999976158142
			}
		}
	],
	"meshes":[
		{
			"name":"FLO-13_Palma_de_estopa_a",
			"primitives":[
				{
					"attributes":{
						"POSITION":0,
						"NORMAL":1,
						"TEXCOORD_0":2
					},
					"indices":3,
					"material":0
				}
			]
		},
		{
			"name":"FLO-13_Palma_de_estopa_a-convcolonly",
			"primitives":[
				{
					"attributes":{
						"POSITION":4,
						"NORMAL":5
					},
					"indices":6
				}
			]
		}
	],
	"textures":[
		{
			"sampler":0,
			"source":0
		}
	],
	"images":[
		{
			"mimeType":"image/png",
			"name":"FLO-13_atlas",
			"uri":"FLO-13_atlas.png"
		}
	],
	"accessors":[
		{
			"bufferView":0,
			"componentType":5126,
			"count":2030,
			"max":[
				1.5960071086883545,
				4.135593891143799,
				1.2783039808273315
			],
			"min":[
				-1.0519344806671143,
				-0.011185556650161743,
				-1.389400839805603
			],
			"type":"VEC3"
		},
		{
			"bufferView":1,
			"componentType":5126,
			"count":2030,
			"type":"VEC3"
		},
		{
			"bufferView":2,
			"componentType":5126,
			"count":2030,
			"type":"VEC2"
		},
		{
			"bufferView":3,
			"componentType":5123,
			"count":2982,
			"type":"SCALAR"
		},
		{
			"bufferView":4,
			"componentType":5126,
			"count":48,
			"max":[
				0.2017180323600769,
				1.2328482866287231,
				-0.0008660760940983891
			],
			"min":[
				0.017402321100234985,
				-0.011185556650161743,
				-0.2147761732339859
			],
			"type":"VEC3"
		},
		{
			"bufferView":5,
			"componentType":5126,
			"count":48,
			"type":"VEC3"
		},
		{
			"bufferView":6,
			"componentType":5123,
			"count":84,
			"type":"SCALAR"
		}
	],
	"bufferViews":[
		{
			"buffer":0,
			"byteLength":24360,
			"byteOffset":0,
			"target":34962
		},
		{
			"buffer":0,
			"byteLength":24360,
			"byteOffset":24360,
			"target":34962
		},
		{
			"buffer":0,
			"byteLength":16240,
			"byteOffset":48720,
			"target":34962
		},
		{
			"buffer":0,
			"byteLength":5964,
			"byteOffset":64960,
			"target":34963
		},
		{
			"buffer":0,
			"byteLength":576,
			"byteOffset":70924,
			"target":34962
		},
		{
			"buffer":0,
			"byteLength":576,
			"byteOffset":71500,
			"target":34962
		},
		{
			"buffer":0,
			"byteLength":168,
			"byteOffset":72076,
			"target":34963
		}
	],
	"samplers":[
		{
			"magFilter":9728,
			"minFilter":9984
		}
	],
	"buffers":[
		{
			"byteLength":72244,
			"uri":"FLO-13_Palma_de_estopa_a.bin"
		}
	]
}
