{
	"asset":{
		"generator":"Khronos glTF Blender I/O v5.2.40",
		"version":"2.0"
	},
	"extensionsUsed":[
		"KHR_materials_specular"
	],
	"scene":0,
	"scenes":[
		{
			"name":"Scene",
			"nodes":[
				0,
				1
			]
		}
	],
	"nodes":[
		{
			"extras":{
				"huella_generada":"cafb9132a91901e95126c7b9fd1b0cbd",
				"generado_por":"construir_nie03.py",
				"latido_hz":0.5,
				"emision_min":0.35,
				"emision_max":0.7,
				"hincha":0.07
			},
			"mesh":0,
			"name":"NIE-03_Pustula"
		},
		{
			"mesh":1,
			"name":"NIE-03_Pustula-convcolonly"
		}
	],
	"animations":[
		{
			"channels":[
				{
					"sampler":0,
					"target":{
						"node":0,
						"path":"weights"
					}
				}
			],
			"name":"NIE-03_PustulaAction",
			"samplers":[
				{
					"input":9,
					"interpolation":"LINEAR",
					"output":10
				}
			]
		}
	],
	"materials":[
		{
			"doubleSided":true,
			"emissiveFactor":[
				0.3517723083496094,
				0.3517723083496094,
				0.3517723083496094
			],
			"emissiveTexture":{
				"index":0
			},
			"extensions":{
				"KHR_materials_specular":{
					"specularFactor":0.8999999761581421
				}
			},
			"name":"NIE-03_Pustula",
			"pbrMetallicRoughness":{
				"baseColorTexture":{
					"index":1
				},
				"metallicFactor":0,
				"roughnessFactor":0.41999998688697815
			}
		}
	],
	"meshes":[
		{
			"extras":{
				"targetNames":[
					"latido"
				]
			},
			"name":"NIE-03_Pustula",
			"primitives":[
				{
					"attributes":{
						"POSITION":0,
						"NORMAL":1,
						"TEXCOORD_0":2
					},
					"indices":3,
					"material":0,
					"targets":[
						{
							"POSITION":4,
							"NORMAL":5
						}
					]
				}
			],
			"weights":[
				0.005063652992248535
			]
		},
		{
			"name":"NIE-03_Pustula-convcolonly",
			"primitives":[
				{
					"attributes":{
						"POSITION":6,
						"NORMAL":7
					},
					"indices":8
				}
			]
		}
	],
	"textures":[
		{
			"sampler":0,
			"source":0
		},
		{
			"sampler":0,
			"source":0
		}
	],
	"images":[
		{
			"mimeType":"image/png",
			"name":"NIE-03_atlas",
			"uri":"NIE-03_atlas.png"
		}
	],
	"accessors":[
		{
			"bufferView":0,
			"componentType":5126,
			"count":828,
			"max":[
				0.3791309893131256,
				0.800000011920929,
				0.33776798844337463
			],
			"min":[
				-0.36680153012275696,
				0,
				-0.4035888910293579
			],
			"type":"VEC3"
		},
		{
			"bufferView":1,
			"componentType":5126,
			"count":828,
			"type":"VEC3"
		},
		{
			"bufferView":2,
			"componentType":5126,
			"count":828,
			"type":"VEC2"
		},
		{
			"bufferView":3,
			"componentType":5123,
			"count":1188,
			"type":"SCALAR"
		},
		{
			"bufferView":4,
			"componentType":5126,
			"count":828,
			"max":[
				0.01738607883453369,
				0.02799999713897705,
				0.018504023551940918
			],
			"min":[
				-0.021605581045150757,
				0,
				-0.02082839608192444
			],
			"type":"VEC3"
		},
		{
			"bufferView":5,
			"componentType":5126,
			"count":828,
			"type":"VEC3"
		},
		{
			"bufferView":6,
			"componentType":5126,
			"count":174,
			"max":[
				0.30184832215309143,
				0.7863703370094299,
				0.3261193335056305
			],
			"min":[
				-0.31463196873664856,
				0,
				-0.4035888910293579
			],
			"type":"VEC3"
		},
		{
			"bufferView":7,
			"componentType":5126,
			"count":174,
			"type":"VEC3"
		},
		{
			"bufferView":8,
			"componentType":5123,
			"count":174,
			"type":"SCALAR"
		},
		{
			"bufferView":9,
			"componentType":5126,
			"count":48,
			"max":[
				2
			],
			"min":[
				0.041666666666666664
			],
			"type":"SCALAR"
		},
		{
			"bufferView":10,
			"componentType":5126,
			"count":48,
			"type":"SCALAR"
		}
	],
	"bufferViews":[
		{
			"buffer":0,
			"byteLength":9936,
			"byteOffset":0,
			"target":34962
		},
		{
			"buffer":0,
			"byteLength":9936,
			"byteOffset":9936,
			"target":34962
		},
		{
			"buffer":0,
			"byteLength":6624,
			"byteOffset":19872,
			"target":34962
		},
		{
			"buffer":0,
			"byteLength":2376,
			"byteOffset":26496,
			"target":34963
		},
		{
			"buffer":0,
			"byteLength":9936,
			"byteOffset":28872,
			"target":34962
		},
		{
			"buffer":0,
			"byteLength":9936,
			"byteOffset":38808,
			"target":34962
		},
		{
			"buffer":0,
			"byteLength":2088,
			"byteOffset":48744,
			"target":34962
		},
		{
			"buffer":0,
			"byteLength":2088,
			"byteOffset":50832,
			"target":34962
		},
		{
			"buffer":0,
			"byteLength":348,
			"byteOffset":52920,
			"target":34963
		},
		{
			"buffer":0,
			"byteLength":192,
			"byteOffset":53268
		},
		{
			"buffer":0,
			"byteLength":192,
			"byteOffset":53460
		}
	],
	"samplers":[
		{
			"magFilter":9728,
			"minFilter":9984
		}
	],
	"buffers":[
		{
			"byteLength":53652,
			"uri":"NIE-03_Pustula.bin"
		}
	]
}
