{
	"asset":{
		"generator":"Khronos glTF Blender I/O v5.2.40",
		"version":"2.0"
	},
	"extensionsUsed":[
		"KHR_materials_specular"
	],
	"scene":0,
	"scenes":[
		{
			"name":"Scene",
			"nodes":[
				0
			]
		}
	],
	"nodes":[
		{
			"extras":{
				"huella_generada":"7452ee92faf8dfb6d56816bc4bb5fb07",
				"generado_por":"construir_nie08.py",
				"colision":"ninguna",
				"emision":0.7,
				"radio_torre":2.5
			},
			"mesh":0,
			"name":"NIE-08_Manto_de_torre"
		}
	],
	"materials":[
		{
			"doubleSided":true,
			"emissiveFactor":[
				0.699999988079071,
				0.699999988079071,
				0.699999988079071
			],
			"emissiveTexture":{
				"index":0
			},
			"extensions":{
				"KHR_materials_specular":{
					"specularFactor":0.6800000071525574
				}
			},
			"name":"NIE-08_Manto_de_torre",
			"pbrMetallicRoughness":{
				"baseColorTexture":{
					"index":1
				},
				"metallicFactor":0,
				"roughnessFactor":0.550000011920929
			}
		}
	],
	"meshes":[
		{
			"name":"NIE-08_Manto_de_torre",
			"primitives":[
				{
					"attributes":{
						"POSITION":0,
						"NORMAL":1,
						"TEXCOORD_0":2
					},
					"indices":3,
					"material":0
				}
			]
		}
	],
	"textures":[
		{
			"sampler":0,
			"source":0
		},
		{
			"sampler":0,
			"source":0
		}
	],
	"images":[
		{
			"mimeType":"image/png",
			"name":"NIE-08_atlas",
			"uri":"NIE-08_atlas.png"
		}
	],
	"accessors":[
		{
			"bufferView":0,
			"componentType":5126,
			"count":1616,
			"max":[
				3.6356167793273926,
				6,
				1.4367029666900635
			],
			"min":[
				2.0633389949798584,
				-1.2756162881851196,
				-1.4252954721450806
			],
			"type":"VEC3"
		},
		{
			"bufferView":1,
			"componentType":5126,
			"count":1616,
			"type":"VEC3"
		},
		{
			"bufferView":2,
			"componentType":5126,
			"count":1616,
			"type":"VEC2"
		},
		{
			"bufferView":3,
			"componentType":5123,
			"count":2424,
			"type":"SCALAR"
		}
	],
	"bufferViews":[
		{
			"buffer":0,
			"byteLength":19392,
			"byteOffset":0,
			"target":34962
		},
		{
			"buffer":0,
			"byteLength":19392,
			"byteOffset":19392,
			"target":34962
		},
		{
			"buffer":0,
			"byteLength":12928,
			"byteOffset":38784,
			"target":34962
		},
		{
			"buffer":0,
			"byteLength":4848,
			"byteOffset":51712,
			"target":34963
		}
	],
	"samplers":[
		{
			"magFilter":9728,
			"minFilter":9984
		}
	],
	"buffers":[
		{
			"byteLength":56560,
			"uri":"NIE-08_Manto_de_torre.bin"
		}
	]
}
