{
	"asset":{
		"generator":"Khronos glTF Blender I/O v5.2.40",
		"version":"2.0"
	},
	"extensionsUsed":[
		"KHR_materials_specular"
	],
	"scene":0,
	"scenes":[
		{
			"name":"Scene",
			"nodes":[
				0
			]
		}
	],
	"nodes":[
		{
			"extras":{
				"huella_generada":"28ea8f63c3706a7030f81565fa5460ac",
				"generado_por":"construir_sub03.py",
				"colision":"trimalla",
				"hueco_ancho":1.9634954084936207,
				"hueco_alto":2.3,
				"cota_umbral":0.3,
				"vano_meridianos":4,
				"apertura_grados":78.0,
				"volante_radio":0.38
			},
			"mesh":0,
			"name":"SUB-03_Esclusa_de_fondo-col"
		}
	],
	"materials":[
		{
			"doubleSided":true,
			"extensions":{
				"KHR_materials_specular":{
					"specularFactor":0.6399999856948853
				}
			},
			"name":"SUB-03_esclusa",
			"pbrMetallicRoughness":{
				"baseColorTexture":{
					"index":0
				},
				"metallicFactor":0,
				"roughnessFactor":0.7200000286102295
			}
		}
	],
	"meshes":[
		{
			"name":"SUB-03_Esclusa_de_fondo",
			"primitives":[
				{
					"attributes":{
						"POSITION":0,
						"NORMAL":1,
						"TEXCOORD_0":2
					},
					"indices":3,
					"material":0
				}
			]
		}
	],
	"textures":[
		{
			"sampler":0,
			"source":0
		}
	],
	"images":[
		{
			"mimeType":"image/png",
			"name":"SUB-03_atlas",
			"uri":"SUB-03_atlas.png"
		}
	],
	"accessors":[
		{
			"bufferView":0,
			"componentType":5126,
			"count":262,
			"max":[
				4.360419750213623,
				2.7799999713897705,
				1.169681429862976
			],
			"min":[
				2.0972065925598145,
				0.17399999499320984,
				-1.3642760515213013
			],
			"type":"VEC3"
		},
		{
			"bufferView":1,
			"componentType":5126,
			"count":262,
			"type":"VEC3"
		},
		{
			"bufferView":2,
			"componentType":5126,
			"count":262,
			"type":"VEC2"
		},
		{
			"bufferView":3,
			"componentType":5123,
			"count":414,
			"type":"SCALAR"
		}
	],
	"bufferViews":[
		{
			"buffer":0,
			"byteLength":3144,
			"byteOffset":0,
			"target":34962
		},
		{
			"buffer":0,
			"byteLength":3144,
			"byteOffset":3144,
			"target":34962
		},
		{
			"buffer":0,
			"byteLength":2096,
			"byteOffset":6288,
			"target":34962
		},
		{
			"buffer":0,
			"byteLength":828,
			"byteOffset":8384,
			"target":34963
		}
	],
	"samplers":[
		{
			"magFilter":9728,
			"minFilter":9984
		}
	],
	"buffers":[
		{
			"byteLength":9212,
			"uri":"SUB-03_Esclusa_de_fondo.bin"
		}
	]
}
