{
	"asset":{
		"generator":"Khronos glTF Blender I/O v5.2.40",
		"version":"2.0"
	},
	"extensionsUsed":[
		"KHR_materials_specular"
	],
	"scene":0,
	"scenes":[
		{
			"name":"Scene",
			"nodes":[
				0
			]
		}
	],
	"nodes":[
		{
			"extras":{
				"huella_generada":"96d588fdfa73e00d2de061d77c8096f8",
				"generado_por":"construir_tor01.py",
				"colision":"trimalla",
				"modulo_alto":6.0,
				"diametro":5.0
			},
			"mesh":0,
			"name":"TOR-01_Fuste_de_torre_c-col"
		}
	],
	"materials":[
		{
			"doubleSided":true,
			"extensions":{
				"KHR_materials_specular":{
					"specularFactor":0.4399999976158142
				}
			},
			"name":"TOR-01_Fuste_de_torre",
			"pbrMetallicRoughness":{
				"baseColorTexture":{
					"index":0
				},
				"metallicFactor":0,
				"roughnessFactor":0.8399999737739563
			}
		}
	],
	"meshes":[
		{
			"name":"TOR-01_Fuste_de_torre_c",
			"primitives":[
				{
					"attributes":{
						"POSITION":0,
						"NORMAL":1,
						"TEXCOORD_0":2
					},
					"indices":3,
					"material":0
				}
			]
		}
	],
	"textures":[
		{
			"sampler":0,
			"source":0
		}
	],
	"images":[
		{
			"mimeType":"image/png",
			"name":"TOR-01_atlas",
			"uri":"TOR-01_atlas.png"
		}
	],
	"accessors":[
		{
			"bufferView":0,
			"componentType":5126,
			"count":788,
			"max":[
				2.6050000190734863,
				6,
				2.6050000190734863
			],
			"min":[
				-2.6050000190734863,
				0,
				-2.6050000190734863
			],
			"type":"VEC3"
		},
		{
			"bufferView":1,
			"componentType":5126,
			"count":788,
			"type":"VEC3"
		},
		{
			"bufferView":2,
			"componentType":5126,
			"count":788,
			"type":"VEC2"
		},
		{
			"bufferView":3,
			"componentType":5123,
			"count":1560,
			"type":"SCALAR"
		}
	],
	"bufferViews":[
		{
			"buffer":0,
			"byteLength":9456,
			"byteOffset":0,
			"target":34962
		},
		{
			"buffer":0,
			"byteLength":9456,
			"byteOffset":9456,
			"target":34962
		},
		{
			"buffer":0,
			"byteLength":6304,
			"byteOffset":18912,
			"target":34962
		},
		{
			"buffer":0,
			"byteLength":3120,
			"byteOffset":25216,
			"target":34963
		}
	],
	"samplers":[
		{
			"magFilter":9728,
			"minFilter":9984
		}
	],
	"buffers":[
		{
			"byteLength":28336,
			"uri":"TOR-01_Fuste_de_torre_c.bin"
		}
	]
}
