{
	"asset":{
		"generator":"Khronos glTF Blender I/O v5.2.40",
		"version":"2.0"
	},
	"extensionsUsed":[
		"KHR_materials_specular"
	],
	"scene":0,
	"scenes":[
		{
			"name":"Scene",
			"nodes":[
				0
			]
		}
	],
	"nodes":[
		{
			"extras":{
				"huella_generada":"7f638e980f264cb57485ed3e7dd2edce",
				"generado_por":"construir_tor03.py",
				"colision":"trimalla",
				"cota_marea":1.08
			},
			"mesh":0,
			"name":"TOR-08_Pie_pasante-col"
		}
	],
	"materials":[
		{
			"doubleSided":true,
			"extensions":{
				"KHR_materials_specular":{
					"specularFactor":0.36000001430511475
				}
			},
			"name":"TOR-08_Pie_pasante",
			"pbrMetallicRoughness":{
				"baseColorTexture":{
					"index":0
				},
				"metallicFactor":0,
				"roughnessFactor":0.8999999761581421
			}
		}
	],
	"meshes":[
		{
			"name":"TOR-08_Pie_pasante",
			"primitives":[
				{
					"attributes":{
						"POSITION":0,
						"NORMAL":1,
						"TEXCOORD_0":2
					},
					"indices":3,
					"material":0
				}
			]
		}
	],
	"textures":[
		{
			"sampler":0,
			"source":0
		}
	],
	"images":[
		{
			"mimeType":"image/png",
			"name":"TOR-03_atlas",
			"uri":"TOR-03_atlas.png"
		}
	],
	"accessors":[
		{
			"bufferView":0,
			"componentType":5126,
			"count":896,
			"max":[
				2.712523937225342,
				3,
				2.6934499740600586
			],
			"min":[
				-2.6444761753082275,
				0,
				-2.6635501384735107
			],
			"type":"VEC3"
		},
		{
			"bufferView":1,
			"componentType":5126,
			"count":896,
			"type":"VEC3"
		},
		{
			"bufferView":2,
			"componentType":5126,
			"count":896,
			"type":"VEC2"
		},
		{
			"bufferView":3,
			"componentType":5123,
			"count":1536,
			"type":"SCALAR"
		}
	],
	"bufferViews":[
		{
			"buffer":0,
			"byteLength":10752,
			"byteOffset":0,
			"target":34962
		},
		{
			"buffer":0,
			"byteLength":10752,
			"byteOffset":10752,
			"target":34962
		},
		{
			"buffer":0,
			"byteLength":7168,
			"byteOffset":21504,
			"target":34962
		},
		{
			"buffer":0,
			"byteLength":3072,
			"byteOffset":28672,
			"target":34963
		}
	],
	"samplers":[
		{
			"magFilter":9728,
			"minFilter":9984
		}
	],
	"buffers":[
		{
			"byteLength":31744,
			"uri":"TOR-08_Pie_pasante.bin"
		}
	]
}
