{
	"asset":{
		"generator":"Khronos glTF Blender I/O v5.2.40",
		"version":"2.0"
	},
	"extensionsUsed":[
		"KHR_materials_specular"
	],
	"scene":0,
	"scenes":[
		{
			"name":"Scene",
			"nodes":[
				0
			]
		}
	],
	"nodes":[
		{
			"extras":{
				"huella_generada":"4dda1fe6849a70ef60b0a69ca2c81dde",
				"generado_por":"construir_tor02.py",
				"colision":"trimalla",
				"remate":"dientes"
			},
			"mesh":0,
			"name":"TOR-02_Corona_de_torre_a-col"
		}
	],
	"materials":[
		{
			"doubleSided":true,
			"extensions":{
				"KHR_materials_specular":{
					"specularFactor":0.4399999976158142
				}
			},
			"name":"TOR-01_Fuste_de_torre",
			"pbrMetallicRoughness":{
				"baseColorTexture":{
					"index":0
				},
				"metallicFactor":0,
				"roughnessFactor":0.8399999737739563
			}
		}
	],
	"meshes":[
		{
			"name":"TOR-02_Corona_de_torre_a",
			"primitives":[
				{
					"attributes":{
						"POSITION":0,
						"NORMAL":1,
						"TEXCOORD_0":2
					},
					"indices":3,
					"material":0
				}
			]
		}
	],
	"textures":[
		{
			"sampler":0,
			"source":0
		}
	],
	"images":[
		{
			"mimeType":"image/png",
			"name":"TOR-01_atlas",
			"uri":"TOR-01_atlas.png"
		}
	],
	"accessors":[
		{
			"bufferView":0,
			"componentType":5126,
			"count":1520,
			"max":[
				2.799999952316284,
				2.200000047683716,
				2.799999952316284
			],
			"min":[
				-2.799999952316284,
				0,
				-2.799999952316284
			],
			"type":"VEC3"
		},
		{
			"bufferView":1,
			"componentType":5126,
			"count":1520,
			"type":"VEC3"
		},
		{
			"bufferView":2,
			"componentType":5126,
			"count":1520,
			"type":"VEC2"
		},
		{
			"bufferView":3,
			"componentType":5123,
			"count":2544,
			"type":"SCALAR"
		}
	],
	"bufferViews":[
		{
			"buffer":0,
			"byteLength":18240,
			"byteOffset":0,
			"target":34962
		},
		{
			"buffer":0,
			"byteLength":18240,
			"byteOffset":18240,
			"target":34962
		},
		{
			"buffer":0,
			"byteLength":12160,
			"byteOffset":36480,
			"target":34962
		},
		{
			"buffer":0,
			"byteLength":5088,
			"byteOffset":48640,
			"target":34963
		}
	],
	"samplers":[
		{
			"magFilter":9728,
			"minFilter":9984
		}
	],
	"buffers":[
		{
			"byteLength":53728,
			"uri":"TOR-02_Corona_de_torre_a.bin"
		}
	]
}
