{
	"asset":{
		"generator":"Khronos glTF Blender I/O v5.2.40",
		"version":"2.0"
	},
	"extensionsUsed":[
		"KHR_materials_specular"
	],
	"scene":0,
	"scenes":[
		{
			"name":"Scene",
			"nodes":[
				0
			]
		}
	],
	"nodes":[
		{
			"extras":{
				"huella_generada":"990199bf85c4f5c8073732f54720ae2c",
				"generado_por":"construir_tor02.py",
				"colision":"trimalla",
				"remate":"rota"
			},
			"mesh":0,
			"name":"TOR-02_Corona_de_torre_c-col"
		}
	],
	"materials":[
		{
			"doubleSided":true,
			"extensions":{
				"KHR_materials_specular":{
					"specularFactor":0.4399999976158142
				}
			},
			"name":"TOR-01_Fuste_de_torre",
			"pbrMetallicRoughness":{
				"baseColorTexture":{
					"index":0
				},
				"metallicFactor":0,
				"roughnessFactor":0.8399999737739563
			}
		}
	],
	"meshes":[
		{
			"name":"TOR-02_Corona_de_torre_c",
			"primitives":[
				{
					"attributes":{
						"POSITION":0,
						"NORMAL":1,
						"TEXCOORD_0":2
					},
					"indices":3,
					"material":0
				}
			]
		}
	],
	"textures":[
		{
			"sampler":0,
			"source":0
		}
	],
	"images":[
		{
			"mimeType":"image/png",
			"name":"TOR-01_atlas",
			"uri":"TOR-01_atlas.png"
		}
	],
	"accessors":[
		{
			"bufferView":0,
			"componentType":5126,
			"count":1440,
			"max":[
				2.799999952316284,
				2.200000047683716,
				2.799999952316284
			],
			"min":[
				-2.799999952316284,
				0,
				-2.799999952316284
			],
			"type":"VEC3"
		},
		{
			"bufferView":1,
			"componentType":5126,
			"count":1440,
			"type":"VEC3"
		},
		{
			"bufferView":2,
			"componentType":5126,
			"count":1440,
			"type":"VEC2"
		},
		{
			"bufferView":3,
			"componentType":5123,
			"count":2424,
			"type":"SCALAR"
		}
	],
	"bufferViews":[
		{
			"buffer":0,
			"byteLength":17280,
			"byteOffset":0,
			"target":34962
		},
		{
			"buffer":0,
			"byteLength":17280,
			"byteOffset":17280,
			"target":34962
		},
		{
			"buffer":0,
			"byteLength":11520,
			"byteOffset":34560,
			"target":34962
		},
		{
			"buffer":0,
			"byteLength":4848,
			"byteOffset":46080,
			"target":34963
		}
	],
	"samplers":[
		{
			"magFilter":9728,
			"minFilter":9984
		}
	],
	"buffers":[
		{
			"byteLength":50928,
			"uri":"TOR-02_Corona_de_torre_c.bin"
		}
	]
}
