{
	"asset":{
		"generator":"Khronos glTF Blender I/O v5.2.40",
		"version":"2.0"
	},
	"extensionsUsed":[
		"KHR_materials_specular"
	],
	"scene":0,
	"scenes":[
		{
			"name":"Scene",
			"nodes":[
				0
			]
		}
	],
	"nodes":[
		{
			"extras":{
				"huella_generada":"8a91c2ca98c249f0b761ac6a2e35f467",
				"generado_por":"construir_orn08.py",
				"colision":"ninguna",
				"emite":false
			},
			"mesh":0,
			"name":"ORN-08_Estandarte_de_La_Carabela"
		}
	],
	"materials":[
		{
			"doubleSided":true,
			"extensions":{
				"KHR_materials_specular":{
					"specularFactor":0.20000000298023224
				}
			},
			"name":"ORN-08_Estandarte_de_La_Carabela",
			"pbrMetallicRoughness":{
				"baseColorTexture":{
					"index":0
				},
				"metallicFactor":0,
				"roughnessFactor":0.9399999976158142
			}
		}
	],
	"meshes":[
		{
			"name":"ORN-08_Estandarte_de_La_Carabela",
			"primitives":[
				{
					"attributes":{
						"POSITION":0,
						"NORMAL":1,
						"TEXCOORD_0":2
					},
					"indices":3,
					"material":0
				}
			]
		}
	],
	"textures":[
		{
			"sampler":0,
			"source":0
		}
	],
	"images":[
		{
			"mimeType":"image/png",
			"name":"ORN-08_atlas",
			"uri":"ORN-08_atlas.png"
		}
	],
	"accessors":[
		{
			"bufferView":0,
			"componentType":5126,
			"count":364,
			"max":[
				0.550000011920929,
				3.196516752243042,
				0.04999999701976776
			],
			"min":[
				-0.550000011920929,
				0,
				-0.04999999701976776
			],
			"type":"VEC3"
		},
		{
			"bufferView":1,
			"componentType":5126,
			"count":364,
			"type":"VEC3"
		},
		{
			"bufferView":2,
			"componentType":5126,
			"count":364,
			"type":"VEC2"
		},
		{
			"bufferView":3,
			"componentType":5123,
			"count":552,
			"type":"SCALAR"
		}
	],
	"bufferViews":[
		{
			"buffer":0,
			"byteLength":4368,
			"byteOffset":0,
			"target":34962
		},
		{
			"buffer":0,
			"byteLength":4368,
			"byteOffset":4368,
			"target":34962
		},
		{
			"buffer":0,
			"byteLength":2912,
			"byteOffset":8736,
			"target":34962
		},
		{
			"buffer":0,
			"byteLength":1104,
			"byteOffset":11648,
			"target":34963
		}
	],
	"samplers":[
		{
			"magFilter":9728,
			"minFilter":9984
		}
	],
	"buffers":[
		{
			"byteLength":12752,
			"uri":"ORN-08_Estandarte_de_La_Carabela.bin"
		}
	]
}
