{
	"asset":{
		"generator":"Khronos glTF Blender I/O v5.2.40",
		"version":"2.0"
	},
	"extensionsUsed":[
		"KHR_materials_specular"
	],
	"scene":0,
	"scenes":[
		{
			"extras":{
				"blendermcp_server_running":1
			},
			"name":"Scene",
			"nodes":[
				0
			]
		}
	],
	"nodes":[
		{
			"extras":{
				"huella_generada":"c2165e165fc7470c5edc3c471ffa73a4",
				"generado_por":"construir_ter02.py"
			},
			"mesh":0,
			"name":"TER-02_Losa_roto-col",
			"translation":[
				3.4000000953674316,
				0,
				3.4000000953674316
			]
		}
	],
	"materials":[
		{
			"doubleSided":true,
			"extensions":{
				"KHR_materials_specular":{
					"specularFactor":0.20000000298023224
				}
			},
			"name":"TER-02_Losa",
			"pbrMetallicRoughness":{
				"baseColorTexture":{
					"index":0
				},
				"metallicFactor":0,
				"roughnessFactor":0.949999988079071
			}
		}
	],
	"meshes":[
		{
			"name":"TER-02_Losa_roto.001",
			"primitives":[
				{
					"attributes":{
						"POSITION":0,
						"NORMAL":1,
						"TEXCOORD_0":2
					},
					"indices":3,
					"material":0
				}
			]
		}
	],
	"textures":[
		{
			"sampler":0,
			"source":0
		}
	],
	"images":[
		{
			"mimeType":"image/png",
			"name":"TER-02_textura",
			"uri":"TER-02_textura.png"
		}
	],
	"accessors":[
		{
			"bufferView":0,
			"componentType":5126,
			"count":380,
			"max":[
				1.5,
				0.4000000059604645,
				1.5524369478225708
			],
			"min":[
				-1.5,
				0,
				-1.5
			],
			"type":"VEC3"
		},
		{
			"bufferView":1,
			"componentType":5126,
			"count":380,
			"type":"VEC3"
		},
		{
			"bufferView":2,
			"componentType":5126,
			"count":380,
			"type":"VEC2"
		},
		{
			"bufferView":3,
			"componentType":5123,
			"count":636,
			"type":"SCALAR"
		}
	],
	"bufferViews":[
		{
			"buffer":0,
			"byteLength":4560,
			"byteOffset":0,
			"target":34962
		},
		{
			"buffer":0,
			"byteLength":4560,
			"byteOffset":4560,
			"target":34962
		},
		{
			"buffer":0,
			"byteLength":3040,
			"byteOffset":9120,
			"target":34962
		},
		{
			"buffer":0,
			"byteLength":1272,
			"byteOffset":12160,
			"target":34963
		}
	],
	"samplers":[
		{
			"magFilter":9728,
			"minFilter":9984
		}
	],
	"buffers":[
		{
			"byteLength":13432,
			"uri":"TER-02_Losa_roto.bin"
		}
	]
}
