{
	"asset":{
		"generator":"Khronos glTF Blender I/O v5.2.40",
		"version":"2.0"
	},
	"extensionsUsed":[
		"KHR_lights_punctual",
		"KHR_materials_emissive_strength",
		"KHR_materials_specular"
	],
	"extensionsRequired":[
		"KHR_lights_punctual"
	],
	"extensions":{
		"KHR_lights_punctual":{
			"lights":[
				{
					"color":[
						1,
						0.9200000166893005,
						0.41999998688697815
					],
					"intensity":1195.7310874494096,
					"type":"point",
					"name":"MOB-06_Farol_portatil_luz"
				}
			]
		}
	},
	"scene":0,
	"scenes":[
		{
			"name":"Scene",
			"nodes":[
				1,
				2
			]
		}
	],
	"nodes":[
		{
			"extensions":{
				"KHR_lights_punctual":{
					"light":0
				}
			},
			"name":"MOB-06_Farol_portatil_luz",
			"rotation":[
				-0.7071068286895752,
				0,
				0,
				0.7071068286895752
			],
			"translation":[
				0,
				0.1679999977350235,
				0
			]
		},
		{
			"children":[
				0
			],
			"extras":{
				"huella_generada":"a046e70e50c6a860db88ee879a6fb236",
				"generado_por":"construir_mob06.py",
				"masa_kg":1.8,
				"luz_w":22.0,
				"emision":1.6
			},
			"mesh":0,
			"name":"MOB-06_Farol_portatil"
		},
		{
			"mesh":1,
			"name":"MOB-06_Farol_portatil-convcolonly"
		}
	],
	"materials":[
		{
			"doubleSided":true,
			"emissiveFactor":[
				1,
				1,
				1
			],
			"emissiveTexture":{
				"index":0
			},
			"extensions":{
				"KHR_materials_emissive_strength":{
					"emissiveStrength":1.600000023841858
				},
				"KHR_materials_specular":{
					"specularFactor":0.800000011920929
				}
			},
			"name":"MOB-06_Farol_portatil",
			"pbrMetallicRoughness":{
				"baseColorTexture":{
					"index":1
				},
				"metallicFactor":0,
				"roughnessFactor":0.5799999833106995
			}
		}
	],
	"meshes":[
		{
			"name":"MOB-06_Farol_portatil",
			"primitives":[
				{
					"attributes":{
						"POSITION":0,
						"NORMAL":1,
						"TEXCOORD_0":2
					},
					"indices":3,
					"material":0
				}
			]
		},
		{
			"name":"MOB-06_Farol_portatil-convcolonly",
			"primitives":[
				{
					"attributes":{
						"POSITION":4,
						"NORMAL":5
					},
					"indices":6
				}
			]
		}
	],
	"textures":[
		{
			"sampler":0,
			"source":0
		},
		{
			"sampler":0,
			"source":0
		}
	],
	"images":[
		{
			"mimeType":"image/png",
			"name":"MOB-06_atlas",
			"uri":"MOB-06_atlas.png"
		}
	],
	"accessors":[
		{
			"bufferView":0,
			"componentType":5126,
			"count":656,
			"max":[
				0.08648677915334702,
				0.3501364588737488,
				0.08498060703277588
			],
			"min":[
				-0.08648677915334702,
				0,
				-0.08498060703277588
			],
			"type":"VEC3"
		},
		{
			"bufferView":1,
			"componentType":5126,
			"count":656,
			"type":"VEC3"
		},
		{
			"bufferView":2,
			"componentType":5126,
			"count":656,
			"type":"VEC2"
		},
		{
			"bufferView":3,
			"componentType":5123,
			"count":996,
			"type":"SCALAR"
		},
		{
			"bufferView":4,
			"componentType":5126,
			"count":224,
			"max":[
				0.0820000022649765,
				0.3402227759361267,
				0.0820000022649765
			],
			"min":[
				-0.0820000022649765,
				0,
				-0.0820000022649765
			],
			"type":"VEC3"
		},
		{
			"bufferView":5,
			"componentType":5126,
			"count":224,
			"type":"VEC3"
		},
		{
			"bufferView":6,
			"componentType":5123,
			"count":234,
			"type":"SCALAR"
		}
	],
	"bufferViews":[
		{
			"buffer":0,
			"byteLength":7872,
			"byteOffset":0,
			"target":34962
		},
		{
			"buffer":0,
			"byteLength":7872,
			"byteOffset":7872,
			"target":34962
		},
		{
			"buffer":0,
			"byteLength":5248,
			"byteOffset":15744,
			"target":34962
		},
		{
			"buffer":0,
			"byteLength":1992,
			"byteOffset":20992,
			"target":34963
		},
		{
			"buffer":0,
			"byteLength":2688,
			"byteOffset":22984,
			"target":34962
		},
		{
			"buffer":0,
			"byteLength":2688,
			"byteOffset":25672,
			"target":34962
		},
		{
			"buffer":0,
			"byteLength":468,
			"byteOffset":28360,
			"target":34963
		}
	],
	"samplers":[
		{
			"magFilter":9728,
			"minFilter":9984
		}
	],
	"buffers":[
		{
			"byteLength":28828,
			"uri":"MOB-06_Farol_portatil.bin"
		}
	]
}
