{
	"asset":{
		"generator":"Khronos glTF Blender I/O v5.2.40",
		"version":"2.0"
	},
	"extensionsUsed":[
		"KHR_materials_specular"
	],
	"scene":0,
	"scenes":[
		{
			"name":"Scene",
			"nodes":[
				0
			]
		}
	],
	"nodes":[
		{
			"mesh":0,
			"name":"TER-01_Roca_de_marea_b"
		}
	],
	"materials":[
		{
			"doubleSided":true,
			"extensions":{
				"KHR_materials_specular":{
					"specularFactor":0.23999999463558197
				}
			},
			"name":"TER-01_piedra",
			"pbrMetallicRoughness":{
				"baseColorTexture":{
					"index":0
				},
				"metallicFactor":0,
				"roughnessFactor":0.949999988079071
			}
		},
		{
			"doubleSided":true,
			"extensions":{
				"KHR_materials_specular":{
					"specularFactor":0.23999999463558197
				}
			},
			"name":"TER-01_sal",
			"pbrMetallicRoughness":{
				"baseColorTexture":{
					"index":1
				},
				"metallicFactor":0,
				"roughnessFactor":0.8199999928474426
			}
		}
	],
	"meshes":[
		{
			"name":"TER-01_Roca_de_marea_b",
			"primitives":[
				{
					"attributes":{
						"POSITION":0,
						"NORMAL":1,
						"TEXCOORD_0":2
					},
					"indices":3,
					"material":0
				},
				{
					"attributes":{
						"POSITION":4,
						"NORMAL":5,
						"TEXCOORD_0":6
					},
					"indices":7,
					"material":1
				}
			]
		}
	],
	"textures":[
		{
			"sampler":0,
			"source":0
		},
		{
			"sampler":0,
			"source":1
		}
	],
	"images":[
		{
			"mimeType":"image/png",
			"name":"ter01_piedra",
			"uri":"ter01_piedra.png"
		},
		{
			"mimeType":"image/png",
			"name":"ter01_sal",
			"uri":"ter01_sal.png"
		}
	],
	"accessors":[
		{
			"bufferView":0,
			"componentType":5126,
			"count":579,
			"max":[
				1.1196579933166504,
				1.850000023841858,
				0.8942108750343323
			],
			"min":[
				-1.1335991621017456,
				0,
				-1
			],
			"type":"VEC3"
		},
		{
			"bufferView":1,
			"componentType":5126,
			"count":579,
			"type":"VEC3"
		},
		{
			"bufferView":2,
			"componentType":5126,
			"count":579,
			"type":"VEC2"
		},
		{
			"bufferView":3,
			"componentType":5123,
			"count":852,
			"type":"SCALAR"
		},
		{
			"bufferView":4,
			"componentType":5126,
			"count":72,
			"max":[
				1.0023014545440674,
				1.6236000061035156,
				0.7521442174911499
			],
			"min":[
				-0.916450023651123,
				0.6119999885559082,
				-0.7060173153877258
			],
			"type":"VEC3"
		},
		{
			"bufferView":5,
			"componentType":5126,
			"count":72,
			"type":"VEC3"
		},
		{
			"bufferView":6,
			"componentType":5126,
			"count":72,
			"type":"VEC2"
		},
		{
			"bufferView":7,
			"componentType":5123,
			"count":108,
			"type":"SCALAR"
		}
	],
	"bufferViews":[
		{
			"buffer":0,
			"byteLength":6948,
			"byteOffset":0,
			"target":34962
		},
		{
			"buffer":0,
			"byteLength":6948,
			"byteOffset":6948,
			"target":34962
		},
		{
			"buffer":0,
			"byteLength":4632,
			"byteOffset":13896,
			"target":34962
		},
		{
			"buffer":0,
			"byteLength":1704,
			"byteOffset":18528,
			"target":34963
		},
		{
			"buffer":0,
			"byteLength":864,
			"byteOffset":20232,
			"target":34962
		},
		{
			"buffer":0,
			"byteLength":864,
			"byteOffset":21096,
			"target":34962
		},
		{
			"buffer":0,
			"byteLength":576,
			"byteOffset":21960,
			"target":34962
		},
		{
			"buffer":0,
			"byteLength":216,
			"byteOffset":22536,
			"target":34963
		}
	],
	"samplers":[
		{
			"magFilter":9728,
			"minFilter":9984
		}
	],
	"buffers":[
		{
			"byteLength":22752,
			"uri":"TER-01_Roca_de_marea_b.bin"
		}
	]
}
