{
	"asset":{
		"generator":"Khronos glTF Blender I/O v5.2.40",
		"version":"2.0"
	},
	"extensionsUsed":[
		"KHR_lights_punctual",
		"KHR_materials_emissive_strength",
		"KHR_materials_specular"
	],
	"extensionsRequired":[
		"KHR_lights_punctual"
	],
	"extensions":{
		"KHR_lights_punctual":{
			"lights":[
				{
					"color":[
						1,
						0.9399999976158142,
						0.30000001192092896
					],
					"intensity":2445.8135879647016,
					"type":"point",
					"name":"ORN-07_Farol_de_sodio_luz"
				}
			]
		}
	},
	"scene":0,
	"scenes":[
		{
			"name":"Scene",
			"nodes":[
				1,
				2
			]
		}
	],
	"nodes":[
		{
			"extensions":{
				"KHR_lights_punctual":{
					"light":0
				}
			},
			"name":"ORN-07_Farol_de_sodio_luz",
			"rotation":[
				-0.7071068286895752,
				0,
				0,
				0.7071068286895752
			],
			"translation":[
				0,
				-0.17999999225139618,
				-0.2680000066757202
			]
		},
		{
			"children":[
				0
			],
			"extras":{
				"huella_generada":"0184c13ab724de3e4037f1d9982d6b9f",
				"generado_por":"construir_orn07.py",
				"luz_w":45.0,
				"emision":2.4
			},
			"mesh":0,
			"name":"ORN-07_Farol_de_sodio"
		},
		{
			"mesh":1,
			"name":"ORN-07_Farol_de_sodio-convcolonly"
		}
	],
	"materials":[
		{
			"doubleSided":true,
			"emissiveFactor":[
				1,
				1,
				1
			],
			"emissiveTexture":{
				"index":0
			},
			"extensions":{
				"KHR_materials_emissive_strength":{
					"emissiveStrength":2.4000000953674316
				},
				"KHR_materials_specular":{
					"specularFactor":0.8399999737739563
				}
			},
			"name":"ORN-07_Farol_de_sodio",
			"pbrMetallicRoughness":{
				"baseColorTexture":{
					"index":1
				},
				"metallicFactor":0,
				"roughnessFactor":0.5199999809265137
			}
		}
	],
	"meshes":[
		{
			"name":"ORN-07_Farol_de_sodio",
			"primitives":[
				{
					"attributes":{
						"POSITION":0,
						"NORMAL":1,
						"TEXCOORD_0":2
					},
					"indices":3,
					"material":0
				}
			]
		},
		{
			"name":"ORN-07_Farol_de_sodio-convcolonly",
			"primitives":[
				{
					"attributes":{
						"POSITION":4,
						"NORMAL":5
					},
					"indices":6
				}
			]
		}
	],
	"textures":[
		{
			"sampler":0,
			"source":0
		},
		{
			"sampler":0,
			"source":0
		}
	],
	"images":[
		{
			"mimeType":"image/png",
			"name":"ORN-07_atlas",
			"uri":"ORN-07_atlas.png"
		}
	],
	"accessors":[
		{
			"bufferView":0,
			"componentType":5126,
			"count":421,
			"max":[
				0.21199999749660492,
				0.16500000655651093,
				0
			],
			"min":[
				-0.21199999749660492,
				-0.5699999928474426,
				-0.48000001907348633
			],
			"type":"VEC3"
		},
		{
			"bufferView":1,
			"componentType":5126,
			"count":421,
			"type":"VEC3"
		},
		{
			"bufferView":2,
			"componentType":5126,
			"count":421,
			"type":"VEC2"
		},
		{
			"bufferView":3,
			"componentType":5123,
			"count":645,
			"type":"SCALAR"
		},
		{
			"bufferView":4,
			"componentType":5126,
			"count":194,
			"max":[
				0.21199999749660492,
				0.16500000655651093,
				0
			],
			"min":[
				-0.21199999749660492,
				-0.5699999928474426,
				-0.48000001907348633
			],
			"type":"VEC3"
		},
		{
			"bufferView":5,
			"componentType":5126,
			"count":194,
			"type":"VEC3"
		},
		{
			"bufferView":6,
			"componentType":5123,
			"count":240,
			"type":"SCALAR"
		}
	],
	"bufferViews":[
		{
			"buffer":0,
			"byteLength":5052,
			"byteOffset":0,
			"target":34962
		},
		{
			"buffer":0,
			"byteLength":5052,
			"byteOffset":5052,
			"target":34962
		},
		{
			"buffer":0,
			"byteLength":3368,
			"byteOffset":10104,
			"target":34962
		},
		{
			"buffer":0,
			"byteLength":1290,
			"byteOffset":13472,
			"target":34963
		},
		{
			"buffer":0,
			"byteLength":2328,
			"byteOffset":14764,
			"target":34962
		},
		{
			"buffer":0,
			"byteLength":2328,
			"byteOffset":17092,
			"target":34962
		},
		{
			"buffer":0,
			"byteLength":480,
			"byteOffset":19420,
			"target":34963
		}
	],
	"samplers":[
		{
			"magFilter":9728,
			"minFilter":9984
		}
	],
	"buffers":[
		{
			"byteLength":19900,
			"uri":"ORN-07_Farol_de_sodio.bin"
		}
	]
}
