{
	"asset":{
		"generator":"Khronos glTF Blender I/O v5.2.40",
		"version":"2.0"
	},
	"extensionsUsed":[
		"KHR_materials_specular"
	],
	"scene":0,
	"scenes":[
		{
			"name":"Scene",
			"nodes":[
				0
			]
		}
	],
	"nodes":[
		{
			"extras":{
				"huella_generada":"965ebea77851d21cb0d3e89e3108a0c5",
				"generado_por":"construir_pla01.py",
				"colision":"trimalla",
				"cota_tablero":0.1,
				"modulo_m":4.0,
				"ancho_util":12.0,
				"veces_la_calzada":6.67
			},
			"mesh":0,
			"name":"PLA-01_Plaza_de_cubierta-col"
		}
	],
	"materials":[
		{
			"doubleSided":true,
			"extensions":{
				"KHR_materials_specular":{
					"specularFactor":0.5600000023841858
				}
			},
			"name":"PUE_kit",
			"pbrMetallicRoughness":{
				"baseColorTexture":{
					"index":0
				},
				"metallicFactor":0,
				"roughnessFactor":0.800000011920929
			}
		}
	],
	"meshes":[
		{
			"name":"PLA-01_Plaza_de_cubierta",
			"primitives":[
				{
					"attributes":{
						"POSITION":0,
						"NORMAL":1,
						"TEXCOORD_0":2
					},
					"indices":3,
					"material":0
				}
			]
		}
	],
	"textures":[
		{
			"sampler":0,
			"source":0
		}
	],
	"images":[
		{
			"mimeType":"image/png",
			"name":"PUE_atlas",
			"uri":"PUE_atlas.png"
		}
	],
	"accessors":[
		{
			"bufferView":0,
			"componentType":5126,
			"count":582,
			"max":[
				2,
				1.0850000381469727,
				6.039999961853027
			],
			"min":[
				-2,
				-0.9300000071525574,
				-6.039999961853027
			],
			"type":"VEC3"
		},
		{
			"bufferView":1,
			"componentType":5126,
			"count":582,
			"type":"VEC3"
		},
		{
			"bufferView":2,
			"componentType":5126,
			"count":582,
			"type":"VEC2"
		},
		{
			"bufferView":3,
			"componentType":5123,
			"count":876,
			"type":"SCALAR"
		}
	],
	"bufferViews":[
		{
			"buffer":0,
			"byteLength":6984,
			"byteOffset":0,
			"target":34962
		},
		{
			"buffer":0,
			"byteLength":6984,
			"byteOffset":6984,
			"target":34962
		},
		{
			"buffer":0,
			"byteLength":4656,
			"byteOffset":13968,
			"target":34962
		},
		{
			"buffer":0,
			"byteLength":1752,
			"byteOffset":18624,
			"target":34963
		}
	],
	"samplers":[
		{
			"magFilter":9728,
			"minFilter":9984
		}
	],
	"buffers":[
		{
			"byteLength":20376,
			"uri":"PLA-01_Plaza_de_cubierta.bin"
		}
	]
}
