{
	"asset":{
		"generator":"Khronos glTF Blender I/O v5.2.40",
		"version":"2.0"
	},
	"extensionsUsed":[
		"KHR_materials_specular"
	],
	"scene":0,
	"scenes":[
		{
			"name":"Scene",
			"nodes":[
				0
			]
		}
	],
	"nodes":[
		{
			"extras":{
				"huella_generada":"4c6c31666dceea9b51dcf834a30db739",
				"generado_por":"construir_ind06.py"
			},
			"mesh":0,
			"name":"IND-06_Escalera_de_gato-col"
		}
	],
	"materials":[
		{
			"doubleSided":true,
			"extensions":{
				"KHR_materials_specular":{
					"specularFactor":0.6800000071525574
				}
			},
			"name":"IND-06_Escalera_de_gato",
			"pbrMetallicRoughness":{
				"baseColorTexture":{
					"index":0
				},
				"metallicFactor":0,
				"roughnessFactor":0.7200000286102295
			}
		}
	],
	"meshes":[
		{
			"name":"IND-06_Escalera_de_gato",
			"primitives":[
				{
					"attributes":{
						"POSITION":0,
						"NORMAL":1,
						"TEXCOORD_0":2
					},
					"indices":3,
					"material":0
				}
			]
		}
	],
	"textures":[
		{
			"sampler":0,
			"source":0
		}
	],
	"images":[
		{
			"mimeType":"image/png",
			"name":"IND-06_atlas",
			"uri":"IND-06_atlas.png"
		}
	],
	"accessors":[
		{
			"bufferView":0,
			"componentType":5126,
			"count":604,
			"max":[
				0.3063926100730896,
				3,
				0.08500000089406967
			],
			"min":[
				-0.3063926100730896,
				0,
				-0.3823137879371643
			],
			"type":"VEC3"
		},
		{
			"bufferView":1,
			"componentType":5126,
			"count":604,
			"type":"VEC3"
		},
		{
			"bufferView":2,
			"componentType":5126,
			"count":604,
			"type":"VEC2"
		},
		{
			"bufferView":3,
			"componentType":5123,
			"count":1032,
			"type":"SCALAR"
		}
	],
	"bufferViews":[
		{
			"buffer":0,
			"byteLength":7248,
			"byteOffset":0,
			"target":34962
		},
		{
			"buffer":0,
			"byteLength":7248,
			"byteOffset":7248,
			"target":34962
		},
		{
			"buffer":0,
			"byteLength":4832,
			"byteOffset":14496,
			"target":34962
		},
		{
			"buffer":0,
			"byteLength":2064,
			"byteOffset":19328,
			"target":34963
		}
	],
	"samplers":[
		{
			"magFilter":9728,
			"minFilter":9984
		}
	],
	"buffers":[
		{
			"byteLength":21392,
			"uri":"IND-06_Escalera_de_gato.bin"
		}
	]
}
