{
	"asset":{
		"generator":"Khronos glTF Blender I/O v5.2.40",
		"version":"2.0"
	},
	"extensionsUsed":[
		"KHR_materials_specular"
	],
	"scene":0,
	"scenes":[
		{
			"name":"Scene",
			"nodes":[
				0
			]
		}
	],
	"nodes":[
		{
			"extras":{
				"huella_generada":"5767be8fafd49b20deecc1ea46e7f7ab",
				"generado_por":"construir_tor03.py",
				"colision":"trimalla",
				"cota_marea":1.08
			},
			"mesh":0,
			"name":"TOR-03_Arranque_de_marea-col"
		}
	],
	"materials":[
		{
			"doubleSided":true,
			"extensions":{
				"KHR_materials_specular":{
					"specularFactor":0.36000001430511475
				}
			},
			"name":"TOR-03_Arranque_de_marea",
			"pbrMetallicRoughness":{
				"baseColorTexture":{
					"index":0
				},
				"metallicFactor":0,
				"roughnessFactor":0.8999999761581421
			}
		}
	],
	"meshes":[
		{
			"name":"TOR-03_Arranque_de_marea",
			"primitives":[
				{
					"attributes":{
						"POSITION":0,
						"NORMAL":1,
						"TEXCOORD_0":2
					},
					"indices":3,
					"material":0
				}
			]
		}
	],
	"textures":[
		{
			"sampler":0,
			"source":0
		}
	],
	"images":[
		{
			"mimeType":"image/png",
			"name":"TOR-03_atlas",
			"uri":"TOR-03_atlas.png"
		}
	],
	"accessors":[
		{
			"bufferView":0,
			"componentType":5126,
			"count":736,
			"max":[
				2.799999952316284,
				3,
				2.799999952316284
			],
			"min":[
				-2.799999952316284,
				0,
				-2.799999952316284
			],
			"type":"VEC3"
		},
		{
			"bufferView":1,
			"componentType":5126,
			"count":736,
			"type":"VEC3"
		},
		{
			"bufferView":2,
			"componentType":5126,
			"count":736,
			"type":"VEC2"
		},
		{
			"bufferView":3,
			"componentType":5123,
			"count":1242,
			"type":"SCALAR"
		}
	],
	"bufferViews":[
		{
			"buffer":0,
			"byteLength":8832,
			"byteOffset":0,
			"target":34962
		},
		{
			"buffer":0,
			"byteLength":8832,
			"byteOffset":8832,
			"target":34962
		},
		{
			"buffer":0,
			"byteLength":5888,
			"byteOffset":17664,
			"target":34962
		},
		{
			"buffer":0,
			"byteLength":2484,
			"byteOffset":23552,
			"target":34963
		}
	],
	"samplers":[
		{
			"magFilter":9728,
			"minFilter":9984
		}
	],
	"buffers":[
		{
			"byteLength":26036,
			"uri":"TOR-03_Arranque_de_marea.bin"
		}
	]
}
