{
	"asset":{
		"generator":"Khronos glTF Blender I/O v5.2.40",
		"version":"2.0"
	},
	"extensionsUsed":[
		"KHR_materials_specular"
	],
	"scene":0,
	"scenes":[
		{
			"name":"Scene",
			"nodes":[
				0
			]
		}
	],
	"nodes":[
		{
			"extras":{
				"huella_generada":"c24f7778163fd09fb1b9756ecdd30e91",
				"generado_por":"construir_pue05.py",
				"colision":"trimalla",
				"cota_cubierta":0.1,
				"radio_hueco":2.52,
				"es_extraccion":true
			},
			"mesh":0,
			"name":"PUE-05_Plataforma_central-col"
		}
	],
	"materials":[
		{
			"doubleSided":true,
			"extensions":{
				"KHR_materials_specular":{
					"specularFactor":0.5600000023841858
				}
			},
			"name":"PUE_kit",
			"pbrMetallicRoughness":{
				"baseColorTexture":{
					"index":0
				},
				"metallicFactor":0,
				"roughnessFactor":0.800000011920929
			}
		}
	],
	"meshes":[
		{
			"name":"PUE-05_Plataforma_central",
			"primitives":[
				{
					"attributes":{
						"POSITION":0,
						"NORMAL":1,
						"TEXCOORD_0":2
					},
					"indices":3,
					"material":0
				}
			]
		}
	],
	"textures":[
		{
			"sampler":0,
			"source":0
		}
	],
	"images":[
		{
			"mimeType":"image/png",
			"name":"PUE_atlas",
			"uri":"PUE_atlas.png"
		}
	],
	"accessors":[
		{
			"bufferView":0,
			"componentType":5126,
			"count":688,
			"max":[
				5,
				0.25999999046325684,
				5
			],
			"min":[
				-5,
				-0.3799999952316284,
				-5
			],
			"type":"VEC3"
		},
		{
			"bufferView":1,
			"componentType":5126,
			"count":688,
			"type":"VEC3"
		},
		{
			"bufferView":2,
			"componentType":5126,
			"count":688,
			"type":"VEC2"
		},
		{
			"bufferView":3,
			"componentType":5123,
			"count":1248,
			"type":"SCALAR"
		}
	],
	"bufferViews":[
		{
			"buffer":0,
			"byteLength":8256,
			"byteOffset":0,
			"target":34962
		},
		{
			"buffer":0,
			"byteLength":8256,
			"byteOffset":8256,
			"target":34962
		},
		{
			"buffer":0,
			"byteLength":5504,
			"byteOffset":16512,
			"target":34962
		},
		{
			"buffer":0,
			"byteLength":2496,
			"byteOffset":22016,
			"target":34963
		}
	],
	"samplers":[
		{
			"magFilter":9728,
			"minFilter":9984
		}
	],
	"buffers":[
		{
			"byteLength":24512,
			"uri":"PUE-05_Plataforma_central.bin"
		}
	]
}
