{
	"asset":{
		"generator":"Khronos glTF Blender I/O v5.2.40",
		"version":"2.0"
	},
	"extensionsUsed":[
		"KHR_materials_specular"
	],
	"scene":0,
	"scenes":[
		{
			"name":"Scene",
			"nodes":[
				0
			]
		}
	],
	"nodes":[
		{
			"extras":{
				"huella_generada":"f33611c65659e58dedd7e0a651fc6068",
				"generado_por":"construir_orn02.py",
				"colision":"convexa",
				"alternar_espejo":true,
				"separacion_m":4.0
			},
			"mesh":0,
			"name":"ORN-02_Pilastra_con_relieve-convcol"
		}
	],
	"materials":[
		{
			"doubleSided":true,
			"extensions":{
				"KHR_materials_specular":{
					"specularFactor":0.36000001430511475
				}
			},
			"name":"ORN-02_Pilastra_con_relieve",
			"pbrMetallicRoughness":{
				"baseColorTexture":{
					"index":0
				},
				"metallicFactor":0,
				"roughnessFactor":0.8799999952316284
			}
		}
	],
	"meshes":[
		{
			"name":"ORN-02_Pilastra_con_relieve",
			"primitives":[
				{
					"attributes":{
						"POSITION":0,
						"NORMAL":1,
						"TEXCOORD_0":2
					},
					"indices":3,
					"material":0
				}
			]
		}
	],
	"textures":[
		{
			"sampler":0,
			"source":0
		}
	],
	"images":[
		{
			"mimeType":"image/png",
			"name":"ORN-02_atlas",
			"uri":"ORN-02_atlas.png"
		}
	],
	"accessors":[
		{
			"bufferView":0,
			"componentType":5126,
			"count":827,
			"max":[
				0.4000000059604645,
				4,
				0
			],
			"min":[
				-0.4000000059604645,
				0,
				-0.5024880766868591
			],
			"type":"VEC3"
		},
		{
			"bufferView":1,
			"componentType":5126,
			"count":827,
			"type":"VEC3"
		},
		{
			"bufferView":2,
			"componentType":5126,
			"count":827,
			"type":"VEC2"
		},
		{
			"bufferView":3,
			"componentType":5123,
			"count":1227,
			"type":"SCALAR"
		}
	],
	"bufferViews":[
		{
			"buffer":0,
			"byteLength":9924,
			"byteOffset":0,
			"target":34962
		},
		{
			"buffer":0,
			"byteLength":9924,
			"byteOffset":9924,
			"target":34962
		},
		{
			"buffer":0,
			"byteLength":6616,
			"byteOffset":19848,
			"target":34962
		},
		{
			"buffer":0,
			"byteLength":2454,
			"byteOffset":26464,
			"target":34963
		}
	],
	"samplers":[
		{
			"magFilter":9728,
			"minFilter":9984
		}
	],
	"buffers":[
		{
			"byteLength":28920,
			"uri":"ORN-02_Pilastra_con_relieve.bin"
		}
	]
}
