{
	"asset":{
		"generator":"Khronos glTF Blender I/O v5.2.40",
		"version":"2.0"
	},
	"extensionsUsed":[
		"KHR_materials_specular"
	],
	"scene":0,
	"scenes":[
		{
			"name":"Scene",
			"nodes":[
				0,
				1
			]
		}
	],
	"nodes":[
		{
			"extras":{
				"huella_generada":"6e2d99f55d07678c65328eea8dd8f6ee",
				"generado_por":"construir_nie05.py",
				"emision":0.7,
				"late":false
			},
			"mesh":0,
			"name":"NIE-05_Bulbo_de_esporas"
		},
		{
			"mesh":1,
			"name":"NIE-05_Bulbo_de_esporas-convcolonly"
		}
	],
	"materials":[
		{
			"doubleSided":true,
			"emissiveFactor":[
				0.699999988079071,
				0.699999988079071,
				0.699999988079071
			],
			"emissiveTexture":{
				"index":0
			},
			"extensions":{
				"KHR_materials_specular":{
					"specularFactor":0.3199999928474426
				}
			},
			"name":"NIE-05_Bulbo_de_esporas",
			"pbrMetallicRoughness":{
				"baseColorTexture":{
					"index":1
				},
				"metallicFactor":0,
				"roughnessFactor":0.800000011920929
			}
		}
	],
	"meshes":[
		{
			"name":"NIE-05_Bulbo_de_esporas",
			"primitives":[
				{
					"attributes":{
						"POSITION":0,
						"NORMAL":1,
						"TEXCOORD_0":2
					},
					"indices":3,
					"material":0
				}
			]
		},
		{
			"name":"NIE-05_Bulbo_de_esporas-convcolonly",
			"primitives":[
				{
					"attributes":{
						"POSITION":4,
						"NORMAL":5
					},
					"indices":6
				}
			]
		}
	],
	"textures":[
		{
			"sampler":0,
			"source":0
		},
		{
			"sampler":0,
			"source":0
		}
	],
	"images":[
		{
			"mimeType":"image/png",
			"name":"NIE-05_atlas",
			"uri":"NIE-05_atlas.png"
		}
	],
	"accessors":[
		{
			"bufferView":0,
			"componentType":5126,
			"count":1080,
			"max":[
				0.4442138075828552,
				1.2999999523162842,
				0.4442138075828552
			],
			"min":[
				-0.4442138075828552,
				0,
				-0.4442138075828552
			],
			"type":"VEC3"
		},
		{
			"bufferView":1,
			"componentType":5126,
			"count":1080,
			"type":"VEC3"
		},
		{
			"bufferView":2,
			"componentType":5126,
			"count":1080,
			"type":"VEC2"
		},
		{
			"bufferView":3,
			"componentType":5123,
			"count":1560,
			"type":"SCALAR"
		},
		{
			"bufferView":4,
			"componentType":5126,
			"count":150,
			"max":[
				0.4442138075828552,
				1.2999999523162842,
				0.4442138075828552
			],
			"min":[
				-0.4442138075828552,
				0,
				-0.4442138075828552
			],
			"type":"VEC3"
		},
		{
			"bufferView":5,
			"componentType":5126,
			"count":150,
			"type":"VEC3"
		},
		{
			"bufferView":6,
			"componentType":5123,
			"count":150,
			"type":"SCALAR"
		}
	],
	"bufferViews":[
		{
			"buffer":0,
			"byteLength":12960,
			"byteOffset":0,
			"target":34962
		},
		{
			"buffer":0,
			"byteLength":12960,
			"byteOffset":12960,
			"target":34962
		},
		{
			"buffer":0,
			"byteLength":8640,
			"byteOffset":25920,
			"target":34962
		},
		{
			"buffer":0,
			"byteLength":3120,
			"byteOffset":34560,
			"target":34963
		},
		{
			"buffer":0,
			"byteLength":1800,
			"byteOffset":37680,
			"target":34962
		},
		{
			"buffer":0,
			"byteLength":1800,
			"byteOffset":39480,
			"target":34962
		},
		{
			"buffer":0,
			"byteLength":300,
			"byteOffset":41280,
			"target":34963
		}
	],
	"samplers":[
		{
			"magFilter":9728,
			"minFilter":9984
		}
	],
	"buffers":[
		{
			"byteLength":41580,
			"uri":"NIE-05_Bulbo_de_esporas.bin"
		}
	]
}
