{
	"asset":{
		"generator":"Khronos glTF Blender I/O v5.2.40",
		"version":"2.0"
	},
	"extensionsUsed":[
		"KHR_materials_emissive_strength",
		"KHR_materials_specular"
	],
	"scene":0,
	"scenes":[
		{
			"name":"Scene",
			"nodes":[
				0
			]
		}
	],
	"nodes":[
		{
			"extras":{
				"huella_generada":"3ab38e80d2e85f4fefa979d0e921c764",
				"generado_por":"construir_ind01.py",
				"emision_rearmado":2.2,
				"emision_apagado":0.0
			},
			"mesh":0,
			"name":"IND-01_Caja_de_energia-convcol"
		}
	],
	"materials":[
		{
			"doubleSided":true,
			"emissiveFactor":[
				1,
				1,
				1
			],
			"emissiveTexture":{
				"index":0
			},
			"extensions":{
				"KHR_materials_emissive_strength":{
					"emissiveStrength":2.200000047683716
				},
				"KHR_materials_specular":{
					"specularFactor":0.5600000023841858
				}
			},
			"name":"IND-01_Caja_de_energia",
			"pbrMetallicRoughness":{
				"baseColorTexture":{
					"index":1
				},
				"metallicFactor":0,
				"roughnessFactor":0.7400000095367432
			}
		}
	],
	"meshes":[
		{
			"name":"IND-01_Caja_de_energia",
			"primitives":[
				{
					"attributes":{
						"POSITION":0,
						"NORMAL":1,
						"TEXCOORD_0":2
					},
					"indices":3,
					"material":0
				}
			]
		}
	],
	"textures":[
		{
			"sampler":0,
			"source":0
		},
		{
			"sampler":0,
			"source":0
		}
	],
	"images":[
		{
			"mimeType":"image/png",
			"name":"IND-01_atlas",
			"uri":"IND-01_atlas.png"
		}
	],
	"accessors":[
		{
			"bufferView":0,
			"componentType":5126,
			"count":808,
			"max":[
				0.44999998807907104,
				1.5,
				0.7803554534912109
			],
			"min":[
				-0.7022184729576111,
				0,
				-0.4000000059604645
			],
			"type":"VEC3"
		},
		{
			"bufferView":1,
			"componentType":5126,
			"count":808,
			"type":"VEC3"
		},
		{
			"bufferView":2,
			"componentType":5126,
			"count":808,
			"type":"VEC2"
		},
		{
			"bufferView":3,
			"componentType":5123,
			"count":1224,
			"type":"SCALAR"
		}
	],
	"bufferViews":[
		{
			"buffer":0,
			"byteLength":9696,
			"byteOffset":0,
			"target":34962
		},
		{
			"buffer":0,
			"byteLength":9696,
			"byteOffset":9696,
			"target":34962
		},
		{
			"buffer":0,
			"byteLength":6464,
			"byteOffset":19392,
			"target":34962
		},
		{
			"buffer":0,
			"byteLength":2448,
			"byteOffset":25856,
			"target":34963
		}
	],
	"samplers":[
		{
			"magFilter":9728,
			"minFilter":9984
		}
	],
	"buffers":[
		{
			"byteLength":28304,
			"uri":"IND-01_Caja_de_energia.bin"
		}
	]
}
