{
	"asset":{
		"generator":"Khronos glTF Blender I/O v5.2.40",
		"version":"2.0"
	},
	"extensionsUsed":[
		"KHR_materials_specular"
	],
	"scene":0,
	"scenes":[
		{
			"name":"Scene",
			"nodes":[
				0
			]
		}
	],
	"nodes":[
		{
			"extras":{
				"huella_generada":"0d2ac1a4dbf37ac764af375ffbe31200",
				"generado_por":"construir_orn06.py",
				"hueco":[
					1.44,
					0.96,
					0.46
				]
			},
			"mesh":0,
			"name":"ORN-06_Hornacina-col"
		}
	],
	"materials":[
		{
			"doubleSided":true,
			"extensions":{
				"KHR_materials_specular":{
					"specularFactor":0.23999999463558197
				}
			},
			"name":"ORN-06_Hornacina",
			"pbrMetallicRoughness":{
				"baseColorTexture":{
					"index":0
				},
				"metallicFactor":0,
				"roughnessFactor":0.9399999976158142
			}
		}
	],
	"meshes":[
		{
			"name":"ORN-06_Hornacina",
			"primitives":[
				{
					"attributes":{
						"POSITION":0,
						"NORMAL":1,
						"TEXCOORD_0":2
					},
					"indices":3,
					"material":0
				}
			]
		}
	],
	"textures":[
		{
			"sampler":0,
			"source":0
		}
	],
	"images":[
		{
			"mimeType":"image/png",
			"name":"ORN-06_atlas",
			"uri":"ORN-06_atlas.png"
		}
	],
	"accessors":[
		{
			"bufferView":0,
			"componentType":5126,
			"count":403,
			"max":[
				0.6000000238418579,
				1.899999976158142,
				0.019999999552965164
			],
			"min":[
				-0.6000000238418579,
				0,
				-0.6000000238418579
			],
			"type":"VEC3"
		},
		{
			"bufferView":1,
			"componentType":5126,
			"count":403,
			"type":"VEC3"
		},
		{
			"bufferView":2,
			"componentType":5126,
			"count":403,
			"type":"VEC2"
		},
		{
			"bufferView":3,
			"componentType":5123,
			"count":702,
			"type":"SCALAR"
		}
	],
	"bufferViews":[
		{
			"buffer":0,
			"byteLength":4836,
			"byteOffset":0,
			"target":34962
		},
		{
			"buffer":0,
			"byteLength":4836,
			"byteOffset":4836,
			"target":34962
		},
		{
			"buffer":0,
			"byteLength":3224,
			"byteOffset":9672,
			"target":34962
		},
		{
			"buffer":0,
			"byteLength":1404,
			"byteOffset":12896,
			"target":34963
		}
	],
	"samplers":[
		{
			"magFilter":9728,
			"minFilter":9984
		}
	],
	"buffers":[
		{
			"byteLength":14300,
			"uri":"ORN-06_Hornacina.bin"
		}
	]
}
