{
	"asset":{
		"generator":"Khronos glTF Blender I/O v5.2.40",
		"version":"2.0"
	},
	"extensionsUsed":[
		"KHR_materials_specular"
	],
	"scene":0,
	"scenes":[
		{
			"name":"Scene",
			"nodes":[
				0
			]
		}
	],
	"nodes":[
		{
			"extras":{
				"huella_generada":"3df22a05e7dfe8dc697c52739a146ed5",
				"generado_por":"construir_nie02.py",
				"colision":"ninguna",
				"emision":0.3,
				"umbral_luminancia":0.55
			},
			"mesh":0,
			"name":"NIE-02_Embrollo_mural"
		}
	],
	"materials":[
		{
			"doubleSided":true,
			"emissiveFactor":[
				0.30000001192092896,
				0.30000001192092896,
				0.30000001192092896
			],
			"emissiveTexture":{
				"index":0
			},
			"extensions":{
				"KHR_materials_specular":{
					"specularFactor":0.6800000071525574
				}
			},
			"name":"NIE-02_Embrollo_mural",
			"pbrMetallicRoughness":{
				"baseColorTexture":{
					"index":1
				},
				"metallicFactor":0,
				"roughnessFactor":0.550000011920929
			}
		}
	],
	"meshes":[
		{
			"name":"NIE-02_Embrollo_mural",
			"primitives":[
				{
					"attributes":{
						"POSITION":0,
						"NORMAL":1,
						"TEXCOORD_0":2
					},
					"indices":3,
					"material":0
				}
			]
		}
	],
	"textures":[
		{
			"sampler":0,
			"source":0
		},
		{
			"sampler":0,
			"source":0
		}
	],
	"images":[
		{
			"mimeType":"image/png",
			"name":"NIE-02_atlas",
			"uri":"NIE-02_atlas.png"
		}
	],
	"accessors":[
		{
			"bufferView":0,
			"componentType":5126,
			"count":1140,
			"max":[
				1.5,
				0.12678813934326172,
				0.02042495459318161
			],
			"min":[
				-1.5,
				-0.38009434938430786,
				-0.17380188405513763
			],
			"type":"VEC3"
		},
		{
			"bufferView":1,
			"componentType":5126,
			"count":1140,
			"type":"VEC3"
		},
		{
			"bufferView":2,
			"componentType":5126,
			"count":1140,
			"type":"VEC2"
		},
		{
			"bufferView":3,
			"componentType":5123,
			"count":1716,
			"type":"SCALAR"
		}
	],
	"bufferViews":[
		{
			"buffer":0,
			"byteLength":13680,
			"byteOffset":0,
			"target":34962
		},
		{
			"buffer":0,
			"byteLength":13680,
			"byteOffset":13680,
			"target":34962
		},
		{
			"buffer":0,
			"byteLength":9120,
			"byteOffset":27360,
			"target":34962
		},
		{
			"buffer":0,
			"byteLength":3432,
			"byteOffset":36480,
			"target":34963
		}
	],
	"samplers":[
		{
			"magFilter":9728,
			"minFilter":9984
		}
	],
	"buffers":[
		{
			"byteLength":39912,
			"uri":"NIE-02_Embrollo_mural.bin"
		}
	]
}
