{
	"asset":{
		"generator":"Khronos glTF Blender I/O v5.2.40",
		"version":"2.0"
	},
	"extensionsUsed":[
		"KHR_lights_punctual",
		"KHR_materials_emissive_strength",
		"KHR_materials_specular"
	],
	"extensionsRequired":[
		"KHR_lights_punctual"
	],
	"extensions":{
		"KHR_lights_punctual":{
			"lights":[
				{
					"color":[
						1,
						0.9100000262260437,
						0.41999998688697815
					],
					"intensity":1413.1367397129386,
					"type":"point",
					"name":"SM13_sodio_0"
				},
				{
					"color":[
						1,
						0.9100000262260437,
						0.41999998688697815
					],
					"intensity":1413.1367397129386,
					"type":"point",
					"name":"SM13_sodio_1"
				},
				{
					"color":[
						1,
						0.9100000262260437,
						0.41999998688697815
					],
					"intensity":1413.1367397129386,
					"type":"point",
					"name":"SM13_sodio_2"
				},
				{
					"color":[
						1,
						0.9100000262260437,
						0.41999998688697815
					],
					"intensity":1413.1367397129386,
					"type":"point",
					"name":"SM13_sodio_3"
				}
			]
		}
	},
	"scene":0,
	"scenes":[
		{
			"extras":{
				"blendermcp_server_running":1
			},
			"name":"Scene",
			"nodes":[
				0,
				1,
				2,
				3,
				4
			]
		}
	],
	"nodes":[
		{
			"extensions":{
				"KHR_lights_punctual":{
					"light":0
				}
			},
			"name":"SM13_sodio_0",
			"rotation":[
				-0.7071068286895752,
				0,
				0,
				0.7071068286895752
			],
			"translation":[
				-0.7200000286102295,
				1.1327999830245972,
				0
			]
		},
		{
			"extensions":{
				"KHR_lights_punctual":{
					"light":1
				}
			},
			"name":"SM13_sodio_1",
			"rotation":[
				-0.7071068286895752,
				0,
				0,
				0.7071068286895752
			],
			"translation":[
				2.5999999046325684,
				1.1327999830245972,
				0
			]
		},
		{
			"extensions":{
				"KHR_lights_punctual":{
					"light":2
				}
			},
			"name":"SM13_sodio_2",
			"rotation":[
				-0.7071068286895752,
				0,
				0,
				0.7071068286895752
			],
			"translation":[
				6.400000095367432,
				1.1327999830245972,
				0
			]
		},
		{
			"extensions":{
				"KHR_lights_punctual":{
					"light":3
				}
			},
			"name":"SM13_sodio_3",
			"rotation":[
				-0.7071068286895752,
				0,
				0,
				0.7071068286895752
			],
			"translation":[
				9.800000190734863,
				1.1327999830245972,
				0
			]
		},
		{
			"extras":{
				"generado_por":"SM-13",
				"eslora":16.8,
				"razon":4.0,
				"branquia_z":0.5964027991436486,
				"rendija":0.5
			},
			"mesh":0,
			"name":"SM-13_Sumergible-col"
		}
	],
	"materials":[
		{
			"doubleSided":true,
			"extensions":{
				"KHR_materials_specular":{
					"specularFactor":0.3199999928474426
				}
			},
			"name":"SM-13_0",
			"pbrMetallicRoughness":{
				"baseColorTexture":{
					"index":0
				},
				"metallicFactor":0,
				"roughnessFactor":0.8799999952316284
			}
		},
		{
			"doubleSided":true,
			"emissiveFactor":[
				1,
				1,
				1
			],
			"emissiveTexture":{
				"index":1
			},
			"extensions":{
				"KHR_materials_emissive_strength":{
					"emissiveStrength":1.5
				},
				"KHR_materials_specular":{
					"specularFactor":0.3199999928474426
				}
			},
			"name":"SM-13_1",
			"pbrMetallicRoughness":{
				"baseColorTexture":{
					"index":2
				},
				"metallicFactor":0,
				"roughnessFactor":0.8799999952316284
			}
		}
	],
	"meshes":[
		{
			"name":"SM-13",
			"primitives":[
				{
					"attributes":{
						"POSITION":0,
						"NORMAL":1,
						"TEXCOORD_0":2
					},
					"indices":3,
					"material":0
				},
				{
					"attributes":{
						"POSITION":4,
						"NORMAL":5,
						"TEXCOORD_0":6
					},
					"indices":7,
					"material":1
				}
			]
		}
	],
	"textures":[
		{
			"sampler":0,
			"source":0
		},
		{
			"sampler":0,
			"source":1
		},
		{
			"sampler":0,
			"source":1
		}
	],
	"images":[
		{
			"mimeType":"image/png",
			"name":"SUM_casco",
			"uri":"SUM_casco.png"
		},
		{
			"mimeType":"image/png",
			"name":"SUM_dentro",
			"uri":"SUM_dentro.png"
		}
	],
	"accessors":[
		{
			"bufferView":0,
			"componentType":5126,
			"count":11061,
			"max":[
				15.541999816894531,
				2.619999885559082,
				2.2200000286102295
			],
			"min":[
				-2.365000009536743,
				-3.6524524688720703,
				-2.2200000286102295
			],
			"type":"VEC3"
		},
		{
			"bufferView":1,
			"componentType":5126,
			"count":11061,
			"type":"VEC3"
		},
		{
			"bufferView":2,
			"componentType":5126,
			"count":11061,
			"type":"VEC2"
		},
		{
			"bufferView":3,
			"componentType":5123,
			"count":16551,
			"type":"SCALAR"
		},
		{
			"bufferView":4,
			"componentType":5126,
			"count":4688,
			"max":[
				13.100000381469727,
				2.2699999809265137,
				1.9299999475479126
			],
			"min":[
				-1.5800000429153442,
				-1.9299999475479126,
				-1.9299999475479126
			],
			"type":"VEC3"
		},
		{
			"bufferView":5,
			"componentType":5126,
			"count":4688,
			"type":"VEC3"
		},
		{
			"bufferView":6,
			"componentType":5126,
			"count":4688,
			"type":"VEC2"
		},
		{
			"bufferView":7,
			"componentType":5123,
			"count":7020,
			"type":"SCALAR"
		}
	],
	"bufferViews":[
		{
			"buffer":0,
			"byteLength":132732,
			"byteOffset":0,
			"target":34962
		},
		{
			"buffer":0,
			"byteLength":132732,
			"byteOffset":132732,
			"target":34962
		},
		{
			"buffer":0,
			"byteLength":88488,
			"byteOffset":265464,
			"target":34962
		},
		{
			"buffer":0,
			"byteLength":33102,
			"byteOffset":353952,
			"target":34963
		},
		{
			"buffer":0,
			"byteLength":56256,
			"byteOffset":387056,
			"target":34962
		},
		{
			"buffer":0,
			"byteLength":56256,
			"byteOffset":443312,
			"target":34962
		},
		{
			"buffer":0,
			"byteLength":37504,
			"byteOffset":499568,
			"target":34962
		},
		{
			"buffer":0,
			"byteLength":14040,
			"byteOffset":537072,
			"target":34963
		}
	],
	"samplers":[
		{
			"magFilter":9728,
			"minFilter":9984
		}
	],
	"buffers":[
		{
			"byteLength":551112,
			"uri":"SM-13_Sumergible.bin"
		}
	]
}
