{
	"asset":{
		"generator":"Khronos glTF Blender I/O v5.2.40",
		"version":"2.0"
	},
	"extensionsUsed":[
		"KHR_materials_specular"
	],
	"scene":0,
	"scenes":[
		{
			"extras":{
				"blendermcp_server_running":1
			},
			"name":"Scene",
			"nodes":[
				0,
				1
			]
		}
	],
	"nodes":[
		{
			"extras":{
				"huella_generada":"60070676ea0f1a3be9bf646f2e128fd3",
				"generado_por":"construir_flo09.py"
			},
			"mesh":0,
			"name":"FLO-09_Palma_de_hierro"
		},
		{
			"mesh":1,
			"name":"FLO-09_Palma_de_hierro-convcolonly"
		}
	],
	"materials":[
		{
			"doubleSided":true,
			"extensions":{
				"KHR_materials_specular":{
					"specularFactor":0.2800000011920929
				}
			},
			"name":"FLO-09_Palma_de_hierro",
			"pbrMetallicRoughness":{
				"baseColorTexture":{
					"index":0
				},
				"metallicFactor":0,
				"roughnessFactor":0.9200000166893005
			}
		}
	],
	"meshes":[
		{
			"name":"FLO-09_Palma_de_hierro",
			"primitives":[
				{
					"attributes":{
						"POSITION":0,
						"NORMAL":1,
						"TEXCOORD_0":2
					},
					"indices":3,
					"material":0
				}
			]
		},
		{
			"name":"FLO-09_Palma_de_hierro-convcolonly",
			"primitives":[
				{
					"attributes":{
						"POSITION":4,
						"NORMAL":5
					},
					"indices":6
				}
			]
		}
	],
	"textures":[
		{
			"sampler":0,
			"source":0
		}
	],
	"images":[
		{
			"mimeType":"image/png",
			"name":"FLO-09_atlas",
			"uri":"FLO-09_atlas.png"
		}
	],
	"accessors":[
		{
			"bufferView":0,
			"componentType":5126,
			"count":1872,
			"max":[
				1.5318315029144287,
				4.172968864440918,
				1.382434606552124
			],
			"min":[
				-1.0075352191925049,
				-0.011675946414470673,
				-1.374367594718933
			],
			"type":"VEC3"
		},
		{
			"bufferView":1,
			"componentType":5126,
			"count":1872,
			"type":"VEC3"
		},
		{
			"bufferView":2,
			"componentType":5126,
			"count":1872,
			"type":"VEC2"
		},
		{
			"bufferView":3,
			"componentType":5123,
			"count":2946,
			"type":"SCALAR"
		},
		{
			"bufferView":4,
			"componentType":5126,
			"count":48,
			"max":[
				0.12001457810401917,
				1.2437175512313843,
				0.13816148042678833
			],
			"min":[
				-0.12001457810401917,
				-0.011675946414470673,
				-0.13816148042678833
			],
			"type":"VEC3"
		},
		{
			"bufferView":5,
			"componentType":5126,
			"count":48,
			"type":"VEC3"
		},
		{
			"bufferView":6,
			"componentType":5123,
			"count":84,
			"type":"SCALAR"
		}
	],
	"bufferViews":[
		{
			"buffer":0,
			"byteLength":22464,
			"byteOffset":0,
			"target":34962
		},
		{
			"buffer":0,
			"byteLength":22464,
			"byteOffset":22464,
			"target":34962
		},
		{
			"buffer":0,
			"byteLength":14976,
			"byteOffset":44928,
			"target":34962
		},
		{
			"buffer":0,
			"byteLength":5892,
			"byteOffset":59904,
			"target":34963
		},
		{
			"buffer":0,
			"byteLength":576,
			"byteOffset":65796,
			"target":34962
		},
		{
			"buffer":0,
			"byteLength":576,
			"byteOffset":66372,
			"target":34962
		},
		{
			"buffer":0,
			"byteLength":168,
			"byteOffset":66948,
			"target":34963
		}
	],
	"samplers":[
		{
			"magFilter":9728,
			"minFilter":9984
		}
	],
	"buffers":[
		{
			"byteLength":67116,
			"uri":"FLO-09_Palma_de_hierro.bin"
		}
	]
}
