{"accessors":[{"bufferView":0,"byteOffset":0,"componentType":5126,"count":24,"max":[0.5,0.5,0.5],"min":[-0.5,-0.5,-0.5],"normalized":false,"type":"VEC3"},{"bufferView":1,"byteOffset":0,"componentType":5126,"count":24,"max":[1,0,1,1],"min":[-1,-0.00001525925472,-1,1],"normalized":false,"type":"VEC4"},{"bufferView":2,"byteOffset":0,"componentType":5126,"count":24,"max":[1,1,1],"min":[-1,-1,-1],"normalized":false,"type":"VEC3"},{"bufferView":3,"byteOffset":0,"componentType":5126,"count":24,"max":[1,1],"min":[0,0],"normalized":false,"type":"VEC2"},{"bufferView":4,"byteOffset":0,"componentType":5123,"count":36,"max":[23],"min":[0],"normalized":false,"type":"SCALAR"},{"bufferView":5,"byteOffset":0,"componentType":5126,"count":1950,"max":[0.5,1,0.5],"min":[-0.5,-1,-0.5],"normalized":false,"type":"VEC3"},{"bufferView":6,"byteOffset":0,"componentType":5126,"count":1950,"max":[1,0,1,1],"min":[-1,-0.00002157951531,-1,1],"normalized":false,"type":"VEC4"},{"bufferView":7,"byteOffset":0,"componentType":5126,"count":1950,"max":[1,1,1],"min":[-1,-1,-1],"normalized":false,"type":"VEC3"},{"bufferView":8,"byteOffset":0,"componentType":5126,"count":1950,"max":[1,1],"min":[0,0],"normalized":false,"type":"VEC2"},{"bufferView":9,"byteOffset":0,"componentType":5123,"count":10368,"max":[1949],"min":[0],"normalized":false,"type":"SCALAR"}],"asset":{"generator":"Godot Engine v4.3.stable.official@77dcf97d82cbfe4e4615475fa52ca03da645dbd8","version":"2.0"},"bufferViews":[{"buffer":0,"byteLength":288,"byteOffset":0,"byteStride":12,"target":34962},{"buffer":0,"byteLength":384,"byteOffset":288,"byteStride":16,"target":34962},{"buffer":0,"byteLength":288,"byteOffset":672,"byteStride":12,"target":34962},{"buffer":0,"byteLength":192,"byteOffset":960,"byteStride":8,"target":34962},{"buffer":0,"byteLength":72,"byteOffset":1152,"target":34963},{"buffer":0,"byteLength":23400,"byteOffset":1224,"byteStride":12,"target":34962},{"buffer":0,"byteLength":31200,"byteOffset":24624,"byteStride":16,"target":34962},{"buffer":0,"byteLength":23400,"byteOffset":55824,"byteStride":12,"target":34962},{"buffer":0,"byteLength":15600,"byteOffset":79224,"byteStride":8,"target":34962},{"buffer":0,"byteLength":20736,"byteOffset":94824,"target":34963}],"buffers":[{"byteLength":115560,"uri":"world0.bin"}],"cameras":[{"perspective":{"yfov":1.30899691581726,"zfar":4000,"znear":0.0500000007450581},"type":"perspective"}],"extensions":{"OMI_physics_shape":{"shapes":[{"box":{"size":[1,1,1]},"type":"box"},{"capsule":{"height":2,"radius":0.5},"type":"capsule"}]}},"extensionsUsed":["GODOT_single_root","OMI_physics_body","OMI_physics_shape"],"materials":[{"extensions":{},"pbrMetallicRoughness":{"baseColorFactor":[0.99999988079071,0.99999988079071,0.99999988079071,1],"metallicFactor":0,"roughnessFactor":1}},{"extensions":{},"pbrMetallicRoughness":{"baseColorFactor":[0.99999988079071,0.99999988079071,0.99999988079071,1],"metallicFactor":0,"roughnessFactor":1}}],"meshes":[{"extras":{"targetNames":[]},"primitives":[{"attributes":{"NORMAL":2,"POSITION":0,"TANGENT":1,"TEXCOORD_0":3},"indices":4,"material":0,"mode":4}]},{"extras":{"targetNames":[]},"primitives":[{"attributes":{"NORMAL":7,"POSITION":5,"TANGENT":6,"TEXCOORD_0":8},"indices":9,"material":1,"mode":4}]}],"nodes":[{"children":[1,4],"name":"world"},{"children":[2],"extensions":{"OMI_physics_body":{"motion":{"type":"static"}}},"name":"StaticBody3D"},{"children":[3],"extensions":{"OMI_physics_body":{"collider":{"shape":0}}},"name":"CollisionShape3D","scale":[10,1,10]},{"mesh":0,"name":"MeshInstance3D"},{"children":[5,6,7],"extensions":{"OMI_physics_body":{"motion":{"type":"kinematic"}}},"name":"CharacterBody3D","translation":[2.54622006416321,1.68043005466461,0.665432989597321]},{"extensions":{"OMI_physics_body":{"collider":{"shape":1}}},"name":"CollisionShape3D2"},{"mesh":1,"name":"MeshInstance3D2"},{"children":[8],"name":"CameraPivot"},{"camera":0,"name":"Camera3D"}],"scene":0,"scenes":[{"nodes":[0]}]}