{
	"asset":{
		"generator":"Khronos glTF Blender I/O v5.2.40",
		"version":"2.0"
	},
	"extensionsUsed":[
		"KHR_materials_specular"
	],
	"scene":0,
	"scenes":[
		{
			"name":"Scene",
			"nodes":[
				0
			]
		}
	],
	"nodes":[
		{
			"extras":{
				"huella_generada":"7c318dd6cbc2698642e11820a084414b",
				"generado_por":"construir_ind08.py"
			},
			"mesh":0,
			"name":"IND-08_Bita_de_amarre-convcol"
		}
	],
	"materials":[
		{
			"doubleSided":true,
			"extensions":{
				"KHR_materials_specular":{
					"specularFactor":0.4399999976158142
				}
			},
			"name":"IND-08_Bita_de_amarre",
			"pbrMetallicRoughness":{
				"baseColorTexture":{
					"index":0
				},
				"metallicFactor":0,
				"roughnessFactor":0.8600000143051147
			}
		}
	],
	"meshes":[
		{
			"name":"IND-08_Bita_de_amarre",
			"primitives":[
				{
					"attributes":{
						"POSITION":0,
						"NORMAL":1,
						"TEXCOORD_0":2
					},
					"indices":3,
					"material":0
				}
			]
		}
	],
	"textures":[
		{
			"sampler":0,
			"source":0
		}
	],
	"images":[
		{
			"mimeType":"image/png",
			"name":"IND-08_atlas",
			"uri":"IND-08_atlas.png"
		}
	],
	"accessors":[
		{
			"bufferView":0,
			"componentType":5126,
			"count":461,
			"max":[
				0.2563234567642212,
				0.8999999761581421,
				0.25
			],
			"min":[
				-0.25,
				0,
				-0.25
			],
			"type":"VEC3"
		},
		{
			"bufferView":1,
			"componentType":5126,
			"count":461,
			"type":"VEC3"
		},
		{
			"bufferView":2,
			"componentType":5126,
			"count":461,
			"type":"VEC2"
		},
		{
			"bufferView":3,
			"componentType":5123,
			"count":699,
			"type":"SCALAR"
		}
	],
	"bufferViews":[
		{
			"buffer":0,
			"byteLength":5532,
			"byteOffset":0,
			"target":34962
		},
		{
			"buffer":0,
			"byteLength":5532,
			"byteOffset":5532,
			"target":34962
		},
		{
			"buffer":0,
			"byteLength":3688,
			"byteOffset":11064,
			"target":34962
		},
		{
			"buffer":0,
			"byteLength":1398,
			"byteOffset":14752,
			"target":34963
		}
	],
	"samplers":[
		{
			"magFilter":9728,
			"minFilter":9984
		}
	],
	"buffers":[
		{
			"byteLength":16152,
			"uri":"IND-08_Bita_de_amarre.bin"
		}
	]
}
