{"asset":{"version":"2.0","generator":"Blockbench 4.12.5 glTF exporter"},"scenes":[{"nodes":[17],"name":"blockbench_export"}],"scene":0,"nodes":[{"translation":[0,0.234375,0.203125],"name":"head_tuft"},{"translation":[-0.1265625,0.23125000000000018,0.34687500000000004],"name":"cross"},{"translation":[0.125,1.109375,0.265625],"name":"hat","children":[1]},{"translation":[-0.125,1.109375,0.265625],"name":"hat2"},{"translation":[0,1.7453124999999998,0],"name":"Head","children":[0,2,3]},{"name":"rightfold"},{"translation":[1.6814125,-0.028124999999999734,0.68125],"name":"leftfold"},{"translation":[-0.82351875,0.5951324999999998,-0.362889375],"name":"folds","children":[5,6]},{"translation":[-1.63671875,2.234375,-0.0234375],"name":"rightarms"},{"translation":[0.98046875,3.390625,-0.0234375],"name":"leftarms"},{"translation":[0,-1.59375,-0.03125],"name":"arms","children":[8,9]},{"translation":[-0.578125,1.0546874999999998,0.4453125],"name":"gear"},{"translation":[0,-0.004687499999999956,0],"name":"Torso","children":[7,10,11]},{"name":"leftleg"},{"translation":[-0.999375,-0.2690625,0.3459375],"name":"rightleg"},{"translation":[0.4996875,-1.196171875,-0.028828125],"name":"legs","children":[13,14]},{"rotation":[0,-1,0,6.123233995736766e-17],"name":"Whole","children":[4,12,15]},{"rotation":[0,-1,0,6.123233995736766e-17],"translation":[0,1.59375,0],"name":"Whole","mesh":0,"children":[16],"skin":0}],"bufferViews":[{"buffer":0,"byteOffset":0,"byteLength":13536,"target":34962,"byteStride":12},{"buffer":0,"byteOffset":13536,"byteLength":13536,"target":34962,"byteStride":12},{"buffer":0,"byteOffset":27072,"byteLength":9024,"target":34962,"byteStride":8},{"buffer":0,"byteOffset":36096,"byteLength":9024,"target":34962,"byteStride":8},{"buffer":0,"byteOffset":45120,"byteLength":18048,"target":34962,"byteStride":16},{"buffer":0,"byteOffset":63168,"byteLength":3384,"target":34963},{"buffer":0,"byteOffset":66552,"byteLength":1088}],"buffers":[{"byteLength":67640,"uri":"data:application/octet-stream;base64,"}],"accessors":[{"bufferView":0,"componentType":5126,"count":1128,"max":[1.867635726928711,3.385937452316284,1.0253338813781738],"min":[-1.867635726928711,-1.5901561975479126,-0.8148233890533447],"type":"VEC3"},{"bufferView":1,"componentType":5126,"count":1128,"max":[1,1,1],"min":[-1,-1,-1],"type":"VEC3"},{"bufferView":2,"componentType":5126,"count":1128,"max":[0.5625,0.56640625],"min":[0,0],"type":"VEC2"},{"bufferView":3,"componentType":5123,"count":1128,"max":[0,16,0,0],"min":[0,1,0,0],"type":"VEC4"},{"bufferView":4,"componentType":5126,"count":1128,"max":[0,1,0,0],"min":[0,1,0,0],"type":"VEC4"},{"bufferView":5,"componentType":5123,"count":1692,"max":[1127],"min":[0],"type":"SCALAR"},{"bufferView":6,"componentType":5126,"count":17,"max":[-1,0,-1.2246468525851679e-16,0,0,1,0,0,1.2246468525851679e-16,0,-1,0,1.63671875,1.5984375476837158,0.3628893792629242,1],"min":[-1,0,-1.2246468525851679e-16,0,0,1,0,0,1.2246468525851679e-16,0,-1,0,-0.98046875,-3.0859375,-0.612500011920929,1],"type":"MAT4"}],"materials":[{"pbrMetallicRoughness":{"metallicFactor":0,"roughnessFactor":1,"baseColorTexture":{"index":0}},"alphaMode":"MASK","alphaCutoff":0.05,"doubleSided":true}],"textures":[{"sampler":0,"source":0,"name":"iza_tex"}],"samplers":[{"magFilter":9728,"minFilter":9728,"wrapS":33071,"wrapT":33071}],"images":[{"mimeType":"image/png","uri":"data:image/png;base64,"}],"meshes":[{"primitives":[{"mode":4,"attributes":{"POSITION":0,"NORMAL":1,"TEXCOORD_0":2,"JOINTS_0":3,"WEIGHTS_0":4},"indices":5,"material":0}]}],"skins":[{"inverseBindMatrices":6,"joints":[16,4,0,2,1,3,12,7,5,6,10,8,9,11,15,13,14],"skeleton":16}]}